<svg width="16" height="16" viewBox="0 0 16 16" fill="none" xmlns="http://www.w3.org/2000/svg">
<g clip-path="url(#clip0_7031_9478)">
<path d="M11.8159 3.68415C11.9565 3.8248 12.0355 4.01557 12.0355 4.21448C12.0355 4.41339 11.9565 4.60416 11.8159 4.74481L8.81066 7.75001L11.8159 10.7552C11.9565 10.8959 12.0355 11.0866 12.0355 11.2855C12.0355 11.4845 11.9565 11.6752 11.8159 11.8159C11.6752 11.9565 11.4844 12.0355 11.2855 12.0355C11.0866 12.0355 10.8959 11.9565 10.7552 11.8159L7.75 8.81067L4.7448 11.8159C4.60414 11.9565 4.41338 12.0355 4.21447 12.0355C4.01555 12.0355 3.82479 11.9565 3.68414 11.8159C3.54348 11.6752 3.46447 11.4845 3.46447 11.2855C3.46447 11.0866 3.54348 10.8959 3.68414 10.7552L6.68934 7.75001L3.68414 4.74481C3.54348 4.60416 3.46447 4.41339 3.46447 4.21448C3.46447 4.01557 3.54348 3.8248 3.68414 3.68415C3.82479 3.5435 4.01555 3.46448 4.21447 3.46448C4.41338 3.46448 4.60414 3.5435 4.7448 3.68415L7.75 6.68935L10.7552 3.68415C10.8959 3.5435 11.0866 3.46448 11.2855 3.46448C11.4844 3.46448 11.6752 3.5435 11.8159 3.68415Z" fill="#FF0000"/>
</g>
<defs>
<clipPath id="clip0_7031_9478">
<rect width="16" height="16" fill="white"/>
</clipPath>
</defs>
</svg>
