<svg width="18" height="18" viewBox="0 0 18 18" fill="none" xmlns="http://www.w3.org/2000/svg">
<g clip-path="url(#clip0_8557_305)">
<path d="M3.96594 8.01182C4.01967 7.95794 4.0835 7.9152 4.15377 7.88603C4.22404 7.85686 4.29937 7.84185 4.37546 7.84185C4.45154 7.84185 4.52687 7.85686 4.59714 7.88603C4.66741 7.9152 4.73124 7.95794 4.78497 8.01182L7.09859 10.3261C7.15246 10.3799 7.19519 10.4437 7.22435 10.514C7.25351 10.5843 7.26852 10.6596 7.26852 10.7357C7.26852 10.8118 7.25351 10.8872 7.22435 10.9575C7.19519 11.0278 7.15246 11.0916 7.09859 11.1454L4.78497 13.4597C4.73119 13.5134 4.66735 13.5561 4.59708 13.5852C4.52682 13.6143 4.45151 13.6293 4.37546 13.6293C4.2994 13.6293 4.22409 13.6143 4.15383 13.5852C4.08356 13.5561 4.01972 13.5134 3.96594 13.4597C3.91217 13.4059 3.86951 13.342 3.8404 13.2717C3.8113 13.2014 3.79632 13.1261 3.79632 13.05C3.79632 12.9739 3.8113 12.8986 3.8404 12.8283C3.86951 12.7581 3.91217 12.6942 3.96594 12.6404L5.87121 10.7357L3.96594 8.83108C3.91208 8.77734 3.86934 8.71349 3.84018 8.6432C3.81102 8.57291 3.79602 8.49756 3.79602 8.42145C3.79602 8.34535 3.81102 8.27 3.84018 8.19971C3.86934 8.12942 3.91208 8.06557 3.96594 8.01182ZM14.2084 12.4715H8.4243C8.2709 12.4715 8.12378 12.5324 8.0153 12.6409C7.90683 12.7494 7.84589 12.8966 7.84589 13.05C7.84589 13.2035 7.90683 13.3506 8.0153 13.4591C8.12378 13.5676 8.2709 13.6286 8.4243 13.6286H14.2084C14.3618 13.6286 14.5089 13.5676 14.6174 13.4591C14.7258 13.3506 14.7868 13.2035 14.7868 13.05C14.7868 12.8966 14.7258 12.7494 14.6174 12.6409C14.5089 12.5324 14.3618 12.4715 14.2084 12.4715ZM0.900391 3.79288C0.900391 3.02565 1.20509 2.28984 1.74745 1.74732C2.28981 1.20481 3.02541 0.900024 3.79242 0.900024H14.2037C14.9707 0.900024 15.7063 1.20481 16.2487 1.74732C16.7911 2.28984 17.0958 3.02565 17.0958 3.79288V4.37145H17.1004V5.5286H17.0969V14.2072C17.0969 14.9744 16.7922 15.7102 16.2499 16.2527C15.7075 16.7952 14.9719 17.1 14.2049 17.1H3.79358C3.02656 17.1 2.29096 16.7952 1.7486 16.2527C1.20624 15.7102 0.901547 14.9744 0.901547 14.2072L0.900391 3.79288ZM15.939 4.37145V3.79288C15.939 3.33254 15.7561 2.89106 15.4307 2.56555C15.1053 2.24004 14.6639 2.05717 14.2037 2.05717H3.79242C3.33221 2.05717 2.89085 2.24004 2.56544 2.56555C2.24002 2.89106 2.0572 3.33254 2.0572 3.79288V4.37145H15.939ZM2.0572 5.5286V14.2072C2.0572 14.6675 2.24002 15.109 2.56544 15.4345C2.89085 15.76 3.33221 15.9429 3.79242 15.9429H14.2037C14.6639 15.9429 15.1053 15.76 15.4307 15.4345C15.7561 15.109 15.939 14.6675 15.939 14.2072V5.5286H2.0572Z" fill="#F5F2FF"/>
</g>
<defs>
<clipPath id="clip0_8557_305">
<rect width="18" height="18" fill="white"/>
</clipPath>
</defs>
</svg>
