<svg width="18" height="18" viewBox="0 0 18 18" fill="none" xmlns="http://www.w3.org/2000/svg">
<path d="M2 6.375V3.75C2 3.28587 2.18437 2.84075 2.51256 2.51256C2.84075 2.18437 3.28587 2 3.75 2H6.375M16 11.625V14.25C16 14.7141 15.8156 15.1592 15.4874 15.4874C15.1592 15.8156 14.7141 16 14.25 16H11.625M11.625 2H14.25C14.7141 2 15.1592 2.18437 15.4874 2.51256C15.8156 2.84075 16 3.28587 16 3.75V6.375M6.375 16H3.75C3.28587 16 2.84075 15.8156 2.51256 15.4874C2.18437 15.1592 2 14.7141 2 14.25V11.625" stroke="#F5F2FF" stroke-width="1.6" stroke-linecap="round" stroke-linejoin="round"/>
</svg>
