<svg width="24" height="24" viewBox="0 0 24 24" fill="none" xmlns="http://www.w3.org/2000/svg">
<path d="M9.001 21.5056V17.1471C9.001 16.5741 9.2905 15.9686 9.87 15.3311C8.517 15.1041 7.308 14.6431 6.343 13.9201C4.895 12.8341 4 11.1571 4 9.50005C4 8.36505 4.42 7.30255 5.1515 6.39755C5.487 5.98205 4.87 2.03005 6 2.51505C7.1295 3.00005 8.2525 4.11605 9.4265 3.81705C10.234 3.61155 11.1 3.50005 12 3.50005C12.9938 3.4976 13.9828 3.63821 14.9365 3.91755C15.785 4.16905 17.405 3.03005 18.51 2.51505C19.6145 2.00055 18.3715 5.82205 18.7965 6.33405C19.5595 7.25305 20 8.33805 20 9.50005C20 11.1571 19.26 12.8341 17.812 13.9196C16.9645 14.5556 15.874 14.9886 14.672 15.2386C15.2205 15.9586 15.4955 16.6056 15.4955 17.1786V21.5056M3 15.6076C3.4495 15.6626 3.783 15.8696 4 16.2276C4.326 16.7651 5.537 18.7591 6.9125 18.7591H9.001" stroke="currentColor" stroke-width="1.4" stroke-linecap="round"/>
</svg>
