<svg width="16" height="16" viewBox="0 0 16 16" fill="none" xmlns="http://www.w3.org/2000/svg">
<path d="M12.9 1H3.1C1.9402 1 1 1.9402 1 3.1V12.9C1 14.0598 1.9402 15 3.1 15H12.9C14.0598 15 15 14.0598 15 12.9V3.1C15 1.9402 14.0598 1 12.9 1Z" fill="#F7DF1E"/>
<path d="M9.5816 11.2C9.84866 11.625 10.2226 11.925 10.8368 11.925C11.3709 11.925 11.7181 11.675 11.7181 11.325C11.7181 10.925 11.3709 10.775 10.7834 10.525L10.4629 10.4C9.52819 10.025 8.91395 9.575 8.91395 8.6C8.91395 7.7 9.63501 7 10.7834 7C11.6113 7 12.1988 7.275 12.5994 7.975L11.6113 8.575C11.3976 8.2 11.1573 8.05 10.7834 8.05C10.4095 8.05 10.1691 8.275 10.1691 8.575C10.1691 8.925 10.4095 9.075 10.9703 9.3L11.2908 9.425C12.3858 9.875 13 10.3 13 11.325C13 12.4 12.092 13 10.8635 13C9.66172 13 8.88724 12.475 8.51335 11.775L9.5816 11.2ZM5.04154 11.3C5.25519 11.625 5.41543 11.925 5.86944 11.925C6.29674 11.925 6.5638 11.775 6.5638 11.175V7.025H7.8457V11.125C7.8457 12.375 7.07122 12.925 5.92285 12.925C4.88131 12.925 4.29377 12.425 4 11.825L5.04154 11.3Z" fill="black"/>
</svg>
