<svg width="18" height="18" viewBox="0 0 18 18" fill="none" xmlns="http://www.w3.org/2000/svg">
<g clip-path="url(#clip0_5568_48852)">
<path fill-rule="evenodd" clip-rule="evenodd" d="M9.47736 4.30225L9.11582 4.7208C8.65407 5.25537 7.84639 5.31439 7.31183 4.85262C6.77727 4.39086 6.71825 3.58317 7.18001 3.0486L7.5748 2.59156C7.59515 2.568 7.61635 2.54519 7.63837 2.52318C8.67789 1.48379 10.0877 0.89992 11.5577 0.900024C13.0278 0.900128 14.4375 1.48419 15.4769 2.52374C16.5163 3.56328 17.1001 4.97314 17.1 6.44317C17.0999 7.9132 16.5159 9.32297 15.4763 10.3624C15.4552 10.3835 15.4334 10.4038 15.4109 10.4234L14.9556 10.819C14.4224 11.2823 13.6145 11.2257 13.1512 10.6925C12.6879 10.1592 12.7445 9.35138 13.2778 8.88806L13.6963 8.52437C14.2381 7.96761 14.5419 7.22097 14.542 6.44299C14.542 5.6514 14.2276 4.89221 13.668 4.33244C13.1083 3.77266 12.3491 3.45815 11.5576 3.4581C10.7802 3.45804 10.0341 3.76126 9.47736 4.30225ZM12.463 5.53836C12.9625 6.03785 12.9625 6.84769 12.463 7.34719L7.34696 12.4633C6.84747 12.9628 6.03764 12.9628 5.53816 12.4633C5.03867 11.9638 5.03867 11.154 5.53816 10.6545L10.6542 5.53836C11.1537 5.03886 11.9635 5.03886 12.463 5.53836ZM4.84299 7.30125C5.31072 7.83061 5.26076 8.63891 4.73141 9.10664L4.31391 9.47555C4.04631 9.74605 3.8333 10.0657 3.68662 10.417C3.53575 10.7783 3.45806 11.166 3.45806 11.5576C3.45806 11.9492 3.53575 12.3369 3.68662 12.6983C3.83749 13.0597 4.05856 13.3875 4.33701 13.6628L4.33704 13.6629C4.90659 14.2261 5.67526 14.542 6.47624 14.542C7.24759 14.542 7.98898 14.249 8.55142 13.7243L8.82684 13.3539C9.24829 12.787 10.0495 12.6691 10.6164 13.0905C11.1833 13.512 11.3012 14.3132 10.8797 14.8801L10.5412 15.3354C10.5026 15.3874 10.4601 15.4363 10.4141 15.4818C9.36567 16.5186 7.9507 17.1 6.47624 17.1C5.0018 17.1 3.58684 16.5186 2.53843 15.4818C2.01938 14.9686 1.60731 14.3575 1.32607 13.6839C1.04484 13.0103 0.900024 12.2876 0.900024 11.5576C0.900024 10.8277 1.04484 10.105 1.32607 9.43139C1.60731 8.7578 2.01938 8.14669 2.53843 7.63345C2.55543 7.61664 2.57291 7.6003 2.59083 7.58447L3.03763 7.18967C3.56698 6.72194 4.37526 6.7719 4.84299 7.30125Z" fill="#7917F5"/>
</g>
<defs>
<clipPath id="clip0_5568_48852">
<rect width="18" height="18" fill="white"/>
</clipPath>
</defs>
</svg>
