<svg width="18" height="18" viewBox="0 0 18 18" fill="none" xmlns="http://www.w3.org/2000/svg">
<path d="M8.75 4.44C9.16421 4.44 9.5 4.11765 9.5 3.72C9.5 3.32236 9.16421 3 8.75 3C8.33579 3 8 3.32236 8 3.72C8 4.11765 8.33579 4.44 8.75 4.44Z" stroke="#F5F2FF" stroke-width="1.5" stroke-linecap="round" stroke-linejoin="round"/>
<path d="M8.75 9.72003C9.16421 9.72003 9.5 9.39767 9.5 9.00003C9.5 8.60238 9.16421 8.28003 8.75 8.28003C8.33579 8.28003 8 8.60238 8 9.00003C8 9.39767 8.33579 9.72003 8.75 9.72003Z" stroke="#F5F2FF" stroke-width="1.5" stroke-linecap="round" stroke-linejoin="round"/>
<path d="M8.75 15.0001C9.16421 15.0001 9.5 14.6777 9.5 14.2801C9.5 13.8824 9.16421 13.5601 8.75 13.5601C8.33579 13.5601 8 13.8824 8 14.2801C8 14.6777 8.33579 15.0001 8.75 15.0001Z" stroke="#F5F2FF" stroke-width="1.5" stroke-linecap="round" stroke-linejoin="round"/>
</svg>
