<svg width="72" height="72" viewBox="0 0 72 72" fill="none" xmlns="http://www.w3.org/2000/svg">
<rect width="72" height="72" rx="36" fill="#F35045"/>
<path d="M53.9784 25.5976C53.9923 25.6483 54 25.7005 54 25.7544V33.9083C54 34.122 53.8873 34.3199 53.7081 34.4244L47.0326 38.3668V46.1787C47.0326 46.3925 46.9214 46.5872 46.7422 46.6949L32.8027 54.92C32.7703 54.939 32.7363 54.9517 32.7008 54.9628C32.6885 54.966 32.6761 54.9755 32.6637 54.9786C32.5665 55.0071 32.463 55.0071 32.3673 54.9786C32.3503 54.9755 32.3364 54.966 32.3225 54.9596C32.2901 54.947 32.2561 54.9375 32.2252 54.92L18.2919 46.6949C18.1112 46.5872 18 46.3925 18 46.1787V21.7091C18 21.6568 18.0077 21.6046 18.0216 21.5539C18.0263 21.5349 18.0371 21.5207 18.0432 21.5033C18.0525 21.4716 18.0649 21.4399 18.0788 21.4114C18.0849 21.3908 18.1019 21.3766 18.1143 21.3592C18.1328 21.3338 18.1467 21.3101 18.1652 21.2879C18.1838 21.2721 18.2038 21.2594 18.2224 21.2452C18.244 21.2262 18.2641 21.2072 18.2857 21.1913H18.2872L25.2562 17.0796C25.4338 16.9735 25.6562 16.9735 25.8353 17.0796L32.8027 21.1913H32.8058C32.829 21.2072 32.8475 21.2246 32.8691 21.2436C32.8877 21.2578 32.9077 21.2721 32.9263 21.2863C32.9463 21.3085 32.9587 21.3323 32.9772 21.3576C32.9896 21.375 33.0081 21.3908 33.0158 21.4098C33.0328 21.4399 33.0421 21.47 33.0529 21.5017C33.0575 21.5191 33.0699 21.5349 33.073 21.5523C33.0884 21.6014 33.0946 21.6537 33.0946 21.7075V36.9894L38.9008 33.5631V25.7512C38.9008 25.699 38.9085 25.6467 38.9224 25.596C38.927 25.5786 38.9363 25.5628 38.9425 25.5454C38.9533 25.5137 38.9641 25.4836 38.9795 25.452C38.9903 25.433 39.0073 25.4187 39.0181 25.3997C39.0367 25.376 39.0506 25.3522 39.0691 25.3316C39.0876 25.3126 39.1077 25.3 39.1262 25.2873C39.1479 25.2699 39.1664 25.2509 39.1895 25.2366L46.1601 21.1233C46.3392 21.0172 46.56 21.0172 46.7392 21.1233L53.7081 25.2366C53.7329 25.2525 53.7498 25.2699 53.773 25.2857C53.7915 25.3016 53.8116 25.3142 53.8286 25.3301C53.8487 25.3522 53.8626 25.376 53.8811 25.3997C53.8934 25.4187 53.9104 25.433 53.9182 25.452C53.9351 25.4836 53.946 25.5137 53.9552 25.5454C53.9645 25.5628 53.9737 25.5802 53.9784 25.5976ZM52.8357 33.5647V26.7835L50.3989 28.2211L47.0295 30.2097V36.9909L52.8357 33.5647ZM45.8698 45.8352V39.0476L42.5559 40.9871L33.0946 46.5255V53.3748L45.8698 45.8352ZM19.1582 22.7382V45.8352L31.9333 53.3748V46.5255L25.2593 42.6543L25.2562 42.6496H25.2531C25.2315 42.6338 25.2145 42.6163 25.1914 42.6005C25.1744 42.5847 25.1543 42.572 25.1373 42.5578L25.1358 42.5546C25.1157 42.5356 25.1033 42.515 25.0879 42.4928C25.0724 42.4738 25.0555 42.4564 25.0447 42.4343H25.0416C25.0292 42.4121 25.0215 42.3852 25.0107 42.3599C25.0014 42.3345 24.9891 42.3171 24.9829 42.2918C24.9767 42.2633 24.9736 42.2332 24.9705 42.2015C24.9674 42.1794 24.9613 42.1588 24.9613 42.1366V26.166L21.5949 24.1758L19.1582 22.7382ZM25.545 18.2829L19.7388 21.7091L25.545 25.1353L31.3481 21.7091L25.545 18.2829ZM28.5654 39.6651L31.9349 37.6765V22.7382L29.495 24.1774L26.1256 26.166V41.1043L28.5654 39.6651ZM46.4504 22.3266L40.6442 25.7528L46.4504 29.1774L52.2551 25.7512L46.4504 22.3266ZM45.8698 30.2097L42.5003 28.2211L40.062 26.7835V33.5647L43.4315 35.5533L45.8698 36.9909V30.2097ZM32.5124 45.4948L41.0271 40.5106L45.283 38.0217L39.4814 34.597L32.8043 38.5378L26.7186 42.1319L32.5124 45.4948Z" fill="white"/>
<path fill-rule="evenodd" clip-rule="evenodd" d="M25.5805 17.5098C25.5578 17.4963 25.5316 17.4975 25.5126 17.5088L25.5103 17.5102L18.5703 21.6049L18.5524 21.6208L18.5401 21.6316L18.5272 21.6415C18.5271 21.6416 18.5272 21.6415 18.5272 21.6415C18.5254 21.644 18.5234 21.6468 18.5214 21.6494L18.5192 21.6571L18.5145 21.6704C18.5096 21.6842 18.5046 21.6967 18.5 21.7072C18.5 21.7079 18.5 21.7086 18.5 21.7091V46.1787C18.5 46.2168 18.5189 46.2479 18.5473 46.2651C18.5475 46.2652 18.5472 46.265 18.5473 46.2651L32.4576 54.4766L32.4664 54.4798C32.4751 54.4829 32.4891 54.4879 32.5044 54.4939L32.5152 54.4981C32.527 54.4936 32.5408 54.4887 32.5563 54.4841C32.5575 54.4837 32.5585 54.4834 32.5594 54.4831L46.4847 46.2663C46.485 46.2661 46.4853 46.2659 46.4856 46.2658C46.5134 46.2486 46.5326 46.2171 46.5326 46.1787V38.0814L53.4539 33.9939L53.4562 33.9926C53.4779 33.9799 53.5 33.9487 53.5 33.9083V25.7544C53.5 25.7543 53.5 25.7544 53.5 25.7544L53.4897 25.735L53.4785 25.6965C53.4778 25.6955 53.4771 25.6945 53.4764 25.6935C53.4734 25.6896 53.4706 25.6858 53.4681 25.6823C53.4604 25.6767 53.4537 25.6715 53.448 25.667C53.4422 25.6625 53.4364 25.6578 53.4321 25.6543L46.485 21.5539C46.463 21.5408 46.4369 21.5404 46.4149 21.5535L39.469 25.6523C39.4624 25.658 39.4521 25.6669 39.4399 25.6767L39.4287 25.6857C39.4247 25.6916 39.4209 25.697 39.4174 25.702C39.4168 25.7036 39.4163 25.7052 39.4157 25.7069L39.4137 25.7125C39.4093 25.7252 39.4048 25.7363 39.4012 25.7451C39.4009 25.7479 39.4008 25.7499 39.4008 25.7512V33.8486L32.5946 37.865V21.7075C32.5946 21.706 32.5946 21.7046 32.5945 21.7033C32.5918 21.6967 32.5889 21.6893 32.5859 21.6812C32.5834 21.6744 32.5807 21.667 32.5781 21.6589C32.5758 21.6558 32.5734 21.6525 32.571 21.6491C32.5688 21.6461 32.5666 21.643 32.5646 21.6402C32.5645 21.6401 32.5647 21.6402 32.5646 21.6402L32.5514 21.63L32.5391 21.6192L32.5294 21.6106L25.5805 17.5098ZM39.4056 25.7246C39.4053 25.7258 39.4049 25.7271 39.4046 25.7283L39.4056 25.7246ZM26.0896 16.6491C25.7546 16.4509 25.337 16.4496 25.0012 16.6495L18.1507 20.6913H18.1222L17.9903 20.788C17.9591 20.8108 17.9257 20.8397 17.907 20.8563L17.9023 20.8598C17.8901 20.8685 17.8664 20.8856 17.8404 20.9078L17.8085 20.935L17.7816 20.9672C17.7562 20.9976 17.737 21.0255 17.7268 21.0404C17.721 21.0489 17.7178 21.0538 17.7157 21.0568C17.7152 21.0575 17.7148 21.0582 17.7144 21.0587C17.7114 21.0623 17.7069 21.0678 17.7018 21.0743C17.6853 21.0952 17.6483 21.1435 17.6189 21.2143C17.6032 21.2485 17.5889 21.2843 17.5766 21.3209C17.5665 21.3424 17.5504 21.3796 17.5383 21.4258C17.5145 21.514 17.5 21.6093 17.5 21.7091V46.1787C17.5 46.5679 17.7033 46.9262 18.0359 47.1244L18.0377 47.1255L31.971 55.3506L31.9796 55.3556C32.0282 55.383 32.0723 55.4003 32.0981 55.4099C32.112 55.4151 32.1197 55.4179 32.1241 55.4195C32.1245 55.4197 32.1249 55.4199 32.1253 55.4201C32.1458 55.43 32.1864 55.4488 32.2408 55.4625C32.4246 55.5139 32.6192 55.5121 32.8013 55.4594C32.8353 55.4497 32.8618 55.4386 32.8777 55.4315C32.8788 55.431 32.8799 55.4305 32.881 55.43C32.9291 55.4137 32.9907 55.3894 33.0555 55.3515L33.0568 55.3507L46.9963 47.1255L46.9998 47.1234C47.3298 46.9251 47.5326 46.5674 47.5326 46.1787V38.6522L53.9601 34.8563C53.9604 34.8561 53.9608 34.8559 53.9612 34.8557C54.2971 34.6592 54.5 34.2949 54.5 33.9083V25.7544C54.5 25.6521 54.4853 25.5554 54.4606 25.4654C54.4488 25.4224 54.4325 25.3833 54.4193 25.3551C54.4066 25.3178 54.3899 25.276 54.367 25.2312C54.3532 25.2026 54.3389 25.1791 54.3268 25.161C54.3112 25.1376 54.2967 25.1195 54.2897 25.1109C54.2898 25.111 54.2896 25.1107 54.2897 25.1109L54.2885 25.1091L54.2761 25.0932C54.2759 25.0929 54.2754 25.0923 54.2748 25.0914L54.263 25.0746C54.2519 25.059 54.2296 25.028 54.1992 24.9944L54.185 24.9787L54.1695 24.9643C54.1399 24.9367 54.1118 24.9158 54.1022 24.9085L54.0939 24.9022L54.0774 24.8881L54.062 24.8776C54.0606 24.8765 54.0588 24.875 54.0564 24.8731L54.0556 24.8724C54.0436 24.8627 54.0149 24.8394 53.9779 24.8157L53.9702 24.8107L46.9939 20.693C46.6577 20.4939 46.2415 20.4939 45.9053 20.693L38.9354 24.806L38.9276 24.8108C38.8834 24.8379 38.8501 24.8657 38.8332 24.88L38.8241 24.8879C38.7986 24.9057 38.7527 24.9399 38.7112 24.9825L38.7042 24.9897L38.6975 24.9971C38.6673 25.0307 38.645 25.0622 38.6352 25.076C38.6252 25.0902 38.6236 25.0926 38.6236 25.0926L38.6016 25.1208L38.5996 25.1242C38.5969 25.1277 38.5939 25.1314 38.591 25.1353C38.5789 25.1512 38.562 25.1747 38.5449 25.2047L38.5371 25.2185L38.5301 25.2328C38.5043 25.2857 38.4867 25.3337 38.4745 25.3686L38.4739 25.3699C38.4688 25.3817 38.4528 25.4179 38.4402 25.4638C38.4157 25.5531 38.4008 25.6499 38.4008 25.7512V33.2776L33.5946 36.1137V21.7075C33.5946 21.6219 33.5855 21.5239 33.5558 21.4217C33.5487 21.3944 33.5406 21.372 33.5341 21.3555C33.5295 21.344 33.525 21.3336 33.5212 21.3254C33.5123 21.2987 33.4927 21.2428 33.4627 21.1853C33.4484 21.1561 33.4336 21.1324 33.4215 21.1146C33.405 21.0903 33.3895 21.0715 33.3813 21.0617L33.3775 21.0573L33.3762 21.0553L33.3684 21.0435C33.3562 21.0253 33.3319 20.9894 33.2969 20.9507L33.2667 20.9174L33.2311 20.89C33.2172 20.8794 33.2036 20.8693 33.1947 20.8627L33.1864 20.8566C33.1671 20.8394 33.1291 20.8067 33.088 20.7786L32.9604 20.6913H32.9393L26.0896 16.6491C26.0898 16.6492 26.0895 16.649 26.0896 16.6491ZM54.0922 24.901C54.0918 24.9006 54.0927 24.9013 54.0939 24.9022L54.0922 24.901ZM32.9093 55.4162C32.9107 55.4155 32.9118 55.4149 32.9113 55.4152L32.9104 55.4156L32.9093 55.4162ZM25.545 17.7023L32.3315 21.7091L25.545 25.7159L18.7549 21.7091L25.545 17.7023ZM20.7226 21.7091L25.5449 18.8635L30.3646 21.7091L25.5449 24.5547L20.7226 21.7091ZM46.4504 21.746L53.2389 25.7511L46.4505 29.758L39.6602 25.7529L46.4504 21.746ZM18.6582 21.8627L25.4613 25.8808V42.1042C25.4626 42.112 25.4642 42.1217 25.4657 42.1325L25.4672 42.1427L25.4678 42.1496H25.5274L25.6134 42.2817L32.4333 46.2375V54.2504L18.6582 46.1207V21.8627ZM25.4482 42.1133C25.448 42.1129 25.4482 42.1132 25.4487 42.1144ZM32.4349 21.8628V37.962L28.8196 40.0957L25.6256 41.9798V25.8805L29.2409 23.7468L32.4349 21.8628ZM46.4504 22.9071L51.2712 25.7513L46.4503 28.5969L41.6282 25.7527L46.4504 22.9071ZM29.7491 24.6081L26.6256 26.4515V40.2289L28.3113 39.2345L31.4349 37.391V23.6137L29.7491 24.6081ZM19.6582 23.6137L24.4613 26.4513V42.1366C24.4613 42.1926 24.4691 42.2379 24.4727 42.2579L24.4747 42.2689C24.4779 42.3001 24.4834 42.3479 24.4942 42.3977L24.4971 42.4102C24.5123 42.4725 24.5342 42.5195 24.543 42.5383L24.5454 42.5432L24.5501 42.5544C24.5502 42.5548 24.5505 42.5554 24.5508 42.5562L24.5536 42.5637L24.5583 42.5763C24.5646 42.5928 24.5801 42.6334 24.6048 42.6777L24.7478 42.9343H24.8081L24.816 42.9408C24.829 42.9518 24.8407 42.9608 24.8485 42.9667L24.8587 42.9744L24.8608 42.9759L24.878 42.992L24.886 42.9974L24.9052 43.027L24.9868 43.0743L25.0896 43.1496H25.1166L31.4333 46.8135V52.4991L19.6582 45.5497V23.6137ZM53.3357 25.908V33.8502L46.5295 37.8666V29.9242L50.1448 27.7905L53.3357 25.908ZM39.562 25.9083L42.7543 27.7904L46.3698 29.9242V37.8662L43.1775 35.984L39.562 33.8502V25.9083ZM40.562 27.6587V33.2792L43.6854 35.1226L45.3698 36.1157V30.4952L42.2464 28.6518L40.562 27.6587ZM50.653 28.6518L47.5295 30.4952V36.1153L52.3357 33.2792V27.659L50.653 28.6518ZM39.4814 34.0164L46.27 38.0237L41.2797 40.9421L32.5135 46.0735L25.729 42.1356L32.55 38.1073L39.4814 34.0164ZM33.0584 38.9684L27.7082 42.1281L32.5114 44.916L40.7746 40.0791L44.296 38.0196L39.4814 35.1776L33.0584 38.9684ZM46.3698 38.1756V46.1207L32.5946 54.2504V46.2388L42.3033 40.5556L46.3698 38.1756ZM42.8085 41.4187L33.5946 46.8122V52.4991L45.3698 45.5497V39.9196L42.8085 41.4187Z" fill="white"/>
</svg>
