<svg width="72" height="72" viewBox="0 0 72 72" fill="none" xmlns="http://www.w3.org/2000/svg">
<rect width="72" height="72" rx="36" fill="#141414"/>
<path d="M29.935 49.6027C27.9595 47.8207 27.3828 44.0765 28.2059 41.3639C29.633 43.0741 31.6103 43.6159 33.6584 43.9217C36.8203 44.3936 39.9255 44.2171 42.8627 42.791C43.1987 42.6277 43.5092 42.4106 43.8764 42.1907C44.152 42.9797 44.2237 43.7763 44.1275 44.5871C43.8934 46.5616 42.8977 48.0868 41.3139 49.2431C40.6806 49.7055 40.0105 50.1189 39.3564 50.555C37.3469 51.8952 36.8033 53.4667 37.5584 55.7527C37.5763 55.8084 37.5924 55.8641 37.6329 56C36.607 55.547 35.8575 54.8872 35.2865 54.0198C34.6834 53.1043 34.3965 52.0915 34.3814 50.9958C34.3739 50.4625 34.3739 49.9245 34.3012 49.3988C34.1238 48.1171 33.514 47.5432 32.3654 47.5101C31.1865 47.4762 30.254 48.1954 30.0067 49.328C29.9878 49.4148 29.9605 49.5007 29.9331 49.6017L29.935 49.6027Z" fill="white"/>
<path d="M20 42.1944C20 42.1944 25.4016 39.5696 30.8183 39.5696L34.9023 26.9618C35.0552 26.352 35.5017 25.9377 36.0056 25.9377C36.5097 25.9377 36.9561 26.352 37.109 26.9618L41.193 39.5696C47.6083 39.5696 52.0113 42.1944 52.0113 42.1944C52.0113 42.1944 42.8362 17.2619 42.8182 17.2119C42.5549 16.4747 42.1104 16 41.5111 16H30.5012C29.9018 16 29.4752 16.4747 29.1939 17.2119C29.1741 17.261 20 42.1944 20 42.1944Z" fill="white"/>
</svg>
