<svg width="73" height="72" viewBox="0 0 73 72" fill="none" xmlns="http://www.w3.org/2000/svg">
<rect x="0.452881" width="72" height="72" rx="36" fill="#61DBFB"/>
<path d="M26.2038 30.0798C21.5203 31.3812 18.4531 33.5466 18.4531 36C18.4531 39.978 26.5116 43.2 36.453 43.2C37.8444 43.2 39.1998 43.137 40.4994 43.0164M46.6985 41.9202C51.3839 40.6206 54.4529 38.4534 54.4529 36C54.4529 32.022 46.3943 28.8 36.453 28.8C35.0616 28.8 33.7062 28.863 32.403 28.9836" stroke="white" stroke-width="2" stroke-linecap="round" stroke-linejoin="round"/>
<path d="M26.202 41.9165C24.9852 46.6235 25.329 50.3639 27.453 51.5879C30.8964 53.5769 37.7184 48.2093 42.6882 39.6C43.3848 38.394 44.0076 37.1898 44.553 36.0036M46.7021 30.0888C47.9207 25.38 47.5787 21.636 45.453 20.412C42.0096 18.423 35.1876 23.7906 30.2178 32.4C29.5212 33.606 28.8984 34.812 28.3512 35.9982" stroke="white" stroke-width="2" stroke-linecap="round" stroke-linejoin="round"/>
<path d="M36.453 24.1632C32.988 20.7576 29.577 19.1845 27.453 20.412C24.0096 22.3992 25.2462 30.9906 30.2178 39.6C30.9126 40.806 31.6452 41.9471 32.3994 43.0127M36.4494 47.8331C39.9162 51.2405 43.3272 52.8155 45.4529 51.5879C48.8963 49.6007 47.6597 41.0094 42.6882 32.4C42.0132 31.23 41.2842 30.0906 40.5066 28.9854M35.553 37.5588C35.7578 37.6788 35.9843 37.7572 36.2195 37.7893C36.4547 37.8215 36.6939 37.8068 36.9234 37.7461C37.1529 37.6855 37.3681 37.58 37.5567 37.4358C37.7453 37.2916 37.9035 37.1115 38.0222 36.906C38.1408 36.7004 38.2177 36.4734 38.2483 36.238C38.2789 36.0026 38.2626 35.7634 38.2004 35.5343C38.1382 35.3052 38.0313 35.0907 37.8859 34.9031C37.7405 34.7155 37.5593 34.5585 37.353 34.4412C36.9398 34.2063 36.4504 34.1443 35.9917 34.2688C35.533 34.3934 35.1422 34.6943 34.9045 35.1059C34.6668 35.5176 34.6016 36.0065 34.7231 36.466C34.8446 36.9256 35.1429 37.3184 35.553 37.5588Z" stroke="white" stroke-width="2" stroke-linecap="round" stroke-linejoin="round"/>
</svg>
