<svg width="73" height="72" viewBox="0 0 73 72" fill="none" xmlns="http://www.w3.org/2000/svg">
<rect x="0.44043" width="72" height="72" rx="36" fill="#3E84FF"/>
<g clip-path="url(#clip0_5568_48704)">
<path d="M54.6437 27.7116L54.4721 27.3283L54.1904 27.6416C53.5104 28.415 52.6437 29.0083 51.6821 29.3683L51.4171 29.47L51.5271 29.7283C52.3544 31.7133 52.7793 33.8428 52.7771 35.9933C52.7771 45.0016 45.4487 52.3366 36.4337 52.3366C27.4187 52.3366 20.0971 45.0083 20.0971 36C20.0971 26.9916 27.4337 19.6566 36.4404 19.6566C38.8854 19.6566 41.2454 20.1883 43.4404 21.235L43.6987 21.36L43.8087 21.1016C44.2153 20.1555 44.8483 19.3238 45.6521 18.68L45.9804 18.415L45.6054 18.22C42.7736 16.7551 39.6304 15.9941 36.4421 16.0016C25.4104 16.0016 16.4421 24.97 16.4421 36.0016C16.4421 47.0333 25.4104 56.0016 36.4421 56.0016C47.4737 56.0016 56.4421 47.0333 56.4421 36.0016C56.4421 33.1183 55.8404 30.33 54.6454 27.7133L54.6437 27.7116ZM36.4404 26.8833C34.0233 26.886 31.706 27.8473 29.9969 29.5564C28.2877 31.2656 27.3264 33.5829 27.3237 36C27.3264 38.4171 28.2877 40.7344 29.9969 42.4435C31.706 44.1526 34.0233 45.114 36.4404 45.1166C38.8575 45.114 41.1748 44.1526 42.8839 42.4435C44.5931 40.7344 45.5544 38.4171 45.5571 36C45.5531 33.5833 44.5913 31.2667 42.8825 29.5579C41.1736 27.8491 38.8571 26.8873 36.4404 26.8833ZM53.6821 23.5383C53.6821 24.0842 53.5746 24.6247 53.3657 25.129C53.1568 25.6333 52.8506 26.0915 52.4646 26.4775C52.0786 26.8635 51.6204 27.1697 51.1161 27.3786C50.6118 27.5875 50.0713 27.695 49.5254 27.695C48.9795 27.695 48.439 27.5875 47.9347 27.3786C47.4304 27.1697 46.9722 26.8635 46.5862 26.4775C46.2002 26.0915 45.894 25.6333 45.6852 25.129C45.4763 24.6247 45.3687 24.0842 45.3687 23.5383C45.3687 22.4359 45.8067 21.3786 46.5862 20.5991C47.3657 19.8196 48.423 19.3816 49.5254 19.3816C50.6278 19.3816 51.6851 19.8196 52.4646 20.5991C53.2441 21.3786 53.6821 22.4359 53.6821 23.5383Z" fill="white"/>
</g>
<defs>
<clipPath id="clip0_5568_48704">
<rect width="40" height="40" fill="white" transform="translate(16.4404 16)"/>
</clipPath>
</defs>
</svg>
