<svg width="72" height="72" viewBox="0 0 72 72" fill="none" xmlns="http://www.w3.org/2000/svg">
<rect width="72" height="72" rx="36" fill="#23272D"/>
<path d="M35.8988 39.3651C37.7183 39.3651 39.1934 37.8901 39.1934 36.0707C39.1934 34.2511 37.7183 32.7761 35.8988 32.7761C34.0794 32.7761 32.6043 34.2511 32.6043 36.0707C32.6043 37.8901 34.0794 39.3651 35.8988 39.3651Z" fill="#61DAFB"/>
<path d="M35.8999 42.8209C45.6631 42.8209 53.5777 39.7989 53.5777 36.0712C53.5777 32.3434 45.6631 29.3214 35.8999 29.3214C26.1368 29.3214 18.2221 32.3434 18.2221 36.0712C18.2221 39.7989 26.1368 42.8209 35.8999 42.8209Z" stroke="#61DAFB" stroke-width="2.30334"/>
<path d="M30.054 39.446C34.9356 47.901 41.5101 53.2444 44.7384 51.3805C47.9668 49.5166 46.6265 41.1514 41.7449 32.6962C36.8633 24.241 30.289 18.8977 27.0606 20.7617C23.8323 22.6254 25.1725 30.9908 30.054 39.446Z" stroke="#61DAFB" stroke-width="2.30334"/>
<path d="M30.053 32.6956C25.1706 41.1523 23.8301 49.519 27.059 51.3832C30.288 53.2473 36.8635 47.9032 41.7459 39.4464C46.6284 30.9897 47.9689 22.623 44.74 20.7588C41.5111 18.8945 34.9355 24.2389 30.053 32.6956Z" stroke="#61DAFB" stroke-width="2.30375"/>
</svg>
