<svg width="72" height="72" viewBox="0 0 72 72" fill="none" xmlns="http://www.w3.org/2000/svg">
<rect width="72" height="72" rx="36" fill="white"/>
<g clip-path="url(#clip0_7505_6892)">
<path d="M35.802 23.4117C33.9537 24.7116 31.8589 26.185 30.7365 28.6226C28.7869 32.8753 34.7257 37.5142 34.9795 37.7096C35.0385 37.755 35.1091 37.7776 35.1795 37.7776C35.2543 37.7776 35.3291 37.7521 35.3899 37.7011C35.5078 37.6025 35.5412 37.435 35.4705 37.2986C35.449 37.2572 33.3173 33.1166 33.3965 30.1461C33.4245 29.1115 34.8724 27.9378 36.4052 26.6952C37.8091 25.5571 39.4006 24.2672 40.3317 22.7582C42.3757 19.4366 40.1038 16.1705 40.0806 16.1378C39.9904 16.0111 39.8238 15.9653 39.6814 16.0277C39.5392 16.0905 39.4603 16.2443 39.4928 16.3964C39.4974 16.4181 39.9392 18.5779 38.7099 20.8032C38.2034 21.7227 37.0906 22.5054 35.802 23.4117Z" fill="#DB380E"/>
<path d="M43.5889 24.8764C43.7193 24.7782 43.7576 24.5991 43.6788 24.4561C43.5998 24.3131 43.4279 24.2501 43.2753 24.308C42.9613 24.4274 35.5865 27.2702 35.5865 30.7049C35.5865 33.0727 36.5979 34.3235 37.3364 35.2369C37.6261 35.5952 37.8762 35.9046 37.9586 36.1687C38.1906 36.9299 37.6409 38.3057 37.4098 38.7716C37.3431 38.9055 37.3758 39.0679 37.4892 39.1657C37.5504 39.2186 37.6269 39.2455 37.7034 39.2455C37.7686 39.2455 37.8341 39.2261 37.8906 39.1867C38.0174 39.0986 40.9896 36.9972 40.4566 34.4654C40.258 33.503 39.7851 32.7999 39.3678 32.1794C38.7214 31.2181 38.2545 30.5237 38.9628 29.2412C39.7927 27.7452 43.5509 24.9048 43.5889 24.8764Z" fill="#DB380E"/>
<path d="M24.3921 39.2998C24.2656 39.6783 24.3253 40.0538 24.5645 40.386C25.3639 41.4959 28.1957 42.107 32.5386 42.107C32.5388 42.107 32.539 42.107 32.5391 42.107C33.1276 42.107 33.7488 42.0954 34.3851 42.0726C41.3285 41.8241 43.9038 39.661 44.0101 39.569C44.1259 39.4688 44.1568 39.3019 44.0849 39.1669C44.0128 39.032 43.8576 38.9642 43.7092 39.005C41.2638 39.6727 36.6976 39.9097 33.5304 39.9097C29.9865 39.9097 28.1816 39.6544 27.7397 39.4659C27.9664 39.1545 29.3649 38.5986 31.0978 38.2577C31.2634 38.2252 31.3772 38.0723 31.3608 37.9043C31.3444 37.7363 31.2033 37.6082 31.0345 37.6082C30.0187 37.6082 24.9246 37.6898 24.3921 39.2998Z" fill="#73A1FB"/>
<path d="M47.6261 37.0718C46.194 37.0718 44.8359 37.7896 44.7787 37.82C44.6463 37.8909 44.5791 38.0428 44.6154 38.1887C44.6519 38.3344 44.7829 38.4369 44.9332 38.437C44.9636 38.437 47.988 38.4618 48.2619 40.1898C48.5046 41.6806 45.4003 44.0961 44.1836 44.9011C44.0522 44.9881 44.0012 45.156 44.0622 45.3013C44.1142 45.425 44.2346 45.5024 44.3644 45.5024C44.3871 45.5024 44.41 45.5 44.4328 45.4952C44.7216 45.4334 51.4958 43.9406 50.7796 39.9964C50.3426 37.5792 48.8234 37.0718 47.6261 37.0718Z" fill="#73A1FB"/>
<path d="M42.9803 44.4184C43.0039 44.2921 42.9513 44.1636 42.8462 44.0898L41.2219 42.952C41.1426 42.8966 41.0426 42.8791 40.9496 42.9037C40.9326 42.908 39.234 43.3546 36.7679 43.6284C35.7892 43.7382 34.6929 43.7962 33.5975 43.7962C31.132 43.7962 29.5199 43.5065 29.2852 43.294C29.2541 43.2343 29.2639 43.2072 29.2695 43.1921C29.3121 43.0735 29.5407 42.9326 29.6881 42.8768C29.8508 42.8166 29.9385 42.6398 29.8879 42.4739C29.8374 42.3077 29.6663 42.21 29.4974 42.2505C27.868 42.6437 27.0713 43.1936 27.1292 43.8848C27.2322 45.1102 30.0706 45.7392 32.4703 45.9055C32.8153 45.9291 33.1886 45.941 33.5793 45.941C33.5795 45.941 33.5796 45.941 33.5799 45.941C37.5701 45.941 42.6854 44.6891 42.7365 44.6763C42.8614 44.6459 42.9566 44.545 42.9803 44.4184Z" fill="#73A1FB"/>
<path d="M30.7346 47.0485C30.8576 46.9685 30.9121 46.8163 30.8685 46.6763C30.825 46.5362 30.6939 46.4442 30.5468 46.4461C30.3284 46.4519 28.4101 46.5384 28.2758 47.7598C28.2352 48.1248 28.3397 48.4583 28.5867 48.7509C29.2754 49.5671 31.1346 50.0523 34.2696 50.234C34.6404 50.2563 35.0172 50.2674 35.3894 50.2674C39.375 50.2674 42.0592 49.0196 42.1716 48.9664C42.2806 48.9149 42.3525 48.8078 42.3589 48.6874C42.3653 48.5671 42.3052 48.453 42.2024 48.3901L40.1497 47.137C40.0784 47.0935 39.9932 47.0792 39.9119 47.0958C39.899 47.0985 38.5956 47.3688 36.6287 47.6359C36.2565 47.6865 35.7904 47.7122 35.2435 47.7122C33.2786 47.7122 31.0932 47.3912 30.674 47.181C30.6679 47.1417 30.6757 47.0919 30.7346 47.0485Z" fill="#73A1FB"/>
<path d="M33.5319 54.0353C42.6612 54.0276 47.561 52.404 48.5049 51.3824C48.839 51.021 48.8751 50.6788 48.8467 50.4553C48.7766 49.9053 48.2756 49.5685 48.2188 49.532C48.0817 49.4439 47.8978 49.4669 47.791 49.5902C47.6843 49.7135 47.6818 49.8936 47.7889 50.0168C47.8464 50.0909 47.8797 50.2149 47.7114 50.3834C47.334 50.7358 43.5281 51.8056 37.1913 52.127C36.3233 52.1721 35.4128 52.195 34.4854 52.1952C28.8117 52.1952 24.6594 51.418 24.1143 50.9652C24.3244 50.6633 25.7931 50.1811 27.3551 49.9082C27.5311 49.8775 27.65 49.7117 27.6228 49.5351C27.5955 49.3586 27.4328 49.2371 27.2549 49.2602C27.2108 49.2662 27.0613 49.2751 26.8881 49.2857C24.3109 49.4431 21.3327 49.7938 21.1773 51.1217C21.1302 51.5263 21.2504 51.8936 21.5348 52.2133C22.2309 52.9954 24.2314 54.0351 33.5316 54.0351C33.5318 54.0353 33.5318 54.0353 33.5319 54.0353Z" fill="#73A1FB"/>
<path d="M50.298 51.6703C50.1689 51.6106 50.0164 51.6407 49.9202 51.7447C49.9068 51.7591 48.5342 53.1943 44.4073 54.0372C42.8274 54.3537 39.8618 54.5143 35.5928 54.5143C31.3158 54.5143 27.246 54.346 27.2055 54.3443C27.0355 54.336 26.8901 54.4596 26.867 54.6269C26.8438 54.7941 26.9516 54.9518 27.1157 54.9908C27.1581 55.0008 31.4232 56.0001 37.2547 56.0001C40.0517 56.0001 42.7734 55.773 45.3445 55.3247C50.1383 54.4843 50.4739 52.1072 50.4859 52.0065C50.5026 51.8656 50.4268 51.73 50.298 51.6703Z" fill="#73A1FB"/>
</g>
<defs>
<clipPath id="clip0_7505_6892">
<rect width="40" height="40" fill="white" transform="translate(16 16)"/>
</clipPath>
</defs>
</svg>
