<svg width="73" height="72" viewBox="0 0 73 72" fill="none" xmlns="http://www.w3.org/2000/svg">
<rect x="0.427734" width="72" height="72" rx="36" fill="#CD6799"/>
<g clip-path="url(#clip0_5568_48685)">
<path d="M35.2927 43.6825C35.2552 43.75 35.274 43.72 35.2927 43.6825V43.6825ZM50.8627 38.245C49.6052 38.245 48.3652 38.5325 47.2377 39.0887C46.869 38.345 46.4877 37.695 46.4252 37.2075C46.3502 36.6387 46.269 36.3012 46.3565 35.6262C46.444 34.9512 46.8377 33.995 46.8315 33.9262C46.8252 33.8575 46.744 33.5137 45.9377 33.5075C45.1315 33.5012 44.4377 33.6637 44.3565 33.8762C44.2138 34.2645 44.103 34.6637 44.0252 35.07C43.8815 35.8012 42.414 38.4137 41.5827 39.7762C41.3077 39.245 41.0765 38.7762 41.0265 38.4012C40.9515 37.8325 40.8702 37.495 40.9577 36.82C41.0452 36.145 41.439 35.1887 41.4327 35.12C41.4265 35.0512 41.3452 34.7075 40.5402 34.7012C39.7352 34.695 39.0402 34.8575 38.959 35.07C38.8777 35.2825 38.7902 35.7825 38.6277 36.2637C38.4652 36.745 36.509 41.095 35.9977 42.2262C35.7352 42.8012 35.5102 43.2637 35.3477 43.5762C35.3227 43.6262 35.304 43.6575 35.2915 43.6825C35.3102 43.6512 35.3227 43.62 35.3227 43.6325C35.1852 43.9012 35.104 44.0512 35.104 44.0512V44.0575C34.9977 44.2575 34.879 44.4387 34.8227 44.4387C34.7852 44.4387 34.704 43.9137 34.8415 43.195C35.1352 41.6825 35.829 39.3325 35.8227 39.2512C35.8165 39.2075 35.954 38.8012 35.3665 38.5825C34.7977 38.3762 34.5915 38.72 34.5415 38.72C34.4915 38.72 34.454 38.845 34.454 38.845C34.454 38.845 35.0852 36.195 33.2415 36.195C32.0915 36.195 30.4915 37.4575 29.7052 38.6012C29.2115 38.87 28.1427 39.4512 27.0177 40.07L25.724 40.7825C25.6927 40.7512 25.6677 40.72 25.6365 40.6887C23.399 38.3012 19.269 36.6137 19.444 33.4075C19.5065 32.2387 19.9127 29.17 27.3865 25.445C33.5115 22.395 38.4077 23.2325 39.2515 25.095C40.464 27.7512 36.6327 32.695 30.2727 33.4075C27.8477 33.6762 26.574 32.7387 26.2552 32.3887C25.924 32.02 25.874 32.0012 25.749 32.07C25.5427 32.1825 25.674 32.5075 25.749 32.7012C25.9365 33.195 26.7177 34.07 28.049 34.5075C29.2177 34.8887 32.0602 35.1012 35.4965 33.77C39.3577 32.2825 42.364 28.1387 41.4815 24.67C40.584 21.145 34.739 19.9887 29.2127 21.9512C25.919 23.12 22.3577 24.9575 19.7965 27.3512C16.7527 30.2012 16.2665 32.6825 16.4665 33.72C17.179 37.4012 22.2527 39.8012 24.2827 41.5762L24.0015 41.7325C22.9827 42.2387 19.1152 44.2637 18.1465 46.4012C17.0527 48.8262 18.3277 50.5637 19.164 50.8012C21.7765 51.5262 24.4502 50.22 25.8877 48.0762C27.3252 45.9325 27.1502 43.1325 26.4877 41.8575C26.4815 41.8387 26.469 41.8262 26.4627 41.8075C27.2127 41.3633 27.969 40.9299 28.7315 40.5075C28.4815 41.1825 28.3002 41.995 28.2065 43.17C28.094 44.545 28.6627 46.3262 29.4002 47.0262C29.7252 47.3325 30.1177 47.3387 30.3627 47.3387C31.2252 47.3387 31.6127 46.6262 32.044 45.7762C32.5752 44.7387 33.044 43.5325 33.044 43.5325C33.044 43.5325 32.4565 46.795 34.0627 46.795C34.6502 46.795 35.2377 46.0387 35.5002 45.6512V45.6575C35.5002 45.6575 35.5127 45.6325 35.544 45.5825C35.6065 45.4887 35.6377 45.4325 35.6377 45.4325V45.4137C35.8752 45.0075 36.394 44.0762 37.1752 42.5387C38.1877 40.5512 39.1552 38.07 39.1552 38.07C39.249 38.615 39.379 39.1537 39.5427 39.6825C39.7177 40.2762 40.0865 40.9262 40.3802 41.5575C40.1427 41.8825 39.999 42.07 39.999 42.07C39.999 42.075 40.0015 42.0787 40.0052 42.0825C39.8177 42.3325 39.6052 42.6012 39.3865 42.8637C38.5877 43.8137 37.6365 44.9012 37.5115 45.2137C37.3615 45.5825 37.399 45.8575 37.6865 46.07C37.899 46.2325 38.274 46.2575 38.6677 46.2262C39.3865 46.1762 39.8927 46.0012 40.1365 45.8887C40.5861 45.7276 41.011 45.5047 41.399 45.2262C42.1802 44.6512 42.6552 43.8262 42.6115 42.7387C42.5865 42.1387 42.3927 41.5387 42.1552 40.9762C42.224 40.8762 42.299 40.77 42.3677 40.6637C43.1811 39.4502 43.9139 38.1845 44.5615 36.875C44.6552 37.42 44.784 37.9587 44.949 38.4875C45.099 38.9937 45.3927 39.55 45.6615 40.0937C44.499 41.0375 43.7802 42.1312 43.5315 42.85C43.069 44.1812 43.4315 44.7812 44.1127 44.9187C44.419 44.9812 44.8565 44.8375 45.1815 44.7C45.664 44.5387 46.119 44.305 46.5302 44.0062C47.3115 43.4312 48.0677 42.625 48.0165 41.5312C47.9977 41.0375 47.8602 40.5437 47.679 40.0687C48.6602 39.6562 49.9352 39.4312 51.5602 39.6187C55.0402 40.025 55.7215 42.2 55.5902 43.1062C55.459 44.0125 54.7277 44.5187 54.484 44.6687C54.2402 44.8187 54.1652 44.875 54.184 44.9875C54.2152 45.15 54.3277 45.1437 54.534 45.1062C54.8215 45.0562 56.359 44.3687 56.4277 42.6875C56.5277 40.5625 54.484 38.225 50.8652 38.2437L50.8627 38.245ZM24.039 47.2887C22.889 48.545 21.2777 49.02 20.584 48.62C19.8402 48.1875 20.134 46.3387 21.5515 45C22.414 44.1875 23.5265 43.4375 24.264 42.975C24.4327 42.875 24.6765 42.725 24.9765 42.5437C25.0009 42.5281 25.0259 42.5135 25.0515 42.5C25.1077 42.4625 25.1702 42.4312 25.2327 42.3937C25.7502 44.2937 25.2515 45.9687 24.039 47.2875V47.2887ZM32.4365 41.5762C32.0365 42.5575 31.194 45.0575 30.6802 44.9262C30.2427 44.8137 29.974 42.9075 30.5927 41.0325C30.9052 40.0887 31.5677 38.9637 31.9615 38.5262C32.5927 37.82 33.2865 37.595 33.449 37.8762C33.6677 38.245 32.6865 40.9637 32.4365 41.5762ZM39.374 44.8887C39.2052 44.9762 39.049 45.0325 38.974 44.9887C38.9177 44.9575 39.0427 44.8387 39.0427 44.8387C39.0427 44.8387 39.9115 43.9075 40.2552 43.4825C40.4552 43.2325 40.6865 42.9387 40.9365 42.6137C40.9365 42.645 40.9427 42.6762 40.9427 42.7137C40.9352 43.8325 39.8602 44.5887 39.3727 44.8887H39.374ZM44.724 43.67C44.599 43.5825 44.6177 43.2887 45.0365 42.3762C45.199 42.02 45.574 41.42 46.224 40.845C46.2977 41.0625 46.3377 41.29 46.3427 41.52C46.3365 42.9262 45.3302 43.4512 44.724 43.67Z" fill="white"/>
</g>
<defs>
<clipPath id="clip0_5568_48685">
<rect width="40" height="40" fill="white" transform="translate(16.4277 16)"/>
</clipPath>
</defs>
</svg>
