<svg width="72" height="72" viewBox="0 0 72 72" fill="none" xmlns="http://www.w3.org/2000/svg">
<g clip-path="url(#clip0_13339_2201)">
<path d="M66.4998 18.4274V53.5905L36.0447 71.1735L5.60132 53.5905V18.4274L36.0447 0.844421L66.4998 18.4274Z" fill="white" stroke="white"/>
<path d="M65.3352 52.9133L36.0444 69.8293L6.76587 52.9133V19.1059L36.0444 2.18994L65.3352 19.1059V52.9133Z" fill="url(#paint0_linear_13339_2201)"/>
<path d="M54.3325 42V37.976H55.7005V38.408C55.7859 38.3387 55.8872 38.2667 56.0045 38.192C56.1272 38.112 56.2552 38.0427 56.3885 37.984C56.5219 37.9253 56.6472 37.888 56.7645 37.872V39.176C56.6525 39.1867 56.5299 39.2133 56.3965 39.256C56.2632 39.2987 56.1352 39.3467 56.0125 39.4C55.8952 39.4533 55.7912 39.5013 55.7005 39.544V42H54.3325Z" fill="white"/>
<path d="M51.8113 42.096C51.3419 42.096 50.9686 42.024 50.6913 41.88C50.414 41.7307 50.2139 41.504 50.0913 41.2C49.9739 40.896 49.9153 40.512 49.9153 40.048C49.9153 39.5627 49.9846 39.16 50.1233 38.84C50.2673 38.52 50.4833 38.28 50.7713 38.12C51.0593 37.96 51.4246 37.88 51.8673 37.88C52.5019 37.88 52.9793 38.0293 53.2993 38.328C53.6246 38.6267 53.7873 39.0987 53.7873 39.744L53.7233 40.416H51.2993C51.3046 40.6293 51.3526 40.7893 51.4433 40.896C51.5339 40.9973 51.6913 41.048 51.9153 41.048C52.0859 41.048 52.2753 41.0453 52.4833 41.04C52.6966 41.0293 52.9073 41.0187 53.1153 41.008C53.3286 40.9973 53.5073 40.9867 53.6513 40.976L53.6833 41.896C53.5446 41.9227 53.3686 41.952 53.1553 41.984C52.942 42.016 52.718 42.0427 52.4833 42.064C52.2486 42.0853 52.0246 42.096 51.8113 42.096ZM51.2913 39.608H52.4113C52.4113 39.336 52.3686 39.1467 52.2833 39.04C52.1979 38.928 52.0593 38.872 51.8673 38.872C51.7339 38.872 51.6246 38.896 51.5393 38.944C51.454 38.992 51.3926 39.072 51.3553 39.184C51.3179 39.2907 51.2966 39.432 51.2913 39.608Z" fill="white"/>
<path d="M45.5356 42V37.976H46.9036V38.208C46.9836 38.16 47.0796 38.112 47.1916 38.064C47.3036 38.0107 47.421 37.968 47.5436 37.936C47.6716 37.8987 47.7916 37.88 47.9036 37.88C48.1863 37.88 48.421 37.9173 48.6076 37.992C48.7996 38.0613 48.9516 38.1787 49.0636 38.344C49.181 38.504 49.2636 38.7173 49.3116 38.984C49.365 39.2453 49.3916 39.5653 49.3916 39.944V42H48.0076V40.024C48.0076 39.7947 47.9943 39.6107 47.9676 39.472C47.941 39.3333 47.893 39.232 47.8236 39.168C47.7543 39.104 47.6556 39.072 47.5276 39.072C47.453 39.072 47.3756 39.08 47.2956 39.096C47.221 39.1067 47.149 39.1227 47.0796 39.144C47.0103 39.1653 46.9516 39.1867 46.9036 39.208V42H45.5356Z" fill="white"/>
<path d="M42.9776 42.096C42.5189 42.096 42.1429 42.024 41.8496 41.88C41.5563 41.736 41.3376 41.5067 41.1936 41.192C41.0549 40.8773 40.9856 40.4693 40.9856 39.968C40.9856 39.472 41.0576 39.072 41.2016 38.768C41.3456 38.464 41.5643 38.24 41.8576 38.096C42.1563 37.952 42.5296 37.88 42.9776 37.88C43.4256 37.88 43.7963 37.952 44.0896 38.096C44.3829 38.24 44.6016 38.464 44.7456 38.768C44.8896 39.072 44.9616 39.472 44.9616 39.968C44.9616 40.4693 44.8923 40.8773 44.7536 41.192C44.6149 41.5067 44.3989 41.736 44.1056 41.88C43.8123 42.024 43.4363 42.096 42.9776 42.096ZM42.9776 40.968C43.1429 40.968 43.2656 40.936 43.3456 40.872C43.4309 40.808 43.4896 40.7013 43.5216 40.552C43.5536 40.4027 43.5696 40.208 43.5696 39.968C43.5696 39.7227 43.5509 39.5307 43.5136 39.392C43.4763 39.2533 43.4149 39.1547 43.3296 39.096C43.2496 39.032 43.1323 39 42.9776 39C42.8229 39 42.7029 39.032 42.6176 39.096C42.5323 39.1547 42.4709 39.256 42.4336 39.4C42.3963 39.5387 42.3776 39.728 42.3776 39.968C42.3776 40.208 42.3936 40.4027 42.4256 40.552C42.4576 40.7013 42.5163 40.808 42.6016 40.872C42.6869 40.936 42.8123 40.968 42.9776 40.968Z" fill="white"/>
<path d="M39.0512 42V37.976H40.4192V42H39.0512ZM39.0432 37.496V36.448H40.4272V37.496H39.0432Z" fill="white"/>
<path d="M37.6011 42.096C37.2971 42.096 37.0491 42.056 36.8571 41.976C36.6651 41.8907 36.5264 41.744 36.4411 41.536C36.3558 41.3227 36.3131 41.0267 36.3131 40.648V39.096H35.9131V37.976H36.3131V37.024H37.6891V37.976H38.5531V39.096H37.6891V40.312C37.6891 40.4667 37.6971 40.5893 37.7131 40.68C37.7291 40.7653 37.7638 40.8267 37.8171 40.864C37.8704 40.896 37.9504 40.912 38.0571 40.912C38.0838 40.912 38.1291 40.912 38.1931 40.912C38.2571 40.9067 38.3238 40.904 38.3931 40.904C38.4624 40.8987 38.5131 40.8933 38.5451 40.888L38.5691 41.976C38.4838 41.992 38.3798 42.008 38.2571 42.024C38.1398 42.0453 38.0224 42.0613 37.9051 42.072C37.7878 42.088 37.6864 42.096 37.6011 42.096Z" fill="white"/>
<path d="M34.0668 42V37.976H35.4348V42H34.0668ZM34.0588 37.496V36.448H35.4428V37.496H34.0588Z" fill="white"/>
<path d="M32.6167 42.096C32.3127 42.096 32.0647 42.056 31.8727 41.976C31.6807 41.8907 31.542 41.744 31.4567 41.536C31.3714 41.3227 31.3287 41.0267 31.3287 40.648V39.096H30.9287V37.976H31.3287V37.024H32.7047V37.976H33.5687V39.096H32.7047V40.312C32.7047 40.4667 32.7127 40.5893 32.7287 40.68C32.7447 40.7653 32.7794 40.8267 32.8327 40.864C32.886 40.896 32.966 40.912 33.0727 40.912C33.0994 40.912 33.1447 40.912 33.2087 40.912C33.2727 40.9067 33.3394 40.904 33.4087 40.904C33.478 40.8987 33.5287 40.8933 33.5607 40.888L33.5847 41.976C33.4994 41.992 33.3954 42.008 33.2727 42.024C33.1554 42.0453 33.038 42.0613 32.9207 42.072C32.8034 42.088 32.702 42.096 32.6167 42.096Z" fill="white"/>
<path d="M29.2643 42.096C28.7789 42.096 28.3976 42.0267 28.1203 41.888C27.8483 41.744 27.6563 41.5147 27.5443 41.2C27.4376 40.8853 27.3843 40.472 27.3843 39.96C27.3843 39.4373 27.4483 39.0267 27.5763 38.728C27.7043 38.424 27.9043 38.208 28.1763 38.08C28.4536 37.9467 28.8163 37.88 29.2643 37.88C29.3923 37.88 29.5363 37.8907 29.6963 37.912C29.8616 37.928 30.0243 37.9493 30.1843 37.976C30.3443 38.0027 30.4803 38.0293 30.5923 38.056L30.5443 39.152C30.4376 39.1413 30.3149 39.1307 30.1763 39.12C30.0429 39.1093 29.9123 39.1013 29.7843 39.096C29.6563 39.0853 29.5549 39.08 29.4803 39.08C29.3043 39.08 29.1629 39.1093 29.0563 39.168C28.9549 39.2267 28.8829 39.32 28.8403 39.448C28.7976 39.576 28.7763 39.7467 28.7763 39.96C28.7763 40.1893 28.7949 40.3733 28.8323 40.512C28.8749 40.6453 28.9469 40.7413 29.0483 40.8C29.1496 40.8587 29.2936 40.888 29.4803 40.888C29.5549 40.888 29.6563 40.8853 29.7843 40.88C29.9123 40.8693 30.0456 40.8587 30.1843 40.848C30.3283 40.8373 30.4536 40.8293 30.5603 40.824L30.6003 41.912C30.4936 41.9387 30.3629 41.9653 30.2083 41.992C30.0536 42.0187 29.8909 42.0427 29.7203 42.064C29.5549 42.0853 29.4029 42.096 29.2643 42.096Z" fill="white"/>
<path d="M24.3833 42.096C23.9299 42.096 23.5912 41.9893 23.3672 41.776C23.1432 41.5627 23.0312 41.232 23.0312 40.784C23.0312 40.464 23.0899 40.2187 23.2072 40.048C23.3299 39.8773 23.5059 39.7573 23.7352 39.688C23.9646 39.6187 24.2392 39.576 24.5592 39.56L25.3672 39.504V39.328C25.3672 39.1947 25.3246 39.1013 25.2393 39.048C25.1593 38.9947 25.0446 38.968 24.8952 38.968C24.7352 38.968 24.5539 38.9733 24.3512 38.984C24.1486 38.9947 23.9512 39.008 23.7592 39.024C23.5672 39.04 23.3992 39.056 23.2552 39.072L23.2153 38.12C23.3646 38.0827 23.5406 38.0453 23.7432 38.008C23.9512 37.9707 24.1672 37.9413 24.3912 37.92C24.6152 37.8933 24.8259 37.88 25.0232 37.88C25.3806 37.88 25.6872 37.92 25.9432 38C26.2046 38.08 26.4019 38.2187 26.5352 38.416C26.6739 38.6133 26.7432 38.8907 26.7432 39.248V40.944C26.7593 40.992 26.7939 41.032 26.8472 41.064C26.9059 41.096 26.9672 41.1173 27.0312 41.128L27.0072 42.032C26.9219 42.0373 26.8312 42.0453 26.7352 42.056C26.6392 42.0667 26.5486 42.072 26.4633 42.072C26.3833 42.072 26.3166 42.0693 26.2632 42.064C26.1032 42.0587 25.9699 42.0293 25.8632 41.976C25.7566 41.9173 25.6792 41.8613 25.6312 41.808C25.5512 41.8453 25.4446 41.888 25.3112 41.936C25.1779 41.9787 25.0313 42.016 24.8713 42.048C24.7113 42.08 24.5486 42.096 24.3833 42.096ZM24.7352 41.12C24.8152 41.12 24.8926 41.112 24.9672 41.096C25.0472 41.0747 25.1219 41.0507 25.1912 41.024C25.2659 40.9973 25.3246 40.9733 25.3672 40.952V40.296L24.7832 40.352C24.6552 40.3627 24.5592 40.4027 24.4952 40.472C24.4366 40.536 24.4072 40.6267 24.4072 40.744C24.4072 40.8613 24.4339 40.9547 24.4873 41.024C24.5406 41.088 24.6232 41.12 24.7352 41.12Z" fill="white"/>
<path d="M20.3247 42V37.976H21.6927V38.408C21.778 38.3387 21.8794 38.2667 21.9967 38.192C22.1194 38.112 22.2474 38.0427 22.3807 37.984C22.514 37.9253 22.6394 37.888 22.7567 37.872V39.176C22.6447 39.1867 22.522 39.2133 22.3887 39.256C22.2554 39.2987 22.1274 39.3467 22.0047 39.4C21.8874 39.4533 21.7834 39.5013 21.6927 39.544V42H20.3247Z" fill="white"/>
<path d="M15.521 42V36.584H17.601C18.0863 36.584 18.4917 36.6453 18.817 36.768C19.1423 36.8853 19.3877 37.088 19.553 37.376C19.7183 37.6587 19.801 38.0533 19.801 38.56C19.801 39.0667 19.7183 39.4693 19.553 39.768C19.3877 40.0667 19.1423 40.2827 18.817 40.416C18.4917 40.544 18.0863 40.608 17.601 40.608H16.945V42H15.521ZM16.945 39.464H17.545C17.833 39.464 18.0383 39.392 18.161 39.248C18.289 39.104 18.353 38.8773 18.353 38.568C18.353 38.2533 18.2917 38.0347 18.169 37.912C18.0463 37.784 17.8383 37.72 17.545 37.72H16.945V39.464Z" fill="white"/>
<path d="M43.1859 35.096C42.9672 35.096 42.7726 35.0694 42.6019 35.016C42.4366 34.9627 42.2926 34.8827 42.1699 34.776C42.0526 34.664 41.9539 34.5254 41.8739 34.36C41.7992 34.1947 41.7432 34 41.7059 33.776C41.6686 33.5467 41.6499 33.288 41.6499 33C41.6499 32.552 41.7059 32.1707 41.8179 31.856C41.9299 31.5414 42.1139 31.3014 42.3699 31.136C42.6259 30.9654 42.9646 30.88 43.3859 30.88C43.4552 30.88 43.5352 30.8854 43.6259 30.896C43.7219 30.9014 43.8152 30.9094 43.9059 30.92C44.0019 30.9254 44.0819 30.9334 44.1459 30.944V29.4H45.5219V35H44.1619L44.1539 34.792C44.0846 34.8347 43.9939 34.88 43.8819 34.928C43.7752 34.976 43.6606 35.016 43.5379 35.048C43.4206 35.08 43.3032 35.096 43.1859 35.096ZM43.5859 33.96C43.6552 33.96 43.7246 33.9547 43.7939 33.944C43.8632 33.928 43.9299 33.912 43.9939 33.896C44.0579 33.8747 44.1086 33.8587 44.1459 33.848V32.056C44.1086 32.0454 44.0606 32.0374 44.0019 32.032C43.9432 32.0267 43.8819 32.0214 43.8179 32.016C43.7539 32.0107 43.6979 32.008 43.6499 32.008C43.4846 32.008 43.3592 32.0507 43.2739 32.136C43.1886 32.216 43.1272 32.3307 43.0899 32.48C43.0579 32.624 43.0419 32.7974 43.0419 33C43.0419 33.1707 43.0526 33.3174 43.0739 33.44C43.0952 33.5627 43.1272 33.664 43.1699 33.744C43.2179 33.8187 43.2766 33.8747 43.3459 33.912C43.4152 33.944 43.4952 33.96 43.5859 33.96Z" fill="white"/>
<path d="M38.6134 35.096C38.2668 35.096 37.9921 35.0213 37.7894 34.872C37.5921 34.7173 37.4534 34.4907 37.3734 34.192C37.2934 33.888 37.2534 33.512 37.2534 33.064V30.976H38.6214V32.984C38.6214 33.2187 38.6348 33.4027 38.6614 33.536C38.6881 33.6693 38.7361 33.7653 38.8054 33.824C38.8748 33.8773 38.9734 33.904 39.1014 33.904C39.2188 33.904 39.3308 33.8907 39.4374 33.864C39.5494 33.832 39.6401 33.8 39.7094 33.768V30.976H41.0774V35H39.7174V34.776C39.5308 34.8773 39.3548 34.9547 39.1894 35.008C39.0241 35.0667 38.8321 35.096 38.6134 35.096Z" fill="white"/>
<path d="M34.7354 35.096C34.2767 35.096 33.9007 35.024 33.6074 34.88C33.3141 34.736 33.0954 34.5067 32.9514 34.192C32.8127 33.8773 32.7434 33.4693 32.7434 32.968C32.7434 32.472 32.8154 32.072 32.9594 31.768C33.1034 31.464 33.3221 31.24 33.6154 31.096C33.9141 30.952 34.2874 30.88 34.7354 30.88C35.1834 30.88 35.5541 30.952 35.8474 31.096C36.1407 31.24 36.3594 31.464 36.5034 31.768C36.6474 32.072 36.7194 32.472 36.7194 32.968C36.7194 33.4693 36.6501 33.8773 36.5114 34.192C36.3727 34.5067 36.1567 34.736 35.8634 34.88C35.5701 35.024 35.1941 35.096 34.7354 35.096ZM34.7354 33.968C34.9007 33.968 35.0234 33.936 35.1034 33.872C35.1887 33.808 35.2474 33.7013 35.2794 33.552C35.3114 33.4027 35.3274 33.208 35.3274 32.968C35.3274 32.7227 35.3087 32.5307 35.2714 32.392C35.2341 32.2533 35.1727 32.1547 35.0874 32.096C35.0074 32.032 34.8901 32 34.7354 32C34.5807 32 34.4607 32.032 34.3754 32.096C34.2901 32.1547 34.2287 32.256 34.1914 32.4C34.1541 32.5387 34.1354 32.728 34.1354 32.968C34.1354 33.208 34.1514 33.4027 34.1834 33.552C34.2154 33.7013 34.2741 33.808 34.3594 33.872C34.4447 33.936 34.5701 33.968 34.7354 33.968Z" fill="white"/>
<path d="M30.7937 35V29.4H32.1697V35H30.7937Z" fill="white"/>
<path d="M28.585 35.096C28.153 35.096 27.7957 35.0453 27.513 34.944C27.2303 34.8426 27.0063 34.6826 26.841 34.464C26.6757 34.24 26.5583 33.9493 26.489 33.592C26.4197 33.2346 26.385 32.8 26.385 32.288C26.385 31.776 26.4197 31.344 26.489 30.992C26.5583 30.6346 26.6757 30.3466 26.841 30.128C27.0063 29.904 27.233 29.7413 27.521 29.64C27.8143 29.5333 28.185 29.48 28.633 29.48C28.7983 29.48 28.977 29.4906 29.169 29.512C29.3663 29.5333 29.5583 29.56 29.745 29.592C29.9317 29.624 30.0943 29.656 30.233 29.688L30.193 30.8C30.097 30.784 29.9717 30.768 29.817 30.752C29.6677 30.736 29.513 30.7226 29.353 30.712C29.193 30.7013 29.041 30.696 28.897 30.696C28.6783 30.696 28.497 30.7226 28.353 30.776C28.2143 30.824 28.105 30.9093 28.025 31.032C27.9503 31.1493 27.8997 31.3093 27.873 31.512C27.8463 31.7146 27.833 31.9733 27.833 32.288C27.833 32.5973 27.8463 32.856 27.873 33.064C27.8997 33.2666 27.9503 33.4293 28.025 33.552C28.105 33.6693 28.2143 33.7546 28.353 33.808C28.497 33.856 28.681 33.88 28.905 33.88C29.1183 33.88 29.3477 33.872 29.593 33.856C29.8437 33.8346 30.049 33.816 30.209 33.8L30.233 34.904C30.1103 34.9306 29.9583 34.96 29.777 34.992C29.5957 35.024 29.401 35.048 29.193 35.064C28.985 35.0853 28.7823 35.096 28.585 35.096Z" fill="white"/>
<path d="M28.3332 21.7376C28.1006 21.8477 27.8681 21.8967 27.6233 21.8967C27.1826 21.8967 26.8521 21.7743 26.6196 21.5173C26.387 21.2602 26.2769 20.893 26.2769 20.4034C26.2769 19.9138 26.387 19.5466 26.6196 19.2895C26.8521 19.0325 27.1826 18.9101 27.6233 18.9101C28.0639 18.9101 28.0762 18.9591 28.2842 19.0447V19.314C28.0762 19.2406 27.8558 19.2161 27.6355 19.2161C27.2806 19.2161 27.0113 19.3018 26.8521 19.4854C26.693 19.669 26.6073 19.9628 26.6073 20.3667V20.4401C26.6073 20.8318 26.693 21.1256 26.8521 21.3092C27.0113 21.4928 27.2683 21.5907 27.6233 21.5907C27.9782 21.5907 28.0639 21.554 28.321 21.4683V21.7376H28.3332Z" fill="white"/>
<path d="M29.0678 20.4646C29.0678 20.8563 29.1535 21.1501 29.3248 21.3459C29.4962 21.5295 29.7532 21.6274 30.1082 21.6274C30.4632 21.6274 30.7447 21.5662 31.0507 21.4316V21.7009C30.7814 21.8477 30.4632 21.9334 30.096 21.9334C29.7288 21.9334 29.3126 21.811 29.08 21.554C28.8475 21.2969 28.7373 20.9175 28.7373 20.4156C28.7373 19.9138 28.8475 19.5711 29.08 19.3018C29.3126 19.0447 29.6308 18.9101 30.047 18.9101C30.4632 18.9101 30.659 19.008 30.8426 19.2039C31.0262 19.3997 31.1119 19.6812 31.1119 20.0484C31.1119 20.4156 31.1119 20.3667 31.0752 20.4768H29.0678V20.4646ZM30.0103 19.1916C29.4105 19.1916 29.0923 19.5343 29.0678 20.2076H30.7937C30.7937 20.1586 30.7937 20.0974 30.7937 20.024C30.7937 19.7547 30.7325 19.5466 30.5978 19.3997C30.4632 19.2651 30.2673 19.1916 30.0103 19.1916Z" fill="white"/>
<path d="M31.8218 21.8354V18.9835H32.1033L32.14 19.3996C32.2869 19.2405 32.4215 19.1303 32.5684 19.0569C32.7031 18.9957 32.8622 18.959 33.0336 18.959C33.2049 18.959 33.1804 18.959 33.2661 18.9712V19.265C33.1682 19.265 33.0825 19.265 32.9968 19.265C32.8255 19.265 32.6664 19.3017 32.5317 19.3629C32.3971 19.4241 32.2624 19.5343 32.14 19.6812V21.8599H31.8218V21.8354Z" fill="white"/>
<path d="M35.3467 21.7743C35.1876 21.8355 34.9917 21.8722 34.7714 21.8722C34.5511 21.8722 34.3797 21.811 34.2573 21.6886C34.1349 21.5662 34.0859 21.3948 34.0859 21.1745V19.265H33.5474V19.0325L34.0982 18.9835L34.1471 18.1512H34.4164V18.9835H35.3222V19.265H34.4164V21.15C34.4164 21.3092 34.4531 21.4193 34.5143 21.4805C34.5755 21.5417 34.6857 21.5784 34.8448 21.5784C35.0039 21.5784 35.1631 21.554 35.3467 21.505V21.762V21.7743Z" fill="white"/>
<path d="M36.1301 18.3715C36.0566 18.3715 35.9954 18.347 35.9465 18.2981C35.8975 18.2491 35.8853 18.1879 35.8853 18.1145C35.8853 18.041 35.9097 17.9798 35.9465 17.9309C35.9954 17.8819 36.0444 17.8574 36.1301 17.8574C36.2157 17.8574 36.2647 17.8819 36.3137 17.9309C36.3626 17.9798 36.3749 18.041 36.3749 18.1145C36.3749 18.1879 36.3504 18.2491 36.3137 18.2981C36.2647 18.347 36.2157 18.3715 36.1301 18.3715ZM35.9709 18.9835H36.2892V21.8355H35.9709V18.9835Z" fill="white"/>
<path d="M37.44 21.8355V19.265H36.8892V19.0325L37.44 18.9835V18.3348C37.44 18.0777 37.5012 17.8941 37.6358 17.7595C37.7705 17.6249 37.9541 17.5637 38.1989 17.5637C38.4437 17.5637 38.3825 17.5637 38.4804 17.5881C38.5783 17.6004 38.664 17.6249 38.7252 17.6493V17.9186C38.5416 17.8819 38.3702 17.8574 38.2356 17.8574C38.1009 17.8574 37.9418 17.8941 37.8684 17.9676C37.7949 18.041 37.7582 18.1512 37.7582 18.3103V18.9958H39.6065V21.8477H39.2882V19.2773H37.7582V21.8477H37.44V21.8355ZM39.4474 18.3715C39.3739 18.3715 39.3127 18.347 39.2638 18.2981C39.2148 18.2491 39.2026 18.1879 39.2026 18.1145C39.2026 18.041 39.227 17.9798 39.2638 17.9309C39.3127 17.8819 39.3617 17.8574 39.4474 17.8574C39.533 17.8574 39.582 17.8819 39.631 17.9309C39.6799 17.9798 39.6922 18.041 39.6922 18.1145C39.6922 18.1879 39.6677 18.2491 39.631 18.2981C39.582 18.347 39.533 18.3715 39.4474 18.3715Z" fill="white"/>
<path d="M40.6957 20.4646C40.6957 20.8563 40.7814 21.1501 40.9528 21.3459C41.1241 21.5295 41.3812 21.6274 41.7361 21.6274C42.0911 21.6274 42.3726 21.5662 42.6786 21.4316V21.7009C42.4093 21.8477 42.0911 21.9334 41.7239 21.9334C41.3567 21.9334 40.9405 21.811 40.708 21.554C40.4754 21.2969 40.3652 20.9175 40.3652 20.4156C40.3652 19.9138 40.4754 19.5711 40.708 19.3018C40.9405 19.0447 41.2588 18.9101 41.6749 18.9101C42.0911 18.9101 42.2869 19.008 42.4705 19.2039C42.6541 19.3997 42.7398 19.6812 42.7398 20.0484C42.7398 20.4156 42.7398 20.3667 42.7031 20.4768H40.6957V20.4646ZM41.6505 19.1916C41.0507 19.1916 40.7324 19.5343 40.708 20.2076H42.4338C42.4338 20.1586 42.4338 20.0974 42.4338 20.024C42.4338 19.7547 42.3726 19.5466 42.238 19.3997C42.1033 19.2651 41.9075 19.1916 41.6505 19.1916Z" fill="white"/>
<path d="M45.5185 21.8355L45.4818 21.5172C45.3471 21.6396 45.188 21.7253 45.0166 21.7988C44.8453 21.8722 44.6739 21.8967 44.5148 21.8967C44.1353 21.8967 43.8416 21.762 43.6213 21.505C43.4009 21.2479 43.2908 20.8807 43.2908 20.4278C43.2908 19.975 43.4009 19.5833 43.6213 19.314C43.8416 19.0447 44.1353 18.8978 44.5148 18.8978C44.8942 18.8978 45.188 19.0202 45.4695 19.2773V17.6371H45.7878V21.8355H45.494H45.5185ZM44.6005 21.6029C44.882 21.6029 45.1758 21.4805 45.494 21.2357V19.5588C45.3349 19.4242 45.188 19.3385 45.0411 19.2773C44.8942 19.2161 44.7351 19.1916 44.576 19.1916C44.27 19.1916 44.0374 19.2895 43.8905 19.4976C43.7314 19.7057 43.658 19.9994 43.658 20.4034C43.658 21.199 43.9762 21.6029 44.6127 21.6029" fill="white"/>
<path d="M43.3643 11.2477L40.9285 12.6675V15.4828L43.3643 16.8904L45.8123 15.4828V12.6675L43.3643 11.2477Z" fill="#F7981D"/>
<path d="M42.691 15.4828L41.8464 14.6382L42.2748 14.2098L42.691 14.626L44.3802 12.9368L44.8086 13.3652L42.691 15.4828Z" fill="white"/>
<path d="M36.7056 16.1193C36.8402 16.1927 37.0239 16.2539 37.2687 16.3151C37.5135 16.3763 37.7583 16.4008 38.0153 16.4008C38.2724 16.4008 38.4927 16.3641 38.713 16.3029C38.9211 16.2417 39.1047 16.156 39.2516 16.0336C39.3985 15.9112 39.5209 15.7766 39.6065 15.6052C39.6922 15.4339 39.7289 15.2502 39.7289 15.0422C39.7289 14.8341 39.6555 14.5648 39.5086 14.369C39.3617 14.1731 39.1047 14.014 38.7497 13.9038L38.052 13.6835C37.795 13.5978 37.6114 13.5121 37.5135 13.4142C37.4155 13.3163 37.3666 13.2061 37.3666 13.0715C37.3666 12.8756 37.44 12.7288 37.5991 12.6431C37.7583 12.5574 37.9663 12.5084 38.2479 12.5084C38.5294 12.5084 38.9088 12.5696 39.1904 12.692C39.276 12.7288 39.3372 12.7532 39.374 12.7532C39.4474 12.7532 39.4841 12.7043 39.4841 12.6064V12.3738C39.4841 12.3004 39.4719 12.2514 39.4474 12.2147C39.4229 12.178 39.374 12.1412 39.3005 12.0923C39.2516 12.0678 39.1781 12.0311 39.0924 12.0066C39.0068 11.9821 38.9088 11.9576 38.8109 11.9332C38.713 11.9087 38.6028 11.8964 38.4927 11.872C38.3825 11.8597 38.2724 11.8475 38.1622 11.8475C37.9419 11.8475 37.746 11.872 37.5502 11.9332C37.3543 11.9944 37.183 12.0678 37.0361 12.178C36.8892 12.2881 36.779 12.4228 36.6811 12.5819C36.5954 12.741 36.5465 12.9124 36.5465 13.1205C36.5465 13.3285 36.6322 13.6101 36.7913 13.8304C36.9504 14.0507 37.2197 14.2098 37.5747 14.32L38.2846 14.5403C38.5294 14.6138 38.6885 14.6994 38.7742 14.7974C38.8599 14.883 38.9088 15.0054 38.9088 15.1401C38.9088 15.3359 38.8232 15.4951 38.6518 15.593C38.4804 15.7031 38.2479 15.7521 37.9419 15.7521C37.6359 15.7521 37.5502 15.7276 37.3666 15.6909C37.1707 15.6542 36.9994 15.593 36.828 15.5195C36.779 15.4951 36.7301 15.4828 36.7056 15.4706C36.6689 15.4706 36.6444 15.4583 36.6199 15.4583C36.5465 15.4583 36.5098 15.5073 36.5098 15.6052V15.85C36.5098 15.899 36.5098 15.9357 36.5342 15.9847C36.5587 16.0336 36.6077 16.0703 36.6811 16.1193" fill="white"/>
<path d="M28.4433 13.7692C28.2597 13.7447 28.0884 13.7325 27.9292 13.7325C27.4274 13.7325 27.0235 13.8549 26.7297 14.1119C26.4359 14.369 26.2891 14.6994 26.2891 15.1034C26.2891 15.5073 26.4115 15.8011 26.644 16.0336C26.8888 16.2662 27.2071 16.3763 27.6232 16.3763C28.0394 16.3763 28.6759 16.156 29.0553 15.7031C29.1043 15.8133 29.1533 15.9112 29.2022 15.9847C29.2512 16.0703 29.3124 16.1438 29.3736 16.205C29.4226 16.2539 29.4715 16.2784 29.5205 16.2784C29.5694 16.2784 29.6062 16.2662 29.6429 16.2417L29.9489 16.0336C30.0101 15.9847 30.0468 15.9357 30.0468 15.8867C30.0468 15.8378 30.0468 15.8133 30.0101 15.7766C29.9366 15.6542 29.8877 15.5318 29.851 15.4338C29.8142 15.3237 29.7898 15.1768 29.7898 15.0054V13.4265C29.7898 12.9001 29.6551 12.4962 29.3858 12.2392C29.1165 11.9821 28.6881 11.8475 28.1129 11.8475C27.5376 11.8475 27.5865 11.8842 27.354 11.9454C27.1092 12.0066 26.9133 12.08 26.7419 12.1657C26.6685 12.2024 26.6318 12.2392 26.6073 12.2636C26.5828 12.3004 26.5706 12.3493 26.5706 12.435V12.6676C26.5706 12.7655 26.6073 12.8144 26.6685 12.8144C26.7297 12.8144 26.7052 12.8144 26.7419 12.8022C26.7787 12.8022 26.8276 12.7777 26.9133 12.741C27.0847 12.6676 27.256 12.6186 27.4396 12.5696C27.6232 12.5329 27.7946 12.5084 27.966 12.5084C28.3454 12.5084 28.6025 12.5819 28.7616 12.7288C28.9207 12.8757 28.9941 13.1327 28.9941 13.4999V13.8549C28.7983 13.8059 28.6147 13.7692 28.4311 13.7447M29.0064 14.6138C29.0064 14.7729 28.9941 14.9198 28.9574 15.0299C28.9207 15.1401 28.8717 15.2502 28.7861 15.3359C28.6514 15.4828 28.5045 15.5807 28.3209 15.6419C28.1496 15.7031 27.9782 15.7276 27.8191 15.7276C27.66 15.7276 27.4274 15.6664 27.305 15.5563C27.1826 15.4461 27.1214 15.2747 27.1214 15.0422C27.1214 14.8096 27.2071 14.6138 27.3662 14.4791C27.5253 14.3445 27.7701 14.2833 28.0884 14.2833C28.4066 14.2833 28.3944 14.2833 28.5413 14.3078C28.7004 14.3322 28.8473 14.3567 28.9941 14.3934V14.6015L29.0064 14.6138Z" fill="white"/>
<path d="M31.4545 16.0336C31.479 16.1315 31.5157 16.1927 31.5524 16.2294C31.5892 16.2662 31.6504 16.2784 31.736 16.2784H32.1522C32.2379 16.2784 32.3113 16.2662 32.3481 16.2294C32.3848 16.1927 32.4215 16.1315 32.446 16.0336L33.1926 12.9123L33.9515 16.0336C33.976 16.1315 34.0005 16.1927 34.0494 16.2294C34.0862 16.2662 34.1596 16.2784 34.2453 16.2784H34.6615C34.7471 16.2784 34.8083 16.2662 34.8451 16.2294C34.8818 16.1927 34.9185 16.1315 34.943 16.0336L36.118 12.2881C36.1303 12.2391 36.1425 12.2024 36.1548 12.1657C36.1548 12.1412 36.1548 12.1167 36.1548 12.0923C36.1548 12.0188 36.118 11.9698 36.0324 11.9698H35.5795C35.4938 11.9698 35.4203 11.9821 35.3836 12.0188C35.3469 12.0555 35.3102 12.1167 35.2857 12.2147L34.4411 15.4583L33.67 12.2147C33.6455 12.1167 33.621 12.0555 33.5721 12.0188C33.5354 11.9821 33.4619 11.9698 33.3762 11.9698H32.9845C32.8989 11.9698 32.8254 11.9821 32.7887 12.0188C32.752 12.0555 32.7153 12.1167 32.6908 12.2147L31.9319 15.4216L31.1118 12.2147C31.0873 12.1167 31.0506 12.0555 31.0139 12.0188C30.9772 11.9821 30.916 11.9698 30.818 11.9698H30.3407C30.255 11.9698 30.2183 12.0066 30.2183 12.0923C30.2183 12.1779 30.2305 12.1902 30.255 12.2881L31.4056 16.0336H31.4545Z" fill="white"/>
<path d="M14.012 51.8485V49.0087H15.9092V49.6085H14.7954V50.196H15.7011V50.7958H14.7954V51.824H13.9998L14.012 51.8485Z" fill="white"/>
<path d="M18.6633 51.9096C18.3695 51.9096 18.1125 51.8484 17.8922 51.726C17.6718 51.6036 17.5127 51.4322 17.4026 51.1997C17.2924 50.9794 17.2312 50.7101 17.2312 50.4163C17.2312 50.1225 17.2924 49.841 17.4026 49.6207C17.525 49.4004 17.6841 49.229 17.9044 49.1066C18.1247 48.9842 18.3695 48.9352 18.6633 48.9352C18.9571 48.9352 19.2141 48.9964 19.4344 49.1188C19.6548 49.2412 19.8139 49.4126 19.924 49.6329C20.0342 49.8533 20.0954 50.1225 20.0954 50.4285C20.0954 50.7345 20.0342 51.0038 19.924 51.2242C19.8016 51.4445 19.6425 51.6158 19.4222 51.7382C19.2019 51.8484 18.9571 51.9096 18.6633 51.9096ZM18.6633 51.2854C18.8714 51.2854 19.0305 51.2119 19.1284 51.065C19.2386 50.9182 19.2876 50.7101 19.2876 50.4285C19.2876 50.147 19.2386 49.9267 19.1284 49.7798C19.0183 49.6329 18.8714 49.5595 18.6633 49.5595C18.4552 49.5595 18.3083 49.6329 18.1982 49.7798C18.088 49.9267 18.0391 50.1348 18.0391 50.4163C18.0391 50.6978 18.088 50.9182 18.1982 51.065C18.3083 51.2119 18.4552 51.2854 18.6633 51.2854Z" fill="white"/>
<path d="M22.8618 51.9096C22.4701 51.9096 22.1641 51.8117 21.9438 51.6159C21.7234 51.42 21.6133 51.1507 21.6133 50.7958V48.9965H22.4089V50.8202C22.4089 50.9671 22.4456 51.0895 22.5191 51.163C22.5925 51.2364 22.7027 51.2854 22.8495 51.2854C23.1555 51.2854 23.3024 51.1385 23.3024 50.8325V49.0087H24.098V50.808C24.098 51.163 23.9879 51.4323 23.7676 51.6281C23.5472 51.8239 23.2412 51.9219 22.8495 51.9219L22.8618 51.9096Z" fill="white"/>
<path d="M26.3991 50.0614V51.8362H25.7136V48.9965H26.5337L27.5252 50.7835V48.9965H28.2106V51.8362H27.3905L26.3991 50.0614Z" fill="white"/>
<path d="M29.8386 51.8485V49.0087H30.9525C31.3931 49.0087 31.7236 49.1311 31.9684 49.3759C32.2132 49.6207 32.3234 49.9757 32.3234 50.4286C32.3234 50.8815 32.2744 50.9794 32.1643 51.1997C32.0541 51.42 31.9072 51.5792 31.7114 51.6893C31.5155 51.7995 31.283 51.8607 31.0014 51.8607H29.8386V51.8485ZM30.6342 49.6085V51.2364H30.9035C31.3197 51.2364 31.5155 50.9794 31.5155 50.4531V50.3796C31.5155 49.8655 31.3074 49.6085 30.9035 49.6085H30.622H30.6342Z" fill="white"/>
<path d="M35.5792 51.8485L35.42 51.2976H34.551L34.4041 51.8485H33.5718L34.5755 49.0087H35.4445L36.4482 51.8485H35.5792ZM34.7101 50.7346H35.2854L34.9916 49.6819L34.7101 50.7346Z" fill="white"/>
<path d="M38.3333 51.8484V49.6329H37.5132V49.0209H39.949V49.6329H39.1289V51.8484H38.3333Z" fill="white"/>
<path d="M41.332 51.8485V49.0087H42.1276V51.8485H41.332Z" fill="white"/>
<path d="M45.1145 51.9096C44.8207 51.9096 44.5637 51.8484 44.3433 51.726C44.123 51.6036 43.9639 51.4322 43.8537 51.1997C43.7436 50.9794 43.6824 50.7101 43.6824 50.4163C43.6824 50.1225 43.7436 49.841 43.8537 49.6207C43.9761 49.4004 44.1353 49.229 44.3556 49.1066C44.5759 48.9842 44.8207 48.9352 45.1145 48.9352C45.4082 48.9352 45.6653 48.9964 45.8856 49.1188C46.1059 49.2412 46.2651 49.4126 46.3752 49.6329C46.4854 49.8533 46.5466 50.1225 46.5466 50.4285C46.5466 50.7345 46.4854 51.0038 46.3752 51.2242C46.2528 51.4445 46.0937 51.6158 45.8734 51.7382C45.653 51.8484 45.4082 51.9096 45.1145 51.9096ZM45.1145 51.2854C45.3226 51.2854 45.4817 51.2119 45.5796 51.065C45.6898 50.9182 45.7387 50.7101 45.7387 50.4285C45.7387 50.147 45.6898 49.9267 45.5796 49.7798C45.4694 49.6329 45.3226 49.5595 45.1145 49.5595C44.9064 49.5595 44.7595 49.6329 44.6494 49.7798C44.5392 49.9267 44.4902 50.1348 44.4902 50.4163C44.4902 50.6978 44.5392 50.9182 44.6494 51.065C44.7595 51.2119 44.9064 51.2854 45.1145 51.2854Z" fill="white"/>
<path d="M48.7619 50.0614V51.8362H48.0764V48.9965H48.8965L49.888 50.7835V48.9965H50.5734V51.8362H49.7533L48.7619 50.0614Z" fill="white"/>
<path d="M53.9151 51.8485L53.756 51.2976H52.8869L52.74 51.8485H51.9077L52.9114 49.0087H53.7805L54.7842 51.8485H53.9151ZM53.0461 50.7346H53.6213L53.3276 49.6819L53.0461 50.7346Z" fill="white"/>
<path d="M56.1184 51.8485V49.0087H56.914V51.212H58.1013V51.8485H56.1306H56.1184Z" fill="white"/>
<path d="M53.805 45.1041H18.2839V45.3121H53.805V45.1041Z" fill="white"/>
<path d="M53.805 25.1403H18.2839V25.3484H53.805V25.1403Z" fill="white"/>
</g>
<defs>
<linearGradient id="paint0_linear_13339_2201" x1="61.6876" y1="66.3041" x2="17.7576" y2="14.3934" gradientUnits="userSpaceOnUse">
<stop offset="0.1" stop-color="#232F3E"/>
<stop offset="1" stop-color="#4F5965"/>
</linearGradient>
<clipPath id="clip0_13339_2201">
<rect width="72" height="72" fill="white"/>
</clipPath>
</defs>
</svg>
