<svg width="72" height="72" viewBox="0 0 72 72" fill="none" xmlns="http://www.w3.org/2000/svg">
<rect width="72" height="72" rx="36" fill="#333333"/>
<path d="M35.5377 36.1558C35.5377 32.7186 38.3413 29.9178 41.8137 29.9178C45.2719 29.9178 48.0897 32.7044 48.0897 36.1558C48.0897 39.593 45.2861 42.3938 41.8137 42.3938C38.3555 42.3938 35.5377 39.593 35.5377 36.1558Z" fill="#1ABCFE"/>
<path d="M23 48.6176C23 45.1803 25.8036 42.3796 29.276 42.3796H35.552V48.6176C35.552 52.0548 32.7484 54.8555 29.276 54.8555C25.8036 54.8555 23 52.069 23 48.6176Z" fill="#0ACF83"/>
<path d="M35.5377 17.4561V29.9178H41.8137C45.2719 29.9178 48.0897 27.1313 48.0897 23.6799C48.0897 20.2426 45.2861 17.4419 41.8137 17.4419H35.5377V17.4561Z" fill="#FF7262"/>
<path d="M23 23.694C23 27.1313 25.8036 29.932 29.276 29.932H35.552V17.4561H29.276C25.8036 17.4561 23 20.2427 23 23.694Z" fill="#F24E1E"/>
<path d="M23 36.1558C23 39.593 25.8036 42.3938 29.276 42.3938H35.552V29.9178H29.276C25.8036 29.9178 23 32.7186 23 36.1558Z" fill="#A259FF"/>
</svg>
