<svg width="45" height="45" viewBox="0 0 45 45" fill="none" xmlns="http://www.w3.org/2000/svg">
<rect width="45" height="45" rx="22.5" fill="#F16529"/>
<path d="M23.2159 19.4236H18.0406L17.6831 15.3213H23.2159V11.3157H13.4089L13.5027 12.3903L14.4638 23.4295H23.2159V19.4236ZM23.2159 29.8271L23.1985 29.832L18.8431 28.627L18.5649 25.4326H14.6385L15.1864 31.7222L23.198 34.0001L23.2159 33.9951V29.8271Z" fill="white"/>
<path d="M23.2024 19.4236V23.4295H28.0182L27.5644 28.6247L23.2024 29.8306V33.9983L31.2202 31.7222L31.279 31.0455L32.198 20.4993L32.2932 19.4236H31.2395H23.2024ZM23.2024 11.3157V15.3213H32.6493L32.7277 14.4213L32.9062 12.3903L32.9997 11.3157H23.2024Z" fill="white"/>
</svg>
