<svg width="16" height="16" viewBox="0 0 16 16" fill="none" xmlns="http://www.w3.org/2000/svg">
<path d="M12.9 1H3.1C1.9402 1 1 1.9402 1 3.1V12.9C1 14.0598 1.9402 15 3.1 15H12.9C14.0598 15 15 14.0598 15 12.9V3.1C15 1.9402 14.0598 1 12.9 1Z" fill="#3178C6"/>
<path d="M7.27542 8.40446H9.09826V7.16772H4V8.40446H5.82284V13.9246H7.27542V8.40446ZM9.6679 13.6229C9.8986 13.7496 10.1806 13.8431 10.4939 13.9065C10.8072 13.9698 11.149 14 11.4907 14C11.8325 14 12.1458 13.9668 12.4591 13.8974C12.7724 13.8281 13.0288 13.7134 13.2566 13.5656C13.4873 13.4058 13.6839 13.2037 13.7978 12.9322C13.9117 12.6607 14 12.359 14 11.9669C14 11.6924 13.9601 11.4541 13.8832 11.243C13.8063 11.0318 13.6952 10.8508 13.5414 10.7C13.3962 10.5401 13.2281 10.3983 13.0288 10.2777C12.8294 10.157 12.6015 10.0303 12.3452 9.91571C12.1572 9.83427 12.0034 9.75584 11.8325 9.67741C11.6844 9.59898 11.5563 9.52055 11.4623 9.44213C11.3569 9.36068 11.2771 9.27622 11.2202 9.18874C11.1632 9.09825 11.1347 8.99871 11.1347 8.8871C11.1347 8.78454 11.1601 8.69103 11.2116 8.60657C11.2632 8.52211 11.3341 8.45273 11.4252 8.3924C11.5164 8.33207 11.6303 8.28682 11.767 8.25364C11.9009 8.22046 12.049 8.20538 12.2227 8.20538C12.3424 8.20538 12.4677 8.21473 12.593 8.23373C12.724 8.25274 12.8579 8.282 12.9917 8.32121C13.1256 8.36042 13.2566 8.40869 13.3905 8.46902C13.5158 8.52935 13.6326 8.59872 13.7323 8.67715V7.25942C13.5158 7.17194 13.2766 7.10558 13.0202 7.06335C12.7639 7.02111 12.4791 7 12.1373 7C11.7955 7 11.4822 7.03921 11.1689 7.11463C10.8556 7.19004 10.5993 7.3107 10.3714 7.4766C10.1407 7.63949 9.97266 7.83858 9.83025 8.11006C9.69638 8.36344 9.63087 8.65302 9.63087 9.015C9.63087 9.46746 9.75335 9.8596 10.0011 10.1613C10.2461 10.4931 10.6277 10.7344 11.1119 10.9757C11.3085 11.0602 11.4822 11.1446 11.6531 11.2261C11.824 11.3075 11.9664 11.392 12.0803 11.4794C12.2028 11.5669 12.2996 11.6634 12.3651 11.766C12.4363 11.8686 12.4734 11.9892 12.4734 12.128C12.4734 12.2245 12.4512 12.315 12.4079 12.3995C12.3646 12.4839 12.2968 12.5563 12.2056 12.6167C12.1145 12.677 12.0034 12.7252 11.8639 12.7614C11.73 12.7946 11.579 12.8127 11.3797 12.8127C11.0664 12.8127 10.7531 12.7554 10.4682 12.6408C10.1549 12.5262 9.87012 12.3542 9.6679 12.175V13.6229Z" fill="white"/>
</svg>
