<svg width="20" height="20" viewBox="0 0 20 20" fill="none" xmlns="http://www.w3.org/2000/svg">
<path d="M10 17.5C8.95833 17.5 7.98278 17.3022 7.07333 16.9067C6.16389 16.5111 5.37222 15.9764 4.69833 15.3025C4.02445 14.6286 3.48972 13.8369 3.09417 12.9275C2.69861 12.0181 2.50056 11.0422 2.5 10C2.49945 8.95778 2.6975 7.98222 3.09417 7.07333C3.49083 6.16444 4.02528 5.37278 4.6975 4.69833C5.36972 4.02389 6.16139 3.48917 7.0725 3.09417C7.98361 2.69917 8.95944 2.50111 10 2.5C11.1389 2.5 12.2189 2.74306 13.24 3.22917C14.2611 3.71528 15.1256 4.40278 15.8333 5.29167V4.16667C15.8333 3.93056 15.9133 3.73278 16.0733 3.57333C16.2333 3.41389 16.4311 3.33389 16.6667 3.33333C16.9022 3.33278 17.1003 3.41278 17.2608 3.57333C17.4214 3.73389 17.5011 3.93167 17.5 4.16667V7.5C17.5 7.73611 17.42 7.93417 17.26 8.09417C17.1 8.25417 16.9022 8.33389 16.6667 8.33333H13.3333C13.0972 8.33333 12.8994 8.25333 12.74 8.09333C12.5806 7.93333 12.5006 7.73556 12.5 7.5C12.4994 7.26444 12.5794 7.06667 12.74 6.90667C12.9006 6.74667 13.0983 6.66667 13.3333 6.66667H14.7917C14.2222 5.88889 13.5208 5.27778 12.6875 4.83333C11.8542 4.38889 10.9583 4.16667 10 4.16667C8.375 4.16667 6.99667 4.73278 5.865 5.865C4.73333 6.99722 4.16722 8.37556 4.16667 10C4.16611 11.6244 4.73222 13.0031 5.865 14.1358C6.99778 15.2686 8.37611 15.8344 10 15.8333C11.3194 15.8333 12.5 15.4375 13.5417 14.6458C14.5833 13.8542 15.2708 12.8333 15.6042 11.5833C15.6736 11.3611 15.7986 11.1944 15.9792 11.0833C16.1597 10.9722 16.3611 10.9306 16.5833 10.9583C16.8194 10.9861 17.0069 11.0867 17.1458 11.26C17.2847 11.4333 17.3264 11.6244 17.2708 11.8333C16.8681 13.4861 15.9931 14.8439 14.6458 15.9067C13.2986 16.9694 11.75 17.5006 10 17.5Z" fill="#A881FF"/>
</svg>
