<svg width="18" height="18" viewBox="0 0 18 18" fill="none" xmlns="http://www.w3.org/2000/svg">
<path d="M9 15.75C8.0625 15.75 7.1845 15.572 6.366 15.216C5.5475 14.86 4.835 14.3788 4.2285 13.7723C3.622 13.1658 3.14075 12.4532 2.78475 11.6347C2.42875 10.8162 2.2505 9.938 2.25 9C2.2495 8.062 2.42775 7.184 2.78475 6.366C3.14175 5.548 3.62275 4.8355 4.22775 4.2285C4.83275 3.6215 5.54525 3.14025 6.36525 2.78475C7.18525 2.42925 8.0635 2.251 9 2.25C10.025 2.25 10.997 2.46875 11.916 2.90625C12.835 3.34375 13.613 3.9625 14.25 4.7625V3.75C14.25 3.5375 14.322 3.3595 14.466 3.216C14.61 3.0725 14.788 3.0005 15 3C15.212 2.9995 15.3903 3.0715 15.5347 3.216C15.6792 3.3605 15.751 3.5385 15.75 3.75V6.75C15.75 6.9625 15.678 7.14075 15.534 7.28475C15.39 7.42875 15.212 7.5005 15 7.5H12C11.7875 7.5 11.6095 7.428 11.466 7.284C11.3225 7.14 11.2505 6.962 11.25 6.75C11.2495 6.538 11.3215 6.36 11.466 6.216C11.6105 6.072 11.7885 6 12 6H13.3125C12.8 5.3 12.1687 4.75 11.4187 4.35C10.6688 3.95 9.8625 3.75 9 3.75C7.5375 3.75 6.297 4.2595 5.2785 5.2785C4.26 6.2975 3.7505 7.538 3.75 9C3.7495 10.462 4.259 11.7027 5.2785 12.7222C6.298 13.7417 7.5385 14.251 9 14.25C10.1875 14.25 11.25 13.8938 12.1875 13.1813C13.125 12.4688 13.7437 11.55 14.0437 10.425C14.1062 10.225 14.2188 10.075 14.3812 9.975C14.5437 9.875 14.725 9.8375 14.925 9.8625C15.1375 9.8875 15.3063 9.978 15.4313 10.134C15.5563 10.29 15.5938 10.462 15.5438 10.65C15.1813 12.1375 14.3938 13.3595 13.1813 14.316C11.9688 15.2725 10.575 15.7505 9 15.75Z" fill="#F5F2FF"/>
</svg>
