<svg width="45" height="45" viewBox="0 0 45 45" fill="none" xmlns="http://www.w3.org/2000/svg">
<g clip-path="url(#clip0_8204_209)">
<path d="M22.5 0C34.9263 0 45 10.0737 45 22.5C45 34.9263 34.9263 45 22.5 45C10.0737 45 0 34.9263 0 22.5C0 10.0737 10.0737 0 22.5 0Z" fill="#3178C6"/>
<path d="M25.2703 25.6844V29.1368C25.8409 29.4246 26.5156 29.6405 27.2945 29.7843C28.0734 29.9281 28.8945 30 29.7575 30C30.5986 30 31.3977 29.9209 32.1547 29.7626C32.9117 29.6045 33.5754 29.3437 34.1459 28.9804C34.7163 28.6172 35.168 28.1425 35.5009 27.5563C35.8337 26.9701 36.0001 26.2454 36 25.3823C36 24.7566 35.9049 24.2081 35.7148 23.737C35.5274 23.27 35.2479 22.8431 34.8919 22.4801C34.5335 22.1132 34.1038 21.7842 33.6028 21.493C33.1019 21.2017 32.5369 20.9265 31.9078 20.6676C31.447 20.4806 31.0338 20.2989 30.668 20.1228C30.3025 19.9466 29.9917 19.7668 29.7355 19.5833C29.4795 19.3999 29.2821 19.2057 29.1432 19.0007C29.0043 18.7957 28.9348 18.5638 28.9347 18.3048C28.9347 18.0675 28.9968 17.8535 29.1212 17.6629C29.2456 17.4723 29.4211 17.3086 29.6477 17.1719C29.8745 17.0352 30.1525 16.9291 30.4815 16.8537C30.8107 16.7783 31.1764 16.7405 31.5787 16.7404C31.8713 16.7404 32.1803 16.762 32.5057 16.8052C32.8312 16.8483 33.1586 16.9148 33.4876 17.0047C33.8159 17.0945 34.1368 17.2081 34.4476 17.3446C34.7494 17.4761 35.0378 17.6351 35.3088 17.8193V14.5934C34.7749 14.392 34.1916 14.2428 33.5589 14.1457C32.9264 14.0486 32.2005 14 31.3812 14C30.5474 14 29.7575 14.0881 29.0115 14.2643C28.2655 14.4406 27.609 14.7157 27.0422 15.0897C26.4753 15.4636 26.0274 15.9401 25.6983 16.5192C25.3692 17.0982 25.2046 17.7905 25.2045 18.5961C25.2045 19.6246 25.5062 20.5021 26.1097 21.2286C26.7131 21.955 27.6292 22.57 28.858 23.0735C29.3116 23.2554 29.7615 23.4461 30.2074 23.6454C30.6241 23.8323 30.9843 24.0265 31.2879 24.2279C31.5914 24.4293 31.831 24.6487 32.0065 24.8861C32.1821 25.1234 32.2699 25.3931 32.2699 25.6952C32.2715 25.9124 32.2147 26.1262 32.1053 26.3156C31.9956 26.5062 31.8292 26.6716 31.6061 26.8119C31.383 26.9521 31.1051 27.0618 30.7723 27.141C30.4394 27.22 30.05 27.2596 29.604 27.2596C28.8433 27.2596 28.0899 27.1283 27.3439 26.8658C26.5979 26.6033 25.9067 26.2095 25.2703 25.6844ZM19.1976 17.1092H23.7841V14.2759H11V17.1091H15.5642V29.7241H19.1974L19.1976 17.1092Z" fill="white"/>
</g>
<defs>
<clipPath id="clip0_8204_209">
<rect width="45" height="45" fill="white"/>
</clipPath>
</defs>
</svg>
