<svg width="16" height="16" viewBox="0 0 16 16" fill="none" xmlns="http://www.w3.org/2000/svg">
<path fill-rule="evenodd" clip-rule="evenodd" d="M15 8C15 9.85652 14.2625 11.637 12.9497 12.9497C11.637 14.2625 9.85652 15 8 15C6.14348 15 4.36301 14.2625 3.05025 12.9497C1.7375 11.637 1 9.85652 1 8C1 6.14348 1.7375 4.36301 3.05025 3.05025C4.36301 1.7375 6.14348 1 8 1C9.85652 1 11.637 1.7375 12.9497 3.05025C14.2625 4.36301 15 6.14348 15 8ZM9 10.5C9 10.7652 8.89464 11.0196 8.70711 11.2071C8.51957 11.3946 8.26522 11.5 8 11.5C7.73478 11.5 7.48043 11.3946 7.29289 11.2071C7.10536 11.0196 7 10.7652 7 10.5C7 10.2348 7.10536 9.98043 7.29289 9.79289C7.48043 9.60536 7.73478 9.5 8 9.5C8.26522 9.5 8.51957 9.60536 8.70711 9.79289C8.89464 9.98043 9 10.2348 9 10.5ZM8.75 5C8.75 4.80109 8.67098 4.61032 8.53033 4.46967C8.38968 4.32902 8.19891 4.25 8 4.25C7.80109 4.25 7.61032 4.32902 7.46967 4.46967C7.32902 4.61032 7.25 4.80109 7.25 5V7.5C7.25 7.69891 7.32902 7.88968 7.46967 8.03033C7.61032 8.17098 7.80109 8.25 8 8.25C8.19891 8.25 8.38968 8.17098 8.53033 8.03033C8.67098 7.88968 8.75 7.69891 8.75 7.5V5Z" fill="white"/>
</svg>
