<svg width="24" height="28" viewBox="0 0 24 28" fill="none" xmlns="http://www.w3.org/2000/svg">
<g clip-path="url(#clip0_7460_6132)">
<mask id="mask0_7460_6132" style="mask-type:luminance" maskUnits="userSpaceOnUse" x="0" y="0" width="24" height="28">
<path d="M24 0H0V28H24V0Z" fill="white"/>
</mask>
<g mask="url(#mask0_7460_6132)">
<path d="M23.4319 20.4566C20.5903 24.9741 15.5193 27.9574 9.70514 27.9574C6.07673 27.9574 2.71061 26.764 0.0439453 24.8036C0.481104 17.3881 5.46471 7.84167 11.0166 7.84167C15.6505 7.88429 21.3772 13.2968 23.4319 20.4566Z" fill="#A1C20C"/>
<path d="M6.55761 10.0152C7.74065 10.0152 8.69969 8.60325 8.69969 6.86149C8.69969 5.11974 7.74065 3.70776 6.55761 3.70776C5.37457 3.70776 4.41553 5.11974 4.41553 6.86149C4.41553 8.60325 5.37457 10.0152 6.55761 10.0152Z" fill="#A1C20C"/>
<path d="M13.5437 9.34991C15.128 9.18338 16.1815 6.96168 15.8968 4.3876C15.6121 1.81352 14.097 -0.138186 12.5128 0.0283446C10.9285 0.194875 9.87506 2.41658 10.1597 4.99066C10.4444 7.56474 11.9595 9.51645 13.5437 9.34991Z" fill="#A1C20C"/>
<path d="M13.2022 7.0746C14.168 7.0746 14.9509 6.31137 14.9509 5.36988C14.9509 4.42839 14.168 3.66516 13.2022 3.66516C12.2365 3.66516 11.4536 4.42839 11.4536 5.36988C11.4536 6.31137 12.2365 7.0746 13.2022 7.0746Z" fill="#3B3075"/>
<path d="M6.83882 8.13996C7.56312 8.13996 8.15029 7.56754 8.15029 6.86142C8.15029 6.15531 7.56312 5.58289 6.83882 5.58289C6.11451 5.58289 5.52734 6.15531 5.52734 6.86142C5.52734 7.56754 6.11451 8.13996 6.83882 8.13996Z" fill="#3B3075"/>
<path d="M8.04394 17.9422C4.76525 17.9422 1.83629 16.7915 1.66143 16.7489C1.26798 16.5785 1.09312 16.1949 1.26798 15.8113C1.44285 15.4278 1.83629 15.2573 2.22973 15.4278C2.27345 15.4278 7.69421 17.5587 11.6723 15.8539C16.4373 13.8509 17.7925 10.3562 17.7925 10.3136C17.9237 9.93005 18.3608 9.75958 18.7543 9.88743C19.1477 10.0153 19.3226 10.4415 19.1914 10.825C19.1477 10.9955 17.6614 14.9164 12.2406 17.2177C10.9291 17.7291 9.44285 17.9422 8.04394 17.9422Z" fill="#3B3075"/>
<path d="M19.6283 12.6575C19.3223 12.6575 19.0163 12.4444 18.9288 12.1035C18.9288 12.1035 18.754 11.5068 18.2294 11.0807C17.7048 10.6119 17.1365 10.6119 17.0928 10.6119C16.6993 10.6119 16.3496 10.3135 16.3496 9.88735C16.3496 9.50379 16.6556 9.16284 17.0928 9.16284C17.2239 9.16284 18.2731 9.16284 19.2349 10.0152C20.0655 10.7823 20.3277 11.6773 20.3715 11.7625C20.4589 12.1461 20.2403 12.5297 19.8469 12.6575C19.7594 12.6149 19.672 12.6575 19.6283 12.6575Z" fill="#3B3075"/>
<path d="M13.2461 1.06543C10.8417 1.06543 8.87451 2.98324 8.87451 5.32723C8.87451 7.67121 10.8417 9.58902 13.2461 9.58902C15.6504 9.58902 17.6176 7.67121 17.6176 5.32723C17.6176 2.98324 15.6504 1.06543 13.2461 1.06543ZM13.2461 2.38659C14.9073 2.38659 16.3062 3.70774 16.3062 5.36984C16.3062 6.98933 14.951 8.3531 13.2461 8.3531C11.5411 8.3531 10.1859 7.03194 10.1859 5.36984C10.2297 3.70774 11.5849 2.38659 13.2461 2.38659Z" fill="#3B3075"/>
<path d="M23.6942 21.2237C23.6068 21.1811 21.3335 20.4566 20.9838 17.7717C20.8527 16.621 21.0712 15.6834 21.421 14.5753C21.7707 13.2542 22.2078 11.8052 22.033 9.63164C21.6833 5.58293 16.9182 5.11414 16.8308 5.11414C16.6122 5.11414 16.3936 5.28461 16.3499 5.4977L16.3062 5.79602C16.3062 6.00911 16.4811 6.2222 16.6997 6.26482C16.8745 6.26482 20.5029 6.64838 20.7652 9.67426C20.9401 11.6347 20.5466 12.9985 20.1969 14.1918C19.8472 15.3424 19.5412 16.4505 19.716 17.8569C20.1532 21.309 23.1259 22.2466 23.257 22.2892C23.3007 22.2892 23.3445 22.2892 23.3882 22.2892C23.4756 22.2892 23.5193 22.2892 23.6068 22.2466C23.6942 22.2039 23.7816 22.1187 23.8253 21.9908L23.9128 21.6925C24.0876 21.5221 23.9565 21.309 23.6942 21.2237Z" fill="#3B3075"/>
</g>
</g>
<defs>
<clipPath id="clip0_7460_6132">
<rect width="24" height="28" fill="white"/>
</clipPath>
</defs>
</svg>
