<svg width="72" height="72" viewBox="0 0 72 72" fill="none" xmlns="http://www.w3.org/2000/svg">
<rect width="72" height="72" rx="36" fill="#F35045"/>
<path d="M53.9784 25.5976C53.9923 25.6483 54 25.7005 54 25.7544V33.9083C54 34.122 53.8873 34.3199 53.7081 34.4244L47.0326 38.3668V46.1787C47.0326 46.3925 46.9214 46.5872 46.7422 46.6949L32.8027 54.92C32.7703 54.939 32.7363 54.9517 32.7008 54.9628C32.6885 54.966 32.6761 54.9755 32.6637 54.9786C32.5665 55.0071 32.463 55.0071 32.3673 54.9786C32.3503 54.9755 32.3364 54.966 32.3225 54.9596C32.2901 54.947 32.2561 54.9375 32.2252 54.92L18.2919 46.6949C18.1112 46.5872 18 46.3925 18 46.1787V21.7091C18 21.6568 18.0077 21.6046 18.0216 21.5539C18.0263 21.5349 18.0371 21.5207 18.0432 21.5033C18.0525 21.4716 18.0649 21.4399 18.0788 21.4114C18.0849 21.3908 18.1019 21.3766 18.1143 21.3592C18.1328 21.3338 18.1467 21.3101 18.1652 21.2879C18.1838 21.2721 18.2038 21.2594 18.2224 21.2452C18.244 21.2262 18.2641 21.2072 18.2857 21.1913H18.2872L25.2562 17.0796C25.4338 16.9735 25.6562 16.9735 25.8353 17.0796L32.8027 21.1913H32.8058C32.829 21.2072 32.8475 21.2246 32.8691 21.2436C32.8877 21.2578 32.9077 21.2721 32.9263 21.2863C32.9463 21.3085 32.9587 21.3323 32.9772 21.3576C32.9896 21.375 33.0081 21.3908 33.0158 21.4098C33.0328 21.4399 33.0421 21.47 33.0529 21.5017C33.0575 21.5191 33.0699 21.5349 33.073 21.5523C33.0884 21.6014 33.0946 21.6537 33.0946 21.7075V36.9894L38.9008 33.5631V25.7512C38.9008 25.699 38.9085 25.6467 38.9224 25.596C38.927 25.5786 38.9363 25.5628 38.9425 25.5454C38.9533 25.5137 38.9641 25.4836 38.9795 25.452C38.9903 25.433 39.0073 25.4187 39.0181 25.3997C39.0367 25.376 39.0506 25.3522 39.0691 25.3316C39.0876 25.3126 39.1077 25.3 39.1262 25.2873C39.1479 25.2699 39.1664 25.2509 39.1895 25.2366L46.1601 21.1233C46.3392 21.0172 46.56 21.0172 46.7392 21.1233L53.7081 25.2366C53.7329 25.2525 53.7498 25.2699 53.773 25.2857C53.7915 25.3016 53.8116 25.3142 53.8286 25.3301C53.8487 25.3522 53.8626 25.376 53.8811 25.3997C53.8934 25.4187 53.9104 25.433 53.9182 25.452C53.9351 25.4836 53.946 25.5137 53.9552 25.5454C53.9645 25.5628 53.9737 25.5802 53.9784 25.5976ZM52.8357 33.5647V26.7835L50.3989 28.2211L47.0295 30.2097V36.9909L52.8357 33.5647ZM45.8698 45.8352V39.0476L42.5559 40.9871L33.0946 46.5255V53.3748L45.8698 45.8352ZM19.1582 22.7382V45.8352L31.9333 53.3748V46.5255L25.2593 42.6543L25.2562 42.6496H25.2531C25.2315 42.6338 25.2145 42.6163 25.1914 42.6005C25.1744 42.5847 25.1543 42.572 25.1373 42.5578L25.1358 42.5546C25.1157 42.5356 25.1033 42.515 25.0879 42.4928C25.0724 42.4739 25.0555 42.4564 25.0447 42.4343H25.0416C25.0292 42.4121 25.0215 42.3852 25.0107 42.3599C25.0014 42.3345 24.9891 42.3171 24.9829 42.2918C24.9767 42.2633 24.9736 42.2332 24.9705 42.2015C24.9674 42.1794 24.9613 42.1588 24.9613 42.1366V26.166L21.5949 24.1758L19.1582 22.7382ZM25.545 18.2829L19.7388 21.7091L25.545 25.1353L31.3481 21.7091L25.545 18.2829ZM28.5654 39.6651L31.9349 37.6765V22.7382L29.495 24.1774L26.1256 26.166V41.1043L28.5654 39.6651ZM46.4504 22.3266L40.6442 25.7528L46.4504 29.1774L52.255 25.7512L46.4504 22.3266ZM45.8698 30.2097L42.5003 28.2211L40.062 26.7835V33.5647L43.4315 35.5533L45.8698 36.9909V30.2097ZM32.5124 45.4948L41.0271 40.5106L45.283 38.0217L39.4814 34.597L32.8043 38.5378L26.7186 42.1319L32.5124 45.4948Z" fill="white" stroke="white"/>
</svg>
