<svg width="16" height="16" viewBox="0 0 16 16" fill="none" xmlns="http://www.w3.org/2000/svg">
<path d="M1 4.66667C1 4.22464 1.18437 3.80072 1.51256 3.48816C1.84075 3.17559 2.28587 3 2.75 3H13.25C13.7141 3 14.1592 3.17559 14.4874 3.48816C14.8156 3.80072 15 4.22464 15 4.66667V11.3333C15 11.7754 14.8156 12.1993 14.4874 12.5118C14.1592 12.8244 13.7141 13 13.25 13H2.75C2.28587 13 1.84075 12.8244 1.51256 12.5118C1.18437 12.1993 1 11.7754 1 11.3333V4.66667ZM11.0625 5.5C10.9465 5.5 10.8352 5.5439 10.7531 5.62204C10.6711 5.70018 10.625 5.80616 10.625 5.91667V9.0775L9.62225 8.12167C9.5401 8.04343 9.42868 7.99947 9.3125 7.99947C9.19632 7.99947 9.0849 8.04343 9.00275 8.12167C8.9206 8.19991 8.87445 8.30602 8.87445 8.41667C8.87445 8.52731 8.9206 8.63343 9.00275 8.71167L10.7527 10.3783C10.7934 10.4171 10.8417 10.4479 10.8948 10.4689C10.948 10.4899 11.005 10.5007 11.0625 10.5007C11.12 10.5007 11.177 10.4899 11.2302 10.4689C11.2833 10.4479 11.3316 10.4171 11.3723 10.3783L13.1223 8.71167C13.2044 8.63343 13.2506 8.52731 13.2506 8.41667C13.2506 8.30602 13.2044 8.19991 13.1223 8.12167C13.0401 8.04343 12.9287 7.99947 12.8125 7.99947C12.6963 7.99947 12.5849 8.04343 12.5027 8.12167L11.5 9.0775V5.91667C11.5 5.80616 11.4539 5.70018 11.3719 5.62204C11.2898 5.5439 11.1785 5.5 11.0625 5.5ZM4.115 7.175H4.164L5.4135 9.87417H6.09075L7.33325 7.17417H7.38225V10.5H8.32112V5.50083H7.27112L5.77487 8.74583H5.74075L4.2445 5.50083H3.1875V10.5H4.115V7.175Z" fill="#42A5F5"/>
</svg>
