<svg width="45" height="45" viewBox="0 0 45 45" fill="none" xmlns="http://www.w3.org/2000/svg">
<rect width="45" height="45" rx="22.5" fill="black"/>
<g clip-path="url(#clip0_8204_214)">
<path fill-rule="evenodd" clip-rule="evenodd" d="M10 18.3333C10 16.0321 11.8655 14.1666 14.1667 14.1666H30.8333C33.1345 14.1666 35 16.0321 35 18.3333V26.6666C35 28.9678 33.1345 30.8333 30.8333 30.8333H14.1667C11.8655 30.8333 10 28.9678 10 26.6666V18.3333ZM14.1667 16.25C13.0161 16.25 12.0833 17.1827 12.0833 18.3333V26.6666C12.0833 27.8173 13.0161 28.75 14.1667 28.75H30.8333C31.984 28.75 32.9167 27.8173 32.9167 26.6666V18.3333C32.9167 17.1827 31.984 16.25 30.8333 16.25H14.1667ZM15.9206 18.3868C16.3459 18.245 16.8143 18.3913 17.0833 18.75L19.375 21.8055L21.6667 18.75C21.9357 18.3913 22.4041 18.245 22.8294 18.3868C23.2548 18.5285 23.5417 18.9266 23.5417 19.375V25.625C23.5417 26.2003 23.0753 26.6666 22.5 26.6666C21.9247 26.6666 21.4583 26.2003 21.4583 25.625V22.5L20.2083 24.1666C20.0116 24.4289 19.7029 24.5833 19.375 24.5833C19.0471 24.5833 18.7384 24.4289 18.5417 24.1666L17.2917 22.5V25.625C17.2917 26.2003 16.8253 26.6666 16.25 26.6666C15.6747 26.6666 15.2083 26.2003 15.2083 25.625V19.375C15.2083 18.9266 15.4952 18.5285 15.9206 18.3868ZM28.75 19.375C28.75 18.7997 28.2836 18.3333 27.7083 18.3333C27.133 18.3333 26.6667 18.7997 26.6667 19.375V23.1102L26.3616 22.8051C25.9548 22.3983 25.2952 22.3983 24.8884 22.8051C24.4817 23.2118 24.4817 23.8714 24.8884 24.2782L26.9718 26.3615C27.3785 26.7683 28.0381 26.7683 28.4449 26.3615L30.5282 24.2782C30.935 23.8714 30.935 23.2118 30.5282 22.8051C30.1215 22.3983 29.4619 22.3983 29.0551 22.8051L28.75 23.1102V19.375Z" fill="white"/>
</g>
<defs>
<clipPath id="clip0_8204_214">
<rect width="25" height="25" fill="white" transform="translate(10 10)"/>
</clipPath>
</defs>
</svg>
