<svg width="45" height="45" viewBox="0 0 45 45" fill="none" xmlns="http://www.w3.org/2000/svg">
<rect width="45" height="45" rx="22.5" fill="#61DBFB"/>
<path d="M16.0942 18.7999C13.167 19.6132 11.25 20.9666 11.25 22.5C11.25 24.9862 16.2866 27 22.4999 27C23.3696 27 24.2167 26.9606 25.0289 26.8852M28.9034 26.2001C31.8318 25.3878 33.7499 24.0333 33.7499 22.5C33.7499 20.0137 28.7133 18 22.4999 18C21.6303 18 20.7832 18.0394 19.9687 18.1147" stroke="white" stroke-width="1.25" stroke-linecap="round" stroke-linejoin="round"/>
<path d="M16.0929 26.1978C15.3324 29.1397 15.5473 31.4774 16.8748 32.2424C19.0269 33.4855 23.2906 30.1308 26.3967 24.7499C26.8321 23.9962 27.2214 23.2436 27.5622 22.5022M28.9055 18.8054C29.6671 15.8625 29.4534 13.5225 28.1247 12.7575C25.9726 11.5144 21.7089 14.8691 18.6028 20.2499C18.1674 21.0037 17.7782 21.7574 17.4362 22.4988" stroke="white" stroke-width="1.25" stroke-linecap="round" stroke-linejoin="round"/>
<path d="M22.4998 15.102C20.3341 12.9735 18.2023 11.9903 16.8748 12.7575C14.7227 13.9995 15.4955 19.3691 18.6028 24.75C19.037 25.5037 19.4949 26.217 19.9663 26.8829M22.4975 29.8957C24.6642 32.0253 26.7961 33.0097 28.1247 32.2424C30.2768 31.0004 29.504 25.6308 26.3967 20.25C25.9749 19.5187 25.5192 18.8066 25.0332 18.1159M21.9373 23.4742C22.0652 23.5492 22.2068 23.5982 22.3538 23.6183C22.5008 23.6384 22.6503 23.6292 22.7938 23.5913C22.9372 23.5534 23.0717 23.4875 23.1896 23.3974C23.3074 23.3072 23.4063 23.1947 23.4805 23.0662C23.5547 22.9377 23.6027 22.7958 23.6218 22.6487C23.641 22.5016 23.6308 22.3521 23.5919 22.2089C23.553 22.0658 23.4862 21.9317 23.3953 21.8144C23.3044 21.6972 23.1912 21.5991 23.0623 21.5257C22.804 21.3789 22.4982 21.3402 22.2115 21.418C21.9248 21.4958 21.6805 21.6839 21.5319 21.9412C21.3834 22.1985 21.3427 22.504 21.4186 22.7913C21.4945 23.0785 21.681 23.324 21.9373 23.4742Z" stroke="white" stroke-width="1.25" stroke-linecap="round" stroke-linejoin="round"/>
</svg>
