<svg width="16" height="16" viewBox="0 0 16 16" fill="none" xmlns="http://www.w3.org/2000/svg">
<path fill-rule="evenodd" clip-rule="evenodd" d="M8 1C9.38447 1 10.7378 1.41054 11.889 2.17971C13.0401 2.94888 13.9373 4.04213 14.4672 5.32122C14.997 6.6003 15.1356 8.00777 14.8655 9.36563C14.5954 10.7235 13.9287 11.9708 12.9497 12.9497C11.9708 13.9287 10.7235 14.5954 9.36563 14.8655C8.00777 15.1356 6.6003 14.997 5.32122 14.4672C4.04213 13.9373 2.94888 13.0401 2.17971 11.889C1.41054 10.7378 1 9.38447 1 8C1 6.14348 1.7375 4.36301 3.05025 3.05025C4.36301 1.7375 6.14348 1 8 1Z" fill="#CC6699"/>
<path d="M12.3911 3.996C12.0741 2.753 10.0126 2.346 8.0616 3.037C6.83975 3.44758 5.71088 4.0951 4.7396 4.9425C3.6651 5.9475 3.4936 6.8225 3.5641 7.188C3.8141 8.478 5.5806 9.321 6.3071 9.9465V9.95C6.0931 10.0555 4.5251 10.85 4.1571 11.66C3.7701 12.516 4.2186 13.13 4.5161 13.2125C4.96276 13.32 5.43187 13.285 5.85763 13.1124C6.2834 12.9398 6.64443 12.6382 6.8901 12.25C7.09312 11.9355 7.22015 11.578 7.26111 11.2059C7.30207 10.8337 7.25585 10.4572 7.1261 10.106C7.47603 10.0171 7.83979 9.99621 8.1976 10.0445C9.4256 10.188 9.6666 10.9545 9.6206 11.2755C9.59896 11.3898 9.55297 11.498 9.48576 11.5929C9.41855 11.6878 9.3317 11.7672 9.2311 11.8255C9.1451 11.879 9.1186 11.897 9.1261 11.937C9.1366 11.9945 9.1761 11.9925 9.2496 11.98C9.43413 11.9219 9.59674 11.8092 9.71598 11.6569C9.83523 11.5045 9.90552 11.3196 9.9176 11.1265C9.9471 10.3765 9.2266 9.5335 7.9506 9.555C7.57999 9.54442 7.21019 9.5951 6.8561 9.705C6.8386 9.685 6.8206 9.665 6.8021 9.645C6.0131 8.8035 4.5551 8.208 4.6166 7.0765C4.6391 6.665 4.7821 5.582 7.4166 4.268C9.5766 3.1915 11.3056 3.488 11.6046 4.1445C12.0316 5.0825 10.6806 6.825 8.4376 7.0765C8.18968 7.12683 7.93362 7.12069 7.6884 7.05855C7.44319 6.9964 7.21511 6.87983 7.0211 6.7175C6.9031 6.5875 6.8856 6.582 6.8416 6.606C6.7701 6.6455 6.8156 6.7605 6.8416 6.8285C6.92748 6.98329 7.04342 7.11937 7.18259 7.22876C7.32177 7.33814 7.48139 7.41863 7.6521 7.4655C8.53399 7.65713 9.45383 7.56616 10.2811 7.2055C11.6416 6.681 12.7026 5.2185 12.3911 3.996ZM6.6091 10.3315C6.7084 10.6739 6.70336 11.038 6.5946 11.3775C6.58293 11.4128 6.5701 11.4478 6.5561 11.4825C6.5421 11.5172 6.52693 11.5505 6.5106 11.5825C6.42645 11.7547 6.31745 11.9135 6.1871 12.054C5.7806 12.4975 5.2121 12.6655 4.9686 12.524C4.7056 12.3715 4.8371 11.746 5.3086 11.2475C5.67089 10.8892 6.08858 10.5918 6.5456 10.3665L6.6091 10.3315Z" fill="white"/>
</svg>
