<svg width="73" height="72" viewBox="0 0 73 72" fill="none" xmlns="http://www.w3.org/2000/svg">
<rect x="0.46582" width="72" height="72" rx="36" fill="#90C53F"/>
<path d="M50.0408 26.1618L37.8978 18.8789C37.4617 18.6303 36.9683 18.4995 36.4662 18.4995C35.9641 18.4995 35.4707 18.6303 35.0345 18.8789L22.8908 26.161C22.4532 26.4291 22.0921 26.8057 21.8425 27.2541C21.5929 27.7026 21.4631 28.2079 21.4658 28.7211V43.2657C21.4632 43.7792 21.5929 44.2848 21.8425 44.7336C22.0921 45.1825 22.4531 45.5594 22.8908 45.8282L26.0752 47.7297L26.0931 47.7399C27.701 48.5625 28.3166 48.5625 29.0299 48.5625C31.5408 48.5625 33.101 46.9375 33.101 44.3211V30.2188C33.1024 30.0427 33.034 29.8733 32.9107 29.7476C32.7873 29.6219 32.6192 29.5503 32.4431 29.5485H30.6947C30.5186 29.5503 30.3505 29.6219 30.2272 29.7476C30.1039 29.8733 30.0354 30.0427 30.0369 30.2188V44.3211C30.0433 44.523 29.9973 44.7231 29.9036 44.902C29.8098 45.0809 29.6714 45.2326 29.5017 45.3422C29.0408 45.6235 28.3713 45.5641 27.6158 45.1742L24.5642 43.3375C24.5526 43.3296 24.543 43.3188 24.5365 43.3063C24.5299 43.2938 24.5266 43.2798 24.5267 43.2657V28.9266C24.5272 28.9101 24.5317 28.894 24.5397 28.8796C24.5477 28.8652 24.5591 28.8529 24.5728 28.8438L36.4353 21.5782C36.4442 21.5738 36.454 21.5715 36.4638 21.5715C36.4737 21.5715 36.4835 21.5738 36.4924 21.5782L48.3619 28.8438C48.3754 28.8536 48.3863 28.8666 48.3938 28.8815C48.4013 28.8965 48.4051 28.913 48.4049 28.9297V43.2657C48.4052 43.2805 48.4022 43.2952 48.3961 43.3087C48.39 43.3222 48.381 43.3342 48.3697 43.3438L36.49 50.4258C36.4698 50.4328 36.4478 50.4328 36.4275 50.4258L33.3939 48.6243C33.3039 48.5654 33.1998 48.5314 33.0924 48.5258C32.9849 48.5202 32.8779 48.5431 32.7822 48.5922L32.7556 48.6078C31.9181 49.1039 31.6931 49.2328 30.9166 49.5157C30.79 49.5618 30.4924 49.6719 30.4666 49.9664C30.4408 50.261 30.7236 50.4703 30.9752 50.6164L35.0299 53.1063C35.4619 53.3651 35.956 53.502 36.4595 53.5024H36.5049C36.9959 53.4947 37.4762 53.3581 37.8978 53.1063L50.0408 45.8305C50.4782 45.5609 50.839 45.1835 51.0886 44.7343C51.3381 44.2852 51.468 43.7795 51.4658 43.2657V28.7211C51.4683 28.208 51.3384 27.7029 51.0888 27.2546C50.8392 26.8063 50.4783 26.4299 50.0408 26.1618Z" fill="white"/>
<path d="M40.5189 40.8477C37.6056 40.8477 36.9845 40.0336 36.8002 38.7196C36.7794 38.5631 36.7032 38.4193 36.5853 38.3143C36.4674 38.2094 36.3158 38.1502 36.158 38.1477H34.6111C34.4368 38.1514 34.271 38.224 34.1501 38.3496C34.0291 38.4752 33.9629 38.6436 33.9658 38.818C33.9658 39.9571 34.3658 43.675 40.522 43.675C42.4267 43.675 44.0111 43.2297 45.1025 42.3867C46.1939 41.5438 46.7783 40.3172 46.7783 38.8555C46.7783 35.9219 44.8642 35.1188 41.0947 34.5938C37.2627 34.061 37.2627 33.7899 37.2627 33.1961C37.2627 32.7688 37.2627 31.768 40.033 31.768C42.0041 31.768 43.0595 32.0172 43.397 33.3305C43.4269 33.4761 43.5056 33.6071 43.6202 33.7019C43.7347 33.7966 43.8781 33.8495 44.0267 33.8516H45.5791C45.6706 33.8507 45.7608 33.8303 45.8438 33.7918C45.9268 33.7532 46.0006 33.6975 46.0603 33.6281C46.1797 33.4888 46.2392 33.308 46.2259 33.125C46.0252 30.3477 43.9947 28.9391 40.0353 28.9391C36.4369 28.9391 34.2892 30.5602 34.2892 33.275C34.2892 36.2516 36.515 37.093 39.8588 37.4414C43.765 37.8453 43.765 38.4344 43.765 38.9547C43.7674 39.7656 43.4306 40.8477 40.5189 40.8477Z" fill="white"/>
</svg>
