<svg width="72" height="72" viewBox="0 0 72 72" fill="none" xmlns="http://www.w3.org/2000/svg">
<rect width="72" height="72" rx="36" fill="white"/>
<path d="M45.0211 44.1677C45.254 42.2276 45.1842 41.943 46.6293 42.2573L46.9962 42.2895C48.1074 42.3401 49.561 42.1108 50.415 41.7141C52.2533 40.8611 53.3433 39.4369 51.5307 39.8112C47.3959 40.6641 47.1116 39.2641 47.1116 39.2641C51.4777 32.7859 53.3029 24.5625 51.7275 22.5496C47.4305 17.0591 39.9926 19.6555 39.8681 19.7229L39.8285 19.7303C39.0115 19.5607 38.0972 19.4594 37.0701 19.4428C35.199 19.4121 33.7792 19.9334 32.7022 20.7502C32.7022 20.7502 19.4334 15.2836 20.0507 27.625C20.182 30.2504 23.8139 47.4908 28.1456 42.2834C29.7288 40.3792 31.2589 38.7692 31.2589 38.7692C32.0186 39.2739 32.9282 39.5314 33.8822 39.4389L33.956 39.376C33.9329 39.6125 33.9431 39.8438 33.9855 40.1175C32.8698 41.3643 33.1976 41.5833 30.9666 42.0424C28.7095 42.5077 30.0355 43.3359 30.9011 43.5523C31.9507 43.8148 34.3789 44.1866 36.0199 41.8898L35.9546 42.1518C36.3923 42.502 36.3628 44.669 36.4248 46.2171C36.487 47.7654 36.5906 49.2103 36.9062 50.062C37.2218 50.9137 37.5942 53.1078 40.5263 52.4794C42.9768 51.9543 44.8504 51.1985 45.0211 44.1677Z" fill="#336791" stroke="#336791" stroke-width="3.07413"/>
<path d="M51.5311 39.811C47.3959 40.664 47.1117 39.2639 47.1117 39.2639C51.4778 32.7853 53.3029 24.5618 51.7278 22.5491C47.4309 17.0589 39.9926 19.6554 39.8685 19.7228L39.8285 19.73C39.0116 19.5604 38.0973 19.4594 37.0697 19.4426C35.1986 19.4119 33.7793 19.9331 32.7023 20.7498C32.7023 20.7498 19.4332 15.2835 20.0503 27.6248C20.1816 30.2503 23.8134 47.4907 28.1453 42.2833C29.7286 40.3791 31.2584 38.7691 31.2584 38.7691C32.0182 39.2739 32.9278 39.5313 33.8815 39.4388L33.9555 39.376C33.9325 39.6124 33.943 39.8437 33.9852 40.1175C32.8692 41.3642 33.1972 41.5832 30.9663 42.0423C28.709 42.5076 30.0351 43.3358 30.9009 43.5522C31.9505 43.8147 34.3788 44.1865 36.0196 41.8897L35.9541 42.1518C36.3914 42.502 36.6984 44.4298 36.647 46.1774C36.5955 47.925 36.5611 49.1248 36.9057 50.062C37.2502 50.9991 37.5936 53.1077 40.5262 52.4793C42.9767 51.9542 44.2466 50.5933 44.4233 48.3234C44.5486 46.7096 44.8323 46.9481 44.8502 45.5053L45.0778 44.8223C45.3402 42.6347 45.1195 41.9289 46.6292 42.2571L46.9961 42.2894C48.1073 42.3399 49.5616 42.1107 50.4152 41.7139C52.2531 40.8609 53.3432 39.4368 51.531 39.811H51.5311Z" fill="#336791"/>
<path d="M36.1971 41.065C36.0832 45.1355 36.2257 49.2345 36.624 50.2306C37.0225 51.2268 37.8754 53.1644 40.8083 52.5361C43.2586 52.0108 44.1501 50.9943 44.537 48.7505C44.8219 47.0995 45.3712 42.5147 45.4416 41.5753M32.6817 20.6589C32.6817 20.6589 19.4036 15.2319 20.0209 27.5733C20.1522 30.1988 23.7842 47.4397 28.116 42.2321C29.699 40.3277 31.1306 38.834 31.1306 38.834M39.8539 19.6684C39.3943 19.8125 47.24 16.8003 51.6988 22.4977C53.2738 24.5105 51.4487 32.7341 47.0827 39.2129" stroke="white" stroke-width="1.02471" stroke-linecap="round" stroke-linejoin="round"/>
<path d="M47.0824 39.2128C47.0824 39.2128 47.3669 40.6132 51.5022 39.7597C53.314 39.3855 52.2236 40.8098 50.3861 41.6632C48.878 42.3631 45.4969 42.5425 45.4416 41.5753C45.2995 39.0799 47.2211 39.838 47.0824 39.2128ZM47.0824 39.2128C46.957 38.6496 46.0977 38.097 45.5293 36.7188C45.033 35.5158 38.7229 26.2909 47.2792 27.661C47.5927 27.5961 45.0476 19.5223 37.0401 19.391C29.0344 19.2597 29.297 29.2363 29.297 29.2363" stroke="white" stroke-width="1.02471" stroke-linecap="round" stroke-linejoin="bevel"/>
<path d="M33.956 40.0662C32.8399 41.3129 33.1681 41.5319 30.9371 41.9912C28.6798 42.4565 30.0061 43.2846 30.8716 43.5009C31.9212 43.7636 34.3495 44.1354 35.9903 41.838C36.49 41.1385 35.9874 40.0223 35.301 39.7378C34.9694 39.6005 34.526 39.4283 33.956 40.0662Z" stroke="white" stroke-width="1.02471" stroke-linecap="round" stroke-linejoin="round"/>
<path d="M33.883 40.0444C33.7705 39.3113 34.1238 38.439 34.5025 37.4185C35.0715 35.8873 36.3845 34.3559 35.3342 29.4988C34.5513 25.8793 29.3005 28.7455 29.2972 29.2363C29.294 29.7269 29.5347 31.7239 29.2095 34.0493C28.7852 37.0838 31.1404 39.6503 33.8525 39.3877" stroke="white" stroke-width="1.02471" stroke-linecap="round" stroke-linejoin="round"/>
<path d="M32.6335 29.1627C32.6098 29.3304 32.9404 29.7776 33.3714 29.8374C33.8017 29.8974 34.17 29.5479 34.1933 29.3804C34.2167 29.2128 33.8865 29.0281 33.4553 28.9681C33.0248 28.9081 32.6564 28.9955 32.6336 29.1627H32.6335Z" fill="white" stroke="white" stroke-width="0.34157"/>
<path d="M45.7391 28.821C45.7624 28.9887 45.4323 29.4359 45.0012 29.4957C44.5706 29.5557 44.2023 29.2061 44.1787 29.0387C44.156 28.8711 44.4862 28.6864 44.9169 28.6264C45.3475 28.5664 45.7157 28.6538 45.7391 28.8211V28.821Z" fill="white" stroke="white" stroke-width="0.170826"/>
<path d="M47.2793 27.661C47.3503 28.9758 46.9961 29.8714 46.9515 31.271C46.8854 33.3055 47.9215 35.6341 46.3604 37.9655" stroke="white" stroke-width="1.02471" stroke-linecap="round" stroke-linejoin="round"/>
</svg>
