<svg width="73" height="72" viewBox="0 0 73 72" fill="none" xmlns="http://www.w3.org/2000/svg">
<rect x="0.452881" width="72" height="72" rx="36" fill="#141617"/>
<g clip-path="url(#clip0_5568_48751)">
<path d="M28.1595 19.85C29.4112 20.274 30.6018 20.8601 31.7012 21.5934C33.2538 21.1965 34.8503 20.9972 36.4529 21C38.1079 21 39.7045 21.2067 41.2012 21.5917C42.3002 20.8591 43.4903 20.2736 44.7412 19.85C45.9029 19.455 47.5579 18.815 48.5412 19.9034C49.2079 20.6434 49.3745 21.8834 49.4929 22.83C49.6262 23.8867 49.6579 25.2634 49.3079 26.63C50.6462 28.3584 51.4529 30.42 51.4529 32.6667C51.4529 36.07 49.6095 39.025 46.8812 41.0717C45.5682 42.0442 44.1119 42.8067 42.5645 43.3317C42.9212 44.1484 43.1195 45.0517 43.1195 46V51C43.1195 51.442 42.9439 51.866 42.6314 52.1785C42.3188 52.4911 41.8949 52.6667 41.4529 52.6667H31.4529C31.0108 52.6667 30.5869 52.4911 30.2744 52.1785C29.9618 51.866 29.7862 51.442 29.7862 51V49.3484C28.1945 49.5434 26.8595 49.37 25.7245 48.8884C24.5379 48.385 23.7112 47.605 23.0895 46.8584C22.4995 46.1517 21.8562 44.5584 20.9262 44.2484C20.7185 44.1792 20.5265 44.0698 20.361 43.9264C20.1956 43.783 20.06 43.6085 19.9621 43.4127C19.7642 43.0173 19.7315 42.5595 19.8712 42.14C20.0109 41.7205 20.3115 41.3737 20.7069 41.1759C21.1023 40.978 21.5601 40.9453 21.9795 41.085C23.0895 41.455 23.8129 42.255 24.3079 42.8984C25.1079 43.9317 25.7579 45.2817 27.0245 45.82C27.5462 46.0417 28.3112 46.1867 29.5079 46.0234L29.7862 45.9667C29.7894 45.0597 29.9783 44.1629 30.3412 43.3317C28.7939 42.8067 27.3376 42.0443 26.0245 41.0717C23.2962 39.025 21.4529 36.0717 21.4529 32.6667C21.4529 30.4234 22.2579 28.3634 23.5929 26.6367C23.2429 25.27 23.2729 23.89 23.4062 22.8317L23.4145 22.7684C23.5362 21.7984 23.6779 20.6567 24.3579 19.9034C25.3412 18.815 26.9979 19.4567 28.1579 19.8517L28.1595 19.85Z" fill="white"/>
</g>
<defs>
<clipPath id="clip0_5568_48751">
<rect width="40" height="40" fill="white" transform="translate(16.4529 16)"/>
</clipPath>
</defs>
</svg>
