<svg width="72" height="72" viewBox="0 0 72 72" fill="none" xmlns="http://www.w3.org/2000/svg">
<path d="M26 32.7816C27.3333 27.5709 30.6667 24.9655 36 24.9655C44 24.9655 45 30.8276 49 31.8046C51.6667 32.4559 54 31.4789 56 28.8736C54.6667 34.0843 51.3333 36.6897 46 36.6897C38 36.6897 37 30.8276 33 29.8506C30.3333 29.1992 28 30.1762 26 32.7816ZM16 44.5057C17.3333 39.295 20.6667 36.6897 26 36.6897C34 36.6897 35 42.5517 39 43.5287C41.6667 44.1801 44 43.2031 46 40.5977C44.6667 45.8084 41.3333 48.4138 36 48.4138C28 48.4138 27 42.5517 23 41.5747C20.3333 40.9234 18 41.9004 16 44.5057Z" fill="#3EBFF8"/>
</svg>
