<svg width="73" height="72" viewBox="0 0 73 72" fill="none" xmlns="http://www.w3.org/2000/svg">
<rect x="0.452881" width="72" height="72" rx="36" fill="#141617"/>
<g clip-path="url(#clip0_5568_48764)">
<path d="M28.4529 28L29.5329 27.2187C29.3677 26.9905 29.1344 26.8205 28.8666 26.7331C28.5988 26.6456 28.3102 26.6453 28.0422 26.7321C27.7742 26.8188 27.5405 26.9883 27.3748 27.2161C27.209 27.4438 27.1197 27.7183 27.1195 28H28.4529ZM36.4529 53.3333C31.8558 53.3333 27.447 51.5071 24.1964 48.2565C20.9457 45.0059 19.1195 40.5971 19.1195 36H16.4529C16.4529 41.3043 18.56 46.3914 22.3107 50.1421C26.0615 53.8929 31.1486 56 36.4529 56V53.3333ZM53.7862 36C53.7862 38.2762 53.3379 40.5302 52.4668 42.6332C51.5957 44.7362 50.319 46.647 48.7094 48.2565C47.0999 49.8661 45.189 51.1428 43.0861 52.0139C40.9831 52.885 38.7291 53.3333 36.4529 53.3333V56C41.7572 56 46.8443 53.8929 50.595 50.1421C54.3457 46.3914 56.4529 41.3043 56.4529 36H53.7862ZM36.4529 18.6667C38.7291 18.6667 40.9831 19.115 43.0861 19.9861C45.189 20.8572 47.0999 22.1339 48.7094 23.7435C50.319 25.353 51.5957 27.2638 52.4668 29.3668C53.3379 31.4698 53.7862 33.7238 53.7862 36H56.4529C56.4529 30.6957 54.3457 25.6086 50.595 21.8579C46.8443 18.1071 41.7572 16 36.4529 16V18.6667ZM36.4529 16C31.1486 16 26.0615 18.1071 22.3107 21.8579C18.56 25.6086 16.4529 30.6957 16.4529 36H19.1195C19.1195 31.4029 20.9457 26.9941 24.1964 23.7435C27.447 20.4929 31.8558 18.6667 36.4529 18.6667V16ZM29.7862 48V28H27.1195V48H29.7862ZM27.3729 28.7813L44.7062 52.7813L46.8662 51.2187L29.5329 27.2187L27.3729 28.7813ZM43.1195 26.6667V42.6667H45.7862V26.6667H43.1195Z" fill="white"/>
</g>
<defs>
<clipPath id="clip0_5568_48764">
<rect width="40" height="40" fill="white" transform="translate(16.4529 16)"/>
</clipPath>
</defs>
</svg>
