<svg width="73" height="72" viewBox="0 0 73 72" fill="none" xmlns="http://www.w3.org/2000/svg">
<g clip-path="url(#clip0_7508_6937)">
<path d="M72.4277 36.0073C72.4277 16.1251 56.31 0.00732422 36.4277 0.00732422C16.5455 0.00732422 0.427734 16.1251 0.427734 36.0073C0.427734 55.8896 16.5455 72.0073 36.4277 72.0073C56.31 72.0073 72.4277 55.8896 72.4277 36.0073Z" fill="#141414"/>
<mask id="mask0_7508_6937" style="mask-type:luminance" maskUnits="userSpaceOnUse" x="16" y="16" width="41" height="41">
<path d="M56.4277 16.0073H16.4277V56.0073H56.4277V16.0073Z" fill="white"/>
</mask>
<g mask="url(#mask0_7508_6937)">
<path d="M36.4286 16.0073C25.4 16.0073 16.4282 24.9786 16.4282 36.0065C16.4282 47.0352 25.4004 56.0073 36.4282 56.0073C47.4557 56.0073 56.427 47.0352 56.427 36.0065C56.4274 24.9791 47.4561 16.0073 36.4286 16.0073ZM18.4465 36.0065C18.4465 33.4001 19.0055 30.9246 20.0035 28.689L28.5812 52.1902C22.5833 49.275 18.4465 43.1241 18.4465 36.0065ZM36.4286 53.9895C34.6635 53.9895 32.9598 53.7305 31.3488 53.2567L36.7437 37.5796L42.2719 52.7222C42.3077 52.8116 42.3513 52.893 42.4 52.9699C40.5309 53.6274 38.5226 53.9895 36.4286 53.9895ZM38.9062 27.5759C39.9885 27.519 40.9648 27.4047 40.9648 27.4047C41.9332 27.29 41.8197 25.8664 40.8497 25.9234C40.8497 25.9234 37.9374 26.1515 36.0567 26.1515C34.2902 26.1515 31.3202 25.9234 31.3202 25.9234C30.3509 25.8664 30.2379 27.3477 31.2067 27.4047C31.2067 27.4047 32.1244 27.519 33.0924 27.5759L35.8937 35.2521L31.9586 47.0539L25.4116 27.5763C26.4956 27.5198 27.4698 27.4051 27.4698 27.4051C28.4382 27.2908 28.3239 25.8664 27.3542 25.9246C27.3542 25.9246 24.4432 26.1528 22.5621 26.1528C22.2241 26.1528 21.8264 26.1441 21.4049 26.1312C24.6194 21.2488 30.1468 18.0256 36.4286 18.0256C41.1107 18.0256 45.3725 19.8153 48.5712 22.7459C48.4935 22.7417 48.4182 22.7313 48.3376 22.7313C46.572 22.7313 45.3185 24.27 45.3185 25.923C45.3185 27.4042 46.1726 28.6586 47.0841 30.1399C47.7686 31.3377 48.5666 32.8768 48.5666 35.0992C48.5666 36.6387 47.9756 38.4242 47.198 40.9121L45.4045 46.9059L38.9062 27.5759ZM45.4681 51.5501L50.9606 35.6698C51.9877 33.105 52.3281 31.0539 52.3281 29.2289C52.3281 28.5676 52.2848 27.9529 52.2067 27.3797C53.6115 29.9412 54.4108 32.881 54.4099 36.0073C54.4095 42.6407 50.8135 48.4329 45.4681 51.5501Z" fill="white"/>
</g>
</g>
<defs>
<clipPath id="clip0_7508_6937">
<rect width="73" height="72" fill="white"/>
</clipPath>
</defs>
</svg>
