<svg width="73" height="72" viewBox="0 0 73 72" fill="none" xmlns="http://www.w3.org/2000/svg">
<rect x="0.46582" width="72" height="72" rx="36" fill="#EFD81D"/>
<path d="M18.466 43.4087L22.6451 40.9341C23.4515 42.3328 24.1849 43.5162 25.9442 43.5162C27.6306 43.5162 28.694 42.8708 28.694 40.3603V23.2872H33.826V40.4313C33.826 45.632 30.7102 47.9994 26.1642 47.9994C22.0587 47.9994 19.6756 45.919 18.4658 43.4083M36.6135 42.8706L40.7922 40.5035C41.8923 42.2612 43.322 43.5523 45.8513 43.5523C47.9779 43.5523 49.3338 42.512 49.3338 41.0773C49.3338 39.3557 47.9408 38.7459 45.5946 37.7419L44.3119 37.2034C40.6092 35.6616 38.1531 33.7246 38.1531 29.6357C38.1531 25.8695 41.0857 23 45.6682 23C48.9308 23 51.277 24.1121 52.9631 27.0173L48.9671 29.5282C48.0871 27.986 47.1344 27.3763 45.668 27.3763C44.1649 27.3763 43.2118 28.3089 43.2118 29.5282C43.2118 31.0346 44.1649 31.6447 46.3643 32.5773L47.6472 33.1151C52.0098 34.9446 54.4658 36.8095 54.4658 41.0057C54.4658 45.5254 50.8367 48 45.9611 48C41.1956 48 38.1162 45.7763 36.6133 42.8708" fill="black"/>
</svg>
