<svg width="73" height="72" viewBox="0 0 73 72" fill="none" xmlns="http://www.w3.org/2000/svg">
<rect x="0.44043" width="72" height="72" rx="36" fill="#55AD47"/>
<path d="M45.0729 31.8662C42.9704 22.595 38.0029 19.555 37.4692 18.39C36.8829 17.5637 36.2517 16.0012 36.2517 16.0012C36.2454 16.0337 36.2454 16.0537 36.2392 16.0862V16.1062C36.2392 16.1325 36.2329 16.145 36.2329 16.1712V16.1975H36.2267V16.2812H36.2204C36.2204 16.2937 36.2204 16.3137 36.2142 16.32V16.3587C36.2142 16.3712 36.2142 16.385 36.2079 16.3912V16.4237C36.2079 16.4437 36.2079 16.4625 36.2017 16.4762V16.4825C36.2006 16.5112 36.1964 16.5397 36.1892 16.5675V16.58C36.1829 16.5862 36.1829 16.5925 36.1829 16.6V16.6262H36.1767V16.665H36.1704V16.6912H36.1579V16.73H36.1517V16.7625H36.1454V16.7887H36.1392V16.815H36.1329V16.8412H36.1267V16.8675H36.1204V16.8875H36.1142V16.9137H36.1079V16.94H36.1017C36.0954 16.94 36.0954 16.9462 36.0954 16.9462V16.9587L36.0892 16.9712C36.0892 16.9837 36.0829 16.9975 36.0767 17.01C36.0704 17.0162 36.0704 17.0162 36.0704 17.0225V17.035H36.0642V17.0475H36.0517V17.08H36.0392V17.1H36.0329V17.1062H36.0267V17.1187H36.0204V17.1387H36.0142V17.1512H36.0017V17.1712H35.9954V17.1837H35.9892V17.1962H35.9829V17.2162H35.9767V17.2287H35.9704V17.235H35.9642V17.2475H35.9517V17.2675H35.9454V17.2737H35.9392V17.2862H35.9329V17.3062H35.9267V17.3125H35.9204V17.325H35.9142V17.3312H35.9079V17.3512H35.8954V17.3575H35.8892V17.37H35.8829V17.3762H35.8767V17.3887H35.8704V17.4012C35.8642 17.4012 35.8642 17.4075 35.8642 17.4075V17.4137H35.8579L35.8379 17.4462C35.8379 17.4462 35.8254 17.4587 35.8254 17.4662C35.8192 17.4662 35.8192 17.4725 35.8192 17.4725V17.4787H35.8129V17.485H35.8067V17.4975H35.7942V17.5037H35.7879V17.51H35.7817V17.5287H35.7754V17.535H35.7692V17.5412H35.7629V17.5537H35.7567V17.5412H35.7442V17.5475H35.7379V17.56H35.7317V17.5725H35.7254V17.5787H35.7192V17.585H35.7129V17.5912H35.7067V17.6037H35.6942V17.61H35.6879V17.6225H35.6817V17.6287H35.6754V17.635H35.6692V17.655H35.6629V17.6612H35.6567V17.6675H35.6504V17.6737H35.6442V17.68H35.6317V17.6925H35.6254V17.6987H35.6192V17.705H35.6129V17.7175H35.6067V17.7237H35.5942V17.73H35.5879V17.7362H35.5817V17.7487H35.5754V17.7612H35.5692V17.7675H35.5629V17.7737H35.5504V17.78H35.5442V17.7862H35.5379V17.7987H35.5317V17.805H35.5254V17.8175H35.5192V17.8237H35.5129V17.83H35.5067V17.8362H35.5004V17.8425H35.4879V17.8487C35.4817 17.8487 35.4817 17.855 35.4817 17.855L35.4754 17.8612L35.4692 17.8675V17.88H35.4629V17.8862H35.4567V17.8925H35.4504V17.8987H35.4442L35.4317 17.9112V17.9175C35.4192 17.9237 35.4192 17.93 35.4054 17.9437C35.4054 17.9437 35.3929 17.9562 35.3854 17.9562C35.3654 17.9687 35.3404 17.995 35.3204 18.015C35.3079 18.0212 35.2942 18.035 35.2817 18.0412C35.2554 18.0675 35.2292 18.0862 35.2029 18.1062C35.1642 18.145 35.1242 18.1712 35.0792 18.21H35.0729L34.7667 18.4775H34.7604C34.4804 18.725 34.1479 19.0437 33.7704 19.4212L33.7379 19.4537C31.4717 21.7975 27.8979 26.6862 27.5267 34.5837C27.4879 35.235 27.4942 35.8725 27.5329 36.4912V36.5037C27.7154 39.6162 28.6917 42.2725 29.9154 44.4337C30.3967 45.2937 30.9242 46.075 31.4579 46.7775C33.2942 49.2 35.1692 50.6387 35.6442 50.99C36.3804 52.6887 36.3142 55.6187 36.3142 55.6187L37.3879 55.9762C37.3879 55.9762 37.1667 53.1437 37.4729 51.77C37.5704 51.3462 37.7917 50.9825 38.0529 50.67C38.2354 50.5462 38.7567 50.1687 39.3817 49.5962C39.4142 49.5637 39.4342 49.5375 39.4604 49.505C41.9929 47.1412 46.7267 41.3212 45.1054 31.8425L45.0729 31.8662Z" fill="white"/>
</svg>
