<svg width="72" height="72" viewBox="0 0 72 72" fill="none" xmlns="http://www.w3.org/2000/svg">
<rect width="72" height="72" rx="36" fill="white"/>
<path d="M45.0212 44.1677C45.2541 42.2276 45.1843 41.943 46.6294 42.2573L46.9963 42.2895C48.1075 42.3401 49.5611 42.1108 50.415 41.7141C52.2533 40.8611 53.3434 39.4369 51.5307 39.8111C47.396 40.6641 47.1117 39.264 47.1117 39.264C51.4778 32.7859 53.303 24.5625 51.7275 22.5496C47.4306 17.059 39.9927 19.6555 39.8682 19.7229L39.8286 19.7303C39.0116 19.5607 38.0973 19.4594 37.0702 19.4428C35.1991 19.412 33.7793 19.9333 32.7023 20.7502C32.7023 20.7502 19.4334 15.2836 20.0507 27.625C20.182 30.2504 23.8139 47.4907 28.1457 42.2833C29.7289 40.3792 31.2589 38.7692 31.2589 38.7692C32.0187 39.2739 32.9283 39.5314 33.8823 39.4389L33.956 39.376C33.9329 39.6124 33.9431 39.8438 33.9856 40.1175C32.8698 41.3643 33.1977 41.5833 30.9667 42.0424C28.7095 42.5077 30.0356 43.3358 30.9011 43.5523C31.9508 43.8148 34.3789 44.1866 36.02 41.8897L35.9547 42.1518C36.3924 42.502 36.3628 44.669 36.4249 46.2171C36.487 47.7654 36.5907 49.2103 36.9063 50.062C37.2219 50.9137 37.5943 53.1078 40.5263 52.4794C42.9769 51.9542 44.8504 51.1984 45.0212 44.1677Z" fill="black" stroke="black" stroke-width="3.07413"/>
<path d="M51.5311 39.811C47.3959 40.664 47.1116 39.2639 47.1116 39.2639C51.4777 32.7853 53.3029 24.5618 51.7278 22.5491C47.4308 17.0589 39.9926 19.6554 39.8684 19.7228L39.8285 19.73C39.0115 19.5604 38.0972 19.4594 37.0696 19.4426C35.1985 19.4119 33.7792 19.9331 32.7022 20.7498C32.7022 20.7498 19.4331 15.2835 20.0502 27.6248C20.1815 30.2503 23.8133 47.4907 28.1452 42.2833C29.7285 40.3791 31.2583 38.7691 31.2583 38.7691C32.0182 39.2739 32.9278 39.5313 33.8814 39.4388L33.9555 39.376C33.9324 39.6124 33.943 39.8437 33.9851 40.1175C32.8692 41.3642 33.1971 41.5832 30.9662 42.0423C28.7089 42.5076 30.035 43.3358 30.9008 43.5522C31.9504 43.8147 34.3787 44.1865 36.0195 41.8897L35.9541 42.1518C36.3913 42.502 36.6984 44.4298 36.6469 46.1774C36.5955 47.925 36.5611 49.1248 36.9056 50.062C37.2501 50.9991 37.5935 53.1077 40.5262 52.4793C42.9767 51.9542 44.2465 50.5933 44.4232 48.3234C44.5486 46.7096 44.8323 46.9481 44.8502 45.5053L45.0777 44.8223C45.3401 42.6347 45.1194 41.9289 46.6291 42.2571L46.996 42.2894C48.1072 42.3399 49.5615 42.1107 50.4151 41.7139C52.2531 40.8609 53.3431 39.4368 51.5309 39.811H51.5311Z" fill="#336791"/>
<path d="M36.1971 41.065C36.0832 45.1355 36.2257 49.2345 36.624 50.2306C37.0225 51.2268 37.8754 53.1644 40.8083 52.5361C43.2586 52.0108 44.1501 50.9943 44.537 48.7505C44.8219 47.0995 45.3712 42.5147 45.4416 41.5753M32.6817 20.6589C32.6817 20.6589 19.4036 15.2319 20.0209 27.5733C20.1522 30.1988 23.7842 47.4397 28.116 42.2321C29.699 40.3277 31.1306 38.834 31.1306 38.834M39.8539 19.6684C39.3943 19.8125 47.24 16.8003 51.6988 22.4977C53.2738 24.5105 51.4487 32.7341 47.0827 39.2129" stroke="white" stroke-width="1.02471" stroke-linecap="round" stroke-linejoin="round"/>
<path d="M47.0825 39.2128C47.0825 39.2128 47.367 40.6133 51.5022 39.7597C53.3141 39.3855 52.2237 40.8098 50.3861 41.6632C48.878 42.3631 45.4969 42.5425 45.4417 41.5753C45.2996 39.0799 47.2212 39.8381 47.0825 39.2128ZM47.0825 39.2128C46.9571 38.6497 46.0978 38.097 45.5293 36.7188C45.0331 35.5159 38.7229 26.2909 47.2793 27.661C47.5927 27.5961 45.0477 19.5223 37.0402 19.3911C29.0344 19.2598 29.2971 29.2363 29.2971 29.2363" stroke="white" stroke-width="1.02471" stroke-linecap="round" stroke-linejoin="bevel"/>
<path d="M33.956 40.0662C32.8399 41.3129 33.1681 41.5319 30.9371 41.9912C28.6798 42.4565 30.0061 43.2846 30.8716 43.501C31.9212 43.7636 34.3495 44.1354 35.9903 41.838C36.49 41.1385 35.9874 40.0224 35.301 39.7378C34.9694 39.6006 34.526 39.4283 33.956 40.0662Z" stroke="white" stroke-width="1.02471" stroke-linecap="round" stroke-linejoin="round"/>
<path d="M33.883 40.0445C33.7705 39.3113 34.1238 38.439 34.5025 37.4185C35.0715 35.8873 36.3845 34.3559 35.3342 29.4988C34.5513 25.8793 29.3005 28.7455 29.2972 29.2363C29.294 29.7269 29.5347 31.7239 29.2095 34.0494C28.7852 37.0839 31.1404 39.6503 33.8525 39.3877" stroke="white" stroke-width="1.02471" stroke-linecap="round" stroke-linejoin="round"/>
<path d="M32.6335 29.1627C32.6098 29.3304 32.9403 29.7776 33.3713 29.8374C33.8016 29.8974 34.1699 29.5479 34.1933 29.3804C34.2166 29.2128 33.8865 29.0282 33.4553 28.9682C33.0248 28.9081 32.6563 28.9955 32.6335 29.1627H32.6335Z" fill="white" stroke="white" stroke-width="0.34157"/>
<path d="M45.7392 28.821C45.7625 28.9887 45.4324 29.4359 45.0013 29.4957C44.5707 29.5557 44.2024 29.2061 44.1788 29.0387C44.156 28.8711 44.4862 28.6864 44.9169 28.6264C45.3476 28.5664 45.7158 28.6538 45.7392 28.8211V28.821Z" fill="white" stroke="white" stroke-width="0.170826"/>
<path d="M47.2793 27.661C47.3503 28.9758 46.9961 29.8714 46.9515 31.271C46.8854 33.3055 47.9215 35.6341 46.3604 37.9656" stroke="white" stroke-width="1.02471" stroke-linecap="round" stroke-linejoin="round"/>
</svg>
