<svg width="72" height="72" viewBox="0 0 72 72" fill="none" xmlns="http://www.w3.org/2000/svg">
<g clip-path="url(#clip0_13330_2150)">
<path d="M66.4998 18.4274V53.5905L36.0447 71.1735L5.60132 53.5905V18.4274L36.0447 0.844421L66.4998 18.4274Z" fill="white" stroke="white"/>
<path d="M65.3352 52.9133L36.0444 69.8293L6.76587 52.9133V19.1059L36.0444 2.18994L65.3352 19.1059V52.9133Z" fill="url(#paint0_linear_13330_2150)"/>
<path d="M28.3332 21.7376C28.1006 21.8477 27.8681 21.8967 27.6233 21.8967C27.1826 21.8967 26.8521 21.7743 26.6196 21.5173C26.387 21.2602 26.2769 20.893 26.2769 20.4034C26.2769 19.9138 26.387 19.5466 26.6196 19.2895C26.8521 19.0325 27.1826 18.9101 27.6233 18.9101C28.0639 18.9101 28.0762 18.9591 28.2842 19.0447V19.314C28.0762 19.2406 27.8558 19.2161 27.6355 19.2161C27.2806 19.2161 27.0113 19.3018 26.8521 19.4854C26.693 19.669 26.6073 19.9628 26.6073 20.3667V20.4401C26.6073 20.8318 26.693 21.1256 26.8521 21.3092C27.0113 21.4928 27.2683 21.5907 27.6233 21.5907C27.9782 21.5907 28.0639 21.554 28.321 21.4683V21.7376H28.3332Z" fill="white"/>
<path d="M29.0678 20.4646C29.0678 20.8563 29.1535 21.1501 29.3248 21.3459C29.4962 21.5295 29.7532 21.6274 30.1082 21.6274C30.4632 21.6274 30.7447 21.5662 31.0507 21.4316V21.7009C30.7814 21.8477 30.4632 21.9334 30.096 21.9334C29.7288 21.9334 29.3126 21.811 29.08 21.554C28.8475 21.2969 28.7373 20.9175 28.7373 20.4156C28.7373 19.9138 28.8475 19.5711 29.08 19.3018C29.3126 19.0447 29.6308 18.9101 30.047 18.9101C30.4632 18.9101 30.659 19.008 30.8426 19.2039C31.0262 19.3997 31.1119 19.6812 31.1119 20.0484C31.1119 20.4156 31.1119 20.3667 31.0752 20.4768H29.0678V20.4646ZM30.0103 19.1916C29.4105 19.1916 29.0923 19.5343 29.0678 20.2076H30.7937C30.7937 20.1586 30.7937 20.0974 30.7937 20.024C30.7937 19.7547 30.7325 19.5466 30.5978 19.3997C30.4632 19.2651 30.2673 19.1916 30.0103 19.1916Z" fill="white"/>
<path d="M31.8218 21.8354V18.9835H32.1033L32.14 19.3996C32.2869 19.2405 32.4215 19.1303 32.5684 19.0569C32.7031 18.9957 32.8622 18.959 33.0336 18.959C33.2049 18.959 33.1804 18.959 33.2661 18.9712V19.265C33.1682 19.265 33.0825 19.265 32.9968 19.265C32.8255 19.265 32.6664 19.3017 32.5317 19.3629C32.3971 19.4241 32.2624 19.5343 32.14 19.6812V21.8599H31.8218V21.8354Z" fill="white"/>
<path d="M35.3467 21.7743C35.1876 21.8355 34.9917 21.8722 34.7714 21.8722C34.5511 21.8722 34.3797 21.811 34.2573 21.6886C34.1349 21.5662 34.0859 21.3948 34.0859 21.1745V19.265H33.5474V19.0325L34.0982 18.9835L34.1471 18.1512H34.4164V18.9835H35.3222V19.265H34.4164V21.15C34.4164 21.3092 34.4531 21.4193 34.5143 21.4805C34.5755 21.5417 34.6857 21.5784 34.8448 21.5784C35.0039 21.5784 35.1631 21.554 35.3467 21.505V21.762V21.7743Z" fill="white"/>
<path d="M36.1301 18.3715C36.0566 18.3715 35.9954 18.347 35.9465 18.2981C35.8975 18.2491 35.8853 18.1879 35.8853 18.1145C35.8853 18.041 35.9097 17.9798 35.9465 17.9309C35.9954 17.8819 36.0444 17.8574 36.1301 17.8574C36.2157 17.8574 36.2647 17.8819 36.3137 17.9309C36.3626 17.9798 36.3749 18.041 36.3749 18.1145C36.3749 18.1879 36.3504 18.2491 36.3137 18.2981C36.2647 18.347 36.2157 18.3715 36.1301 18.3715ZM35.9709 18.9835H36.2892V21.8355H35.9709V18.9835Z" fill="white"/>
<path d="M37.44 21.8355V19.265H36.8892V19.0325L37.44 18.9835V18.3348C37.44 18.0777 37.5012 17.8941 37.6358 17.7595C37.7705 17.6249 37.9541 17.5637 38.1989 17.5637C38.4437 17.5637 38.3825 17.5637 38.4804 17.5881C38.5783 17.6004 38.664 17.6249 38.7252 17.6493V17.9186C38.5416 17.8819 38.3702 17.8574 38.2356 17.8574C38.1009 17.8574 37.9418 17.8941 37.8684 17.9676C37.7949 18.041 37.7582 18.1512 37.7582 18.3103V18.9958H39.6065V21.8477H39.2882V19.2773H37.7582V21.8477H37.44V21.8355ZM39.4474 18.3715C39.3739 18.3715 39.3127 18.347 39.2638 18.2981C39.2148 18.2491 39.2026 18.1879 39.2026 18.1145C39.2026 18.041 39.227 17.9798 39.2638 17.9309C39.3127 17.8819 39.3617 17.8574 39.4474 17.8574C39.533 17.8574 39.582 17.8819 39.631 17.9309C39.6799 17.9798 39.6922 18.041 39.6922 18.1145C39.6922 18.1879 39.6677 18.2491 39.631 18.2981C39.582 18.347 39.533 18.3715 39.4474 18.3715Z" fill="white"/>
<path d="M40.6957 20.4646C40.6957 20.8563 40.7814 21.1501 40.9528 21.3459C41.1241 21.5295 41.3812 21.6274 41.7361 21.6274C42.0911 21.6274 42.3726 21.5662 42.6786 21.4316V21.7009C42.4093 21.8477 42.0911 21.9334 41.7239 21.9334C41.3567 21.9334 40.9405 21.811 40.708 21.554C40.4754 21.2969 40.3652 20.9175 40.3652 20.4156C40.3652 19.9138 40.4754 19.5711 40.708 19.3018C40.9405 19.0447 41.2588 18.9101 41.6749 18.9101C42.0911 18.9101 42.2869 19.008 42.4705 19.2039C42.6541 19.3997 42.7398 19.6812 42.7398 20.0484C42.7398 20.4156 42.7398 20.3667 42.7031 20.4768H40.6957V20.4646ZM41.6505 19.1916C41.0507 19.1916 40.7324 19.5343 40.708 20.2076H42.4338C42.4338 20.1586 42.4338 20.0974 42.4338 20.024C42.4338 19.7547 42.3726 19.5466 42.238 19.3997C42.1033 19.2651 41.9075 19.1916 41.6505 19.1916Z" fill="white"/>
<path d="M45.5185 21.8355L45.4818 21.5172C45.3471 21.6396 45.188 21.7253 45.0166 21.7988C44.8453 21.8722 44.6739 21.8967 44.5148 21.8967C44.1353 21.8967 43.8416 21.762 43.6213 21.505C43.4009 21.2479 43.2908 20.8807 43.2908 20.4278C43.2908 19.975 43.4009 19.5833 43.6213 19.314C43.8416 19.0447 44.1353 18.8978 44.5148 18.8978C44.8942 18.8978 45.188 19.0202 45.4695 19.2773V17.6371H45.7878V21.8355H45.494H45.5185ZM44.6005 21.6029C44.882 21.6029 45.1758 21.4805 45.494 21.2357V19.5588C45.3349 19.4242 45.188 19.3385 45.0411 19.2773C44.8942 19.2161 44.7351 19.1916 44.576 19.1916C44.27 19.1916 44.0374 19.2895 43.8905 19.4976C43.7314 19.7057 43.658 19.9994 43.658 20.4034C43.658 21.199 43.9762 21.6029 44.6127 21.6029" fill="white"/>
<path d="M43.3643 11.2477L40.9285 12.6675V15.4828L43.3643 16.8904L45.8123 15.4828V12.6675L43.3643 11.2477Z" fill="#F7981D"/>
<path d="M42.691 15.4828L41.8464 14.6382L42.2748 14.2098L42.691 14.626L44.3802 12.9368L44.8086 13.3652L42.691 15.4828Z" fill="white"/>
<path d="M36.7056 16.1193C36.8402 16.1927 37.0239 16.2539 37.2687 16.3151C37.5135 16.3763 37.7583 16.4008 38.0153 16.4008C38.2724 16.4008 38.4927 16.3641 38.713 16.3029C38.9211 16.2417 39.1047 16.156 39.2516 16.0336C39.3985 15.9112 39.5209 15.7766 39.6065 15.6052C39.6922 15.4339 39.7289 15.2502 39.7289 15.0422C39.7289 14.8341 39.6555 14.5648 39.5086 14.369C39.3617 14.1731 39.1047 14.014 38.7497 13.9038L38.052 13.6835C37.795 13.5978 37.6114 13.5121 37.5135 13.4142C37.4155 13.3163 37.3666 13.2061 37.3666 13.0715C37.3666 12.8756 37.44 12.7288 37.5991 12.6431C37.7583 12.5574 37.9663 12.5084 38.2479 12.5084C38.5294 12.5084 38.9088 12.5696 39.1904 12.692C39.276 12.7288 39.3372 12.7532 39.374 12.7532C39.4474 12.7532 39.4841 12.7043 39.4841 12.6064V12.3738C39.4841 12.3004 39.4719 12.2514 39.4474 12.2147C39.4229 12.178 39.374 12.1412 39.3005 12.0923C39.2516 12.0678 39.1781 12.0311 39.0924 12.0066C39.0068 11.9821 38.9088 11.9576 38.8109 11.9332C38.713 11.9087 38.6028 11.8964 38.4927 11.872C38.3825 11.8597 38.2724 11.8475 38.1622 11.8475C37.9419 11.8475 37.746 11.872 37.5502 11.9332C37.3543 11.9944 37.183 12.0678 37.0361 12.178C36.8892 12.2881 36.779 12.4228 36.6811 12.5819C36.5954 12.741 36.5465 12.9124 36.5465 13.1205C36.5465 13.3285 36.6322 13.6101 36.7913 13.8304C36.9504 14.0507 37.2197 14.2098 37.5747 14.32L38.2846 14.5403C38.5294 14.6138 38.6885 14.6994 38.7742 14.7974C38.8599 14.883 38.9088 15.0054 38.9088 15.1401C38.9088 15.3359 38.8232 15.4951 38.6518 15.593C38.4804 15.7031 38.2479 15.7521 37.9419 15.7521C37.6359 15.7521 37.5502 15.7276 37.3666 15.6909C37.1707 15.6542 36.9994 15.593 36.828 15.5195C36.779 15.4951 36.7301 15.4828 36.7056 15.4706C36.6689 15.4706 36.6444 15.4583 36.6199 15.4583C36.5465 15.4583 36.5098 15.5073 36.5098 15.6052V15.85C36.5098 15.899 36.5098 15.9357 36.5342 15.9847C36.5587 16.0336 36.6077 16.0703 36.6811 16.1193" fill="white"/>
<path d="M28.4433 13.7692C28.2597 13.7447 28.0884 13.7325 27.9292 13.7325C27.4274 13.7325 27.0235 13.8549 26.7297 14.1119C26.4359 14.369 26.2891 14.6994 26.2891 15.1034C26.2891 15.5073 26.4115 15.8011 26.644 16.0336C26.8888 16.2662 27.2071 16.3763 27.6232 16.3763C28.0394 16.3763 28.6759 16.156 29.0553 15.7031C29.1043 15.8133 29.1533 15.9112 29.2022 15.9847C29.2512 16.0703 29.3124 16.1438 29.3736 16.205C29.4226 16.2539 29.4715 16.2784 29.5205 16.2784C29.5694 16.2784 29.6062 16.2662 29.6429 16.2417L29.9489 16.0336C30.0101 15.9847 30.0468 15.9357 30.0468 15.8867C30.0468 15.8378 30.0468 15.8133 30.0101 15.7766C29.9366 15.6542 29.8877 15.5318 29.851 15.4338C29.8142 15.3237 29.7898 15.1768 29.7898 15.0054V13.4265C29.7898 12.9001 29.6551 12.4962 29.3858 12.2392C29.1165 11.9821 28.6881 11.8475 28.1129 11.8475C27.5376 11.8475 27.5865 11.8842 27.354 11.9454C27.1092 12.0066 26.9133 12.08 26.7419 12.1657C26.6685 12.2024 26.6318 12.2392 26.6073 12.2636C26.5828 12.3004 26.5706 12.3493 26.5706 12.435V12.6676C26.5706 12.7655 26.6073 12.8144 26.6685 12.8144C26.7297 12.8144 26.7052 12.8144 26.7419 12.8022C26.7787 12.8022 26.8276 12.7777 26.9133 12.741C27.0847 12.6676 27.256 12.6186 27.4396 12.5696C27.6232 12.5329 27.7946 12.5084 27.966 12.5084C28.3454 12.5084 28.6025 12.5819 28.7616 12.7288C28.9207 12.8757 28.9941 13.1327 28.9941 13.4999V13.8549C28.7983 13.8059 28.6147 13.7692 28.4311 13.7447M29.0064 14.6138C29.0064 14.7729 28.9941 14.9198 28.9574 15.0299C28.9207 15.1401 28.8717 15.2502 28.7861 15.3359C28.6514 15.4828 28.5045 15.5807 28.3209 15.6419C28.1496 15.7031 27.9782 15.7276 27.8191 15.7276C27.66 15.7276 27.4274 15.6664 27.305 15.5563C27.1826 15.4461 27.1214 15.2747 27.1214 15.0422C27.1214 14.8096 27.2071 14.6138 27.3662 14.4791C27.5253 14.3445 27.7701 14.2833 28.0884 14.2833C28.4066 14.2833 28.3944 14.2833 28.5413 14.3078C28.7004 14.3322 28.8473 14.3567 28.9941 14.3934V14.6015L29.0064 14.6138Z" fill="white"/>
<path d="M31.4545 16.0336C31.479 16.1315 31.5157 16.1927 31.5524 16.2294C31.5892 16.2662 31.6504 16.2784 31.736 16.2784H32.1522C32.2379 16.2784 32.3113 16.2662 32.3481 16.2294C32.3848 16.1927 32.4215 16.1315 32.446 16.0336L33.1926 12.9123L33.9515 16.0336C33.976 16.1315 34.0005 16.1927 34.0494 16.2294C34.0862 16.2662 34.1596 16.2784 34.2453 16.2784H34.6615C34.7471 16.2784 34.8083 16.2662 34.8451 16.2294C34.8818 16.1927 34.9185 16.1315 34.943 16.0336L36.118 12.2881C36.1303 12.2391 36.1425 12.2024 36.1548 12.1657C36.1548 12.1412 36.1548 12.1167 36.1548 12.0923C36.1548 12.0188 36.118 11.9698 36.0324 11.9698H35.5795C35.4938 11.9698 35.4203 11.9821 35.3836 12.0188C35.3469 12.0555 35.3102 12.1167 35.2857 12.2147L34.4411 15.4583L33.67 12.2147C33.6455 12.1167 33.621 12.0555 33.5721 12.0188C33.5354 11.9821 33.4619 11.9698 33.3762 11.9698H32.9845C32.8989 11.9698 32.8254 11.9821 32.7887 12.0188C32.752 12.0555 32.7153 12.1167 32.6908 12.2147L31.9319 15.4216L31.1118 12.2147C31.0873 12.1167 31.0506 12.0555 31.0139 12.0188C30.9772 11.9821 30.916 11.9698 30.818 11.9698H30.3407C30.255 11.9698 30.2183 12.0066 30.2183 12.0923C30.2183 12.1779 30.2305 12.1902 30.255 12.2881L31.4056 16.0336H31.4545Z" fill="white"/>
<path d="M14.012 51.8485V49.0087H15.9092V49.6085H14.7954V50.196H15.7011V50.7958H14.7954V51.824H13.9998L14.012 51.8485Z" fill="white"/>
<path d="M18.6633 51.9096C18.3695 51.9096 18.1125 51.8484 17.8922 51.726C17.6718 51.6036 17.5127 51.4322 17.4026 51.1997C17.2924 50.9794 17.2312 50.7101 17.2312 50.4163C17.2312 50.1225 17.2924 49.841 17.4026 49.6207C17.525 49.4004 17.6841 49.229 17.9044 49.1066C18.1247 48.9842 18.3695 48.9352 18.6633 48.9352C18.9571 48.9352 19.2141 48.9964 19.4344 49.1188C19.6548 49.2412 19.8139 49.4126 19.924 49.6329C20.0342 49.8533 20.0954 50.1225 20.0954 50.4285C20.0954 50.7345 20.0342 51.0038 19.924 51.2242C19.8016 51.4445 19.6425 51.6158 19.4222 51.7382C19.2019 51.8484 18.9571 51.9096 18.6633 51.9096ZM18.6633 51.2854C18.8714 51.2854 19.0305 51.2119 19.1284 51.065C19.2386 50.9182 19.2876 50.7101 19.2876 50.4285C19.2876 50.147 19.2386 49.9267 19.1284 49.7798C19.0183 49.6329 18.8714 49.5595 18.6633 49.5595C18.4552 49.5595 18.3083 49.6329 18.1982 49.7798C18.088 49.9267 18.0391 50.1348 18.0391 50.4163C18.0391 50.6978 18.088 50.9182 18.1982 51.065C18.3083 51.2119 18.4552 51.2854 18.6633 51.2854Z" fill="white"/>
<path d="M22.8618 51.9096C22.4701 51.9096 22.1641 51.8117 21.9438 51.6159C21.7234 51.42 21.6133 51.1507 21.6133 50.7958V48.9965H22.4089V50.8202C22.4089 50.9671 22.4456 51.0895 22.5191 51.163C22.5925 51.2364 22.7027 51.2854 22.8495 51.2854C23.1555 51.2854 23.3024 51.1385 23.3024 50.8325V49.0087H24.098V50.808C24.098 51.163 23.9879 51.4323 23.7676 51.6281C23.5472 51.8239 23.2412 51.9219 22.8495 51.9219L22.8618 51.9096Z" fill="white"/>
<path d="M26.3991 50.0614V51.8362H25.7136V48.9965H26.5337L27.5252 50.7835V48.9965H28.2106V51.8362H27.3905L26.3991 50.0614Z" fill="white"/>
<path d="M29.8386 51.8485V49.0087H30.9525C31.3931 49.0087 31.7236 49.1311 31.9684 49.3759C32.2132 49.6207 32.3234 49.9757 32.3234 50.4286C32.3234 50.8815 32.2744 50.9794 32.1643 51.1997C32.0541 51.42 31.9072 51.5792 31.7114 51.6893C31.5155 51.7995 31.283 51.8607 31.0014 51.8607H29.8386V51.8485ZM30.6342 49.6085V51.2364H30.9035C31.3197 51.2364 31.5155 50.9794 31.5155 50.4531V50.3796C31.5155 49.8655 31.3074 49.6085 30.9035 49.6085H30.622H30.6342Z" fill="white"/>
<path d="M35.5792 51.8485L35.42 51.2976H34.551L34.4041 51.8485H33.5718L34.5755 49.0087H35.4445L36.4482 51.8485H35.5792ZM34.7101 50.7346H35.2854L34.9916 49.6819L34.7101 50.7346Z" fill="white"/>
<path d="M38.3333 51.8484V49.6329H37.5132V49.0209H39.949V49.6329H39.1289V51.8484H38.3333Z" fill="white"/>
<path d="M41.332 51.8485V49.0087H42.1276V51.8485H41.332Z" fill="white"/>
<path d="M45.1145 51.9096C44.8207 51.9096 44.5637 51.8484 44.3433 51.726C44.123 51.6036 43.9639 51.4322 43.8537 51.1997C43.7436 50.9794 43.6824 50.7101 43.6824 50.4163C43.6824 50.1225 43.7436 49.841 43.8537 49.6207C43.9761 49.4004 44.1353 49.229 44.3556 49.1066C44.5759 48.9842 44.8207 48.9352 45.1145 48.9352C45.4082 48.9352 45.6653 48.9964 45.8856 49.1188C46.1059 49.2412 46.2651 49.4126 46.3752 49.6329C46.4854 49.8533 46.5466 50.1225 46.5466 50.4285C46.5466 50.7345 46.4854 51.0038 46.3752 51.2242C46.2528 51.4445 46.0937 51.6158 45.8734 51.7382C45.653 51.8484 45.4082 51.9096 45.1145 51.9096ZM45.1145 51.2854C45.3226 51.2854 45.4817 51.2119 45.5796 51.065C45.6898 50.9182 45.7387 50.7101 45.7387 50.4285C45.7387 50.147 45.6898 49.9267 45.5796 49.7798C45.4694 49.6329 45.3226 49.5595 45.1145 49.5595C44.9064 49.5595 44.7595 49.6329 44.6494 49.7798C44.5392 49.9267 44.4902 50.1348 44.4902 50.4163C44.4902 50.6978 44.5392 50.9182 44.6494 51.065C44.7595 51.2119 44.9064 51.2854 45.1145 51.2854Z" fill="white"/>
<path d="M48.7619 50.0614V51.8362H48.0764V48.9965H48.8965L49.888 50.7835V48.9965H50.5734V51.8362H49.7533L48.7619 50.0614Z" fill="white"/>
<path d="M53.9151 51.8485L53.756 51.2976H52.8869L52.74 51.8485H51.9077L52.9114 49.0087H53.7805L54.7842 51.8485H53.9151ZM53.0461 50.7346H53.6213L53.3276 49.6819L53.0461 50.7346Z" fill="white"/>
<path d="M56.1184 51.8485V49.0087H56.914V51.212H58.1013V51.8485H56.1306H56.1184Z" fill="white"/>
<path d="M53.805 45.1041H18.2839V45.3121H53.805V45.1041Z" fill="white"/>
<path d="M53.805 25.1403H18.2839V25.3484H53.805V25.1403Z" fill="white"/>
<path d="M17.1089 39.9387V41.5666H15.7625V36.5726H17.8066C18.3819 36.5726 18.8347 36.7195 19.1652 37.0255C19.4957 37.3315 19.6671 37.7354 19.6671 38.2618C19.6671 38.7881 19.4957 39.192 19.1652 39.498C18.8347 39.804 18.3819 39.9509 17.8066 39.9509H17.0966L17.1089 39.9387ZM17.1089 38.935H17.6107C17.831 38.935 18.0024 38.8738 18.1248 38.7514C18.2472 38.629 18.3084 38.4699 18.3084 38.2495C18.3084 38.0292 18.2472 37.8701 18.1248 37.7477C18.0024 37.6253 17.831 37.5641 17.6107 37.5641H17.1089V38.9227V38.935Z" fill="white"/>
<path d="M22.8617 39.0329C22.7026 39.0085 22.5434 38.9962 22.3843 38.9962C22.0783 38.9962 21.809 39.0329 21.5642 39.1186V41.5667H20.2056V37.8579H21.3072L21.4785 38.4209C21.8213 38.017 22.1885 37.8212 22.5802 37.8212C22.9718 37.8212 22.776 37.8212 22.8739 37.8456V39.0452L22.8617 39.0329Z" fill="white"/>
<path d="M25.3708 41.5666L25.2729 41.2729C25.126 41.4075 24.9669 41.5054 24.7833 41.5789C24.5997 41.6523 24.4161 41.689 24.2203 41.689C23.8653 41.689 23.5715 41.5911 23.3634 41.383C23.1431 41.1749 23.033 40.9057 23.033 40.5507C23.033 40.1957 23.0942 40.0856 23.2288 39.902C23.3634 39.7183 23.5348 39.5715 23.7674 39.4735C23.9877 39.3756 24.2447 39.3267 24.5385 39.3267C24.8323 39.3267 24.9669 39.3511 25.1872 39.3879V39.2043C25.1872 38.9962 25.1383 38.8615 25.0526 38.7881C24.9669 38.7147 24.7955 38.6779 24.5752 38.6779C24.2325 38.6779 23.8286 38.7514 23.339 38.8983V38.0659C23.5348 37.968 23.7796 37.8823 24.0489 37.8334C24.3304 37.7722 24.6119 37.7477 24.9057 37.7477C25.432 37.7477 25.8237 37.8578 26.0685 38.0659C26.3133 38.274 26.4357 38.6167 26.4357 39.0819V41.5666H25.3708ZM24.6609 40.8322C24.7466 40.8322 24.8445 40.8077 24.9424 40.771C25.0403 40.7343 25.1138 40.6731 25.175 40.6119V40.0733C25.0404 40.0488 24.9057 40.0488 24.7833 40.0488C24.4651 40.0488 24.3059 40.1835 24.3059 40.4528C24.3059 40.722 24.3427 40.6608 24.4039 40.722C24.4651 40.7832 24.5507 40.82 24.6731 40.82L24.6609 40.8322Z" fill="white"/>
<path d="M30.1203 41.3953C29.9734 41.4687 29.802 41.5299 29.6062 41.5789C29.4104 41.6278 29.2023 41.6401 28.9942 41.6401C28.3699 41.6401 27.9048 41.4809 27.5743 41.1505C27.2438 40.82 27.0847 40.3548 27.0847 39.7306C27.0847 39.1063 27.2561 38.629 27.5988 38.2862C27.9415 37.9435 28.4189 37.7722 29.0431 37.7722C29.6674 37.7722 29.8143 37.8456 30.108 38.0047V38.8615C29.8265 38.7759 29.5695 38.7269 29.3247 38.7269C29.0799 38.7269 28.8106 38.8003 28.6637 38.9472C28.5291 39.0941 28.4556 39.3267 28.4556 39.6449V39.7428C28.4556 40.0611 28.5291 40.2814 28.6637 40.4405C28.7983 40.5874 29.0187 40.6608 29.3002 40.6608C29.5817 40.6608 29.8388 40.6119 30.1203 40.5262V41.383V41.3953Z" fill="white"/>
<path d="M33.119 41.4688C32.8375 41.5789 32.507 41.6279 32.1398 41.6279C31.6869 41.6279 31.3442 41.5177 31.1361 41.3096C30.9158 41.1016 30.8056 40.7711 30.8056 40.3182V38.7759H30.2915V38.017L30.8423 37.8824L31.0626 36.8909H32.1643V37.8579H33.1067V38.7759H32.1643V40.2325C32.1643 40.3794 32.201 40.4773 32.2744 40.5385C32.3479 40.5997 32.4703 40.6242 32.6416 40.6242C32.813 40.6242 32.9354 40.6119 33.119 40.5752V41.4688Z" fill="white"/>
<path d="M34.3185 37.3805C34.0859 37.3805 33.9023 37.3193 33.7677 37.1969C33.633 37.0745 33.5596 36.9031 33.5596 36.695C33.5596 36.487 33.633 36.3278 33.7677 36.1932C33.9023 36.0708 34.0859 36.0096 34.3185 36.0096C34.551 36.0096 34.7346 36.0708 34.8693 36.1932C35.0039 36.3156 35.0774 36.487 35.0774 36.695C35.0774 36.9031 35.0039 37.0622 34.8693 37.1969C34.7346 37.3193 34.551 37.3805 34.3185 37.3805ZM33.633 41.5666V37.8579H34.9917V41.5666H33.633Z" fill="white"/>
<path d="M38.2354 41.4688C37.9539 41.5789 37.6234 41.6279 37.2562 41.6279C36.8033 41.6279 36.4606 41.5177 36.2525 41.3096C36.0322 41.1016 35.922 40.7711 35.922 40.3182V38.7759H35.408V38.017L35.9588 37.8824L36.1791 36.8909H37.2807V37.8579H38.2232V38.7759H37.2807V40.2325C37.2807 40.3794 37.3174 40.4773 37.3909 40.5385C37.4643 40.5997 37.5867 40.6242 37.7581 40.6242C37.9294 40.6242 38.0518 40.6119 38.2354 40.5752V41.4688Z" fill="white"/>
<path d="M39.4352 37.3805C39.2026 37.3805 39.019 37.3193 38.8844 37.1969C38.7497 37.0745 38.6763 36.9031 38.6763 36.695C38.6763 36.487 38.7497 36.3278 38.8844 36.1932C39.019 36.0708 39.2026 36.0096 39.4352 36.0096C39.6677 36.0096 39.8513 36.0708 39.986 36.1932C40.1206 36.3156 40.1941 36.487 40.1941 36.695C40.1941 36.9031 40.1206 37.0622 39.986 37.1969C39.8513 37.3193 39.6677 37.3805 39.4352 37.3805ZM38.7497 41.5666V37.8579H40.1084V41.5666H38.7497Z" fill="white"/>
<path d="M42.691 41.6645C42.0912 41.6645 41.6139 41.4932 41.2834 41.1505C40.9407 40.8077 40.7693 40.3181 40.7693 39.7061C40.7693 39.0941 40.9407 38.6045 41.2834 38.2618C41.6261 37.919 42.0912 37.7477 42.691 37.7477C43.2908 37.7477 43.7681 37.919 44.0986 38.2618C44.4413 38.6045 44.6127 39.0941 44.6127 39.7061C44.6127 40.3181 44.4413 40.8077 44.0986 41.1505C43.7559 41.4932 43.2908 41.6645 42.691 41.6645ZM42.691 40.722C43.0582 40.722 43.2418 40.3793 43.2418 39.7061C43.2418 39.0329 43.0582 38.7024 42.691 38.7024C42.3238 38.7024 42.1402 39.0451 42.1402 39.7061C42.1402 40.3671 42.3238 40.722 42.691 40.722Z" fill="white"/>
<path d="M47.5624 41.5666V39.1308C47.5624 38.9839 47.5379 38.886 47.4767 38.8126C47.4155 38.7391 47.3298 38.7147 47.1951 38.7147C47.0605 38.7147 46.8279 38.7759 46.6321 38.8983V41.5789H45.2734V37.8701H46.3751L46.4852 38.2495C46.7055 38.0782 46.9381 37.9558 47.1462 37.8823C47.3665 37.8089 47.5868 37.7722 47.8316 37.7722C48.1744 37.7722 48.4437 37.8701 48.6273 38.0537C48.8109 38.2373 48.8965 38.5066 48.8965 38.8493V41.5911H47.5379L47.5624 41.5666Z" fill="white"/>
<path d="M50.8061 40.0488C50.8306 40.2936 50.9285 40.465 51.0876 40.5752C51.2467 40.6853 51.4915 40.7343 51.8098 40.7343C52.128 40.7343 52.4952 40.6731 52.9359 40.5507V41.383C52.7523 41.4687 52.532 41.5421 52.2749 41.6033C52.0179 41.6523 51.7731 41.6768 51.516 41.6768C50.2186 41.6768 49.5698 41.028 49.5698 39.7183C49.5698 38.4086 49.7412 38.6167 50.0717 38.274C50.4022 37.9313 50.8673 37.7477 51.4548 37.7477C52.0423 37.7477 52.3361 37.8823 52.6176 38.1516C52.8869 38.4209 53.0338 38.8003 53.0338 39.2899C53.0338 39.7795 53.0338 39.5347 53.0093 39.6816C52.9971 39.8285 52.9726 39.9509 52.9604 40.0488H50.8183H50.8061ZM51.4181 38.6412C51.2467 38.6412 51.0999 38.6902 51.0019 38.8003C50.8918 38.9105 50.8306 39.0696 50.8061 39.2655H51.8832V39.1798C51.8832 38.8248 51.7241 38.6412 51.4181 38.6412Z" fill="white"/>
<path d="M56.3265 39.0329C56.1674 39.0085 56.0083 38.9962 55.8492 38.9962C55.5432 38.9962 55.2739 39.0329 55.0291 39.1186V41.5667H53.6704V37.8579H54.772L54.9434 38.4209C55.2861 38.017 55.6533 37.8212 56.045 37.8212C56.4367 37.8212 56.2409 37.8212 56.3388 37.8456V39.0452L56.3265 39.0329Z" fill="white"/>
<path d="M35.5793 34.2593L35.2978 33.2801H33.7433L33.474 34.2593H31.9807L33.7678 29.1674H35.3345L37.1216 34.2593H35.5671H35.5793ZM34.0003 32.2764H35.0285L34.5022 30.3914L34.0003 32.2764Z" fill="white"/>
<path d="M37.5623 34.2593V29.1674H38.9821V34.2593H37.5623Z" fill="white"/>
</g>
<defs>
<linearGradient id="paint0_linear_13330_2150" x1="61.6876" y1="66.3041" x2="17.7576" y2="14.3934" gradientUnits="userSpaceOnUse">
<stop offset="0.1" stop-color="#232F3E"/>
<stop offset="1" stop-color="#4F5965"/>
</linearGradient>
<clipPath id="clip0_13330_2150">
<rect width="72" height="72" fill="white"/>
</clipPath>
</defs>
</svg>
