<svg width="73" height="72" viewBox="0 0 73 72" fill="none" xmlns="http://www.w3.org/2000/svg">
<rect x="0.452881" width="72" height="72" rx="36" fill="#F1120E"/>
<g clip-path="url(#clip0_5568_48739)">
<mask id="mask0_5568_48739" style="mask-type:luminance" maskUnits="userSpaceOnUse" x="17" y="16" width="39" height="41">
<path d="M17.564 16.0073H55.3417V56.0073H17.564V16.0073Z" fill="white"/>
</mask>
<g mask="url(#mask0_5568_48739)">
<mask id="mask1_5568_48739" style="mask-type:luminance" maskUnits="userSpaceOnUse" x="17" y="16" width="39" height="41">
<path d="M17.564 16.0073H55.3417V56.0073H17.564V16.0073Z" fill="white"/>
</mask>
<g mask="url(#mask1_5568_48739)">
<path d="M55.1856 22.7261L53.7807 43.9761L40.8238 16.0073L55.1856 22.7261ZM46.1315 50.2261L36.4529 55.8511L26.6181 50.2261L28.4914 45.3823H44.2582L46.1315 50.2261ZM36.4529 26.6323L41.4483 39.1323H31.3013L36.4529 26.6323ZM18.9689 43.9761L17.564 22.7261L31.9258 16.0073L18.9689 43.9761Z" fill="#F5F5F5"/>
<path d="M55.1856 22.7261L53.7807 43.9761L40.8238 16.0073L55.1856 22.7261ZM46.1315 50.2261L36.4529 55.8511L26.6181 50.2261L28.4914 45.3823H44.2582L46.1315 50.2261ZM36.4529 26.6323L41.4483 39.1323H31.3013L36.4529 26.6323ZM18.9689 43.9761L17.564 22.7261L31.9258 16.0073L18.9689 43.9761Z" fill="#F5F5F5"/>
</g>
</g>
</g>
<defs>
<clipPath id="clip0_5568_48739">
<rect width="40" height="40" fill="white" transform="translate(16.4529 16)"/>
</clipPath>
</defs>
</svg>
