<svg width="72" height="72" viewBox="0 0 72 72" fill="none" xmlns="http://www.w3.org/2000/svg">
<rect width="72" height="72" rx="36" fill="white"/>
<path d="M45.0211 44.1677C45.254 42.2276 45.1842 41.943 46.6293 42.2573L46.9962 42.2895C48.1074 42.3401 49.561 42.1108 50.415 41.7141C52.2533 40.8611 53.3433 39.4369 51.5307 39.8111C47.3959 40.6641 47.1116 39.264 47.1116 39.264C51.4777 32.7859 53.3029 24.5625 51.7275 22.5496C47.4305 17.059 39.9926 19.6555 39.8681 19.7229L39.8285 19.7303C39.0115 19.5607 38.0972 19.4594 37.0701 19.4428C35.199 19.412 33.7792 19.9333 32.7022 20.7502C32.7022 20.7502 19.4334 15.2836 20.0507 27.625C20.182 30.2504 23.8139 47.4907 28.1456 42.2833C29.7288 40.3792 31.2589 38.7692 31.2589 38.7692C32.0186 39.2739 32.9282 39.5314 33.8822 39.4389L33.956 39.376C33.9329 39.6124 33.9431 39.8438 33.9855 40.1175C32.8698 41.3643 33.1976 41.5833 30.9666 42.0424C28.7095 42.5077 30.0355 43.3358 30.9011 43.5523C31.9507 43.8148 34.3789 44.1866 36.0199 41.8897L35.9546 42.1518C36.3923 42.502 36.3628 44.669 36.4248 46.2171C36.487 47.7654 36.5906 49.2103 36.9062 50.062C37.2218 50.9137 37.5942 53.1078 40.5263 52.4794C42.9768 51.9542 44.8504 51.1984 45.0211 44.1677Z" fill="#1C4C74" stroke="#1C4C74" stroke-width="4"/>
<path d="M51.531 39.811C47.3958 40.664 47.1115 39.2639 47.1115 39.2639C51.4776 32.7853 53.3028 24.5618 51.7277 22.5491C47.4308 17.0589 39.9925 19.6554 39.8684 19.7228L39.8284 19.73C39.0115 19.5604 38.0971 19.4594 37.0696 19.4426C35.1984 19.4119 33.7791 19.9331 32.7022 20.7498C32.7022 20.7498 19.433 15.2835 20.0502 27.6248C20.1815 30.2503 23.8133 47.4907 28.1452 42.2833C29.7285 40.3791 31.2583 38.7691 31.2583 38.7691C32.0181 39.2739 32.9277 39.5313 33.8813 39.4388L33.9554 39.376C33.9324 39.6124 33.9429 39.8437 33.9851 40.1175C32.8691 41.3642 33.197 41.5832 30.9662 42.0423C28.7089 42.5076 30.0349 43.3358 30.9008 43.5522C31.9504 43.8147 34.3787 44.1865 36.0194 41.8897L35.954 42.1518C36.3913 42.502 36.6983 44.4298 36.6469 46.1774C36.5954 47.925 36.561 49.1248 36.9056 50.062C37.2501 50.9991 37.5935 53.1077 40.5261 52.4793C42.9766 51.9542 44.2465 50.5933 44.4231 48.3234C44.5485 46.7096 44.8322 46.9481 44.8501 45.5053L45.0777 44.8223C45.3401 42.6347 45.1193 41.9289 46.6291 42.2571L46.996 42.2894C48.1072 42.3399 49.5615 42.1107 50.415 41.7139C52.253 40.8609 53.3431 39.4368 51.5308 39.811H51.531Z" fill="#336791"/>
<path d="M36.1971 41.065C36.0832 45.1355 36.2257 49.2345 36.624 50.2306C37.0225 51.2268 37.8754 53.1644 40.8083 52.5361C43.2586 52.0108 44.1501 50.9943 44.537 48.7505C44.8219 47.0995 45.3712 42.5147 45.4416 41.5753M32.6817 20.6589C32.6817 20.6589 19.4036 15.2319 20.0209 27.5733C20.1522 30.1988 23.7842 47.4397 28.116 42.2321C29.699 40.3277 31.1306 38.834 31.1306 38.834M39.8539 19.6684C39.3943 19.8125 47.24 16.8003 51.6988 22.4977C53.2738 24.5105 51.4487 32.7341 47.0827 39.2129" stroke="white" stroke-width="1.02471" stroke-linecap="round" stroke-linejoin="round"/>
<path d="M47.0825 39.2128C47.0825 39.2128 47.367 40.6133 51.5023 39.7597C53.3141 39.3855 52.2238 40.8098 50.3862 41.6632C48.8781 42.3631 45.497 42.5425 45.4418 41.5753C45.2996 39.0799 47.2212 39.8381 47.0825 39.2128ZM47.0825 39.2128C46.9572 38.6497 46.0979 38.097 45.5294 36.7188C45.0331 35.5159 38.723 26.2909 47.2793 27.661C47.5928 27.5961 45.0477 19.5223 37.0402 19.3911C29.0345 19.2598 29.2971 29.2363 29.2971 29.2363" stroke="white" stroke-width="1.02471" stroke-linecap="round" stroke-linejoin="bevel"/>
<path d="M33.9559 40.0662C32.8398 41.3129 33.168 41.5319 30.937 41.9912C28.6797 42.4565 30.0059 43.2846 30.8715 43.501C31.9211 43.7636 34.3494 44.1354 35.9902 41.838C36.4898 41.1385 35.9872 40.0224 35.3009 39.7378C34.9693 39.6006 34.5258 39.4283 33.9559 40.0662Z" stroke="white" stroke-width="1.02471" stroke-linecap="round" stroke-linejoin="round"/>
<path d="M33.8831 40.0445C33.7706 39.3113 34.124 38.439 34.5026 37.4185C35.0716 35.8873 36.3846 34.3559 35.3343 29.4988C34.5514 25.8793 29.3006 28.7455 29.2974 29.2363C29.2941 29.7269 29.5348 31.7239 29.2096 34.0494C28.7853 37.0839 31.1405 39.6503 33.8526 39.3877" stroke="white" stroke-width="1.02471" stroke-linecap="round" stroke-linejoin="round"/>
<path d="M32.6335 29.1627C32.6098 29.3304 32.9404 29.7776 33.3714 29.8374C33.8017 29.8974 34.17 29.5479 34.1933 29.3804C34.2167 29.2128 33.8865 29.0282 33.4553 28.9682C33.0248 28.9081 32.6564 28.9955 32.6336 29.1627H32.6335Z" fill="white" stroke="white" stroke-width="0.34157"/>
<path d="M45.7392 28.821C45.7626 28.9887 45.4324 29.4359 45.0013 29.4957C44.5707 29.5557 44.2024 29.2061 44.1788 29.0387C44.1561 28.8711 44.4863 28.6864 44.917 28.6264C45.3477 28.5664 45.7159 28.6538 45.7392 28.8211V28.821Z" fill="white" stroke="white" stroke-width="0.170826"/>
<path d="M47.2793 27.661C47.3503 28.9758 46.9961 29.8714 46.9515 31.271C46.8854 33.3055 47.9215 35.6341 46.3604 37.9656" stroke="white" stroke-width="1.02471" stroke-linecap="round" stroke-linejoin="round"/>
</svg>
