<svg width="73" height="72" viewBox="0 0 73 72" fill="none" xmlns="http://www.w3.org/2000/svg">
<rect x="0.44043" width="72" height="72" rx="36" fill="#C23B11"/>
<path d="M37.3459 31.0918L32.6992 17.6H52.4404L47.7777 31.1311C47.5771 31.1783 47.3799 31.2384 47.1873 31.3111L42.5812 22.0658L37.9617 31.2564C37.7604 31.1879 37.5547 31.1329 37.3459 31.0918ZM22.1643 53.1776C28.3735 57.4689 35.2608 49.1652 44.6422 48.1192C50.0296 47.8051 53.6914 44.5601 51.605 39.5366C47.7257 41.8876 44.1002 38.8069 44.1256 35.7156H41.1778C41.081 38.4755 38.9711 40.6468 35.7007 40.324C33.1407 44.0921 30.1738 46.2092 26.8072 47.2853C24.5318 46.2521 22.3905 43.7354 23.3614 40.3739C22.9389 40.3275 22.5247 40.2252 22.1301 40.0698C19.0005 45.8197 18.6138 50.364 22.1643 53.1776ZM26.7869 35.716C26.7869 33.5321 24.3676 32.1598 22.4427 33.2517C20.5178 34.3436 20.5176 37.0884 22.4427 38.1802C24.3676 39.2722 26.7869 37.8999 26.7869 35.716ZM39.3081 35.6889C39.3081 33.505 36.8887 32.1327 34.9638 33.2247C33.0389 34.3167 33.0388 37.0613 34.9638 38.1531C36.8888 39.2451 39.3081 37.8728 39.3081 35.6889ZM51.7823 35.6889C51.7823 33.505 49.3629 32.1327 47.438 33.2247C45.5131 34.3167 45.513 37.0613 47.438 38.1531C49.363 39.2451 51.7823 37.8728 51.7823 35.6889Z" fill="white"/>
</svg>
