<svg width="45" height="45" viewBox="0 0 45 45" fill="none" xmlns="http://www.w3.org/2000/svg">
<rect width="45" height="45" rx="22.5" fill="#EFD81D"/>
<path d="M11.2501 27.1305L13.8621 25.5838C14.366 26.458 14.8244 27.1976 15.924 27.1976C16.978 27.1976 17.6426 26.7943 17.6426 25.2252V14.5545H20.8501V25.2696C20.8501 28.52 18.9027 29.9996 16.0615 29.9996C13.4955 29.9996 12.0061 28.6994 11.25 27.1302M22.5923 26.7941L25.204 25.3147C25.8916 26.4132 26.7851 27.2202 28.3659 27.2202C29.6951 27.2202 30.5425 26.57 30.5425 25.6733C30.5425 24.5973 29.6719 24.2162 28.2055 23.5887L27.4038 23.2521C25.0896 22.2885 23.5546 21.0779 23.5546 18.5223C23.5546 16.1685 25.3874 14.375 28.2515 14.375C30.2906 14.375 31.757 15.07 32.8108 16.8858L30.3133 18.4551C29.7633 17.4912 29.1679 17.1102 28.2514 17.1102C27.3119 17.1102 26.7162 17.693 26.7162 18.4551C26.7162 19.3966 27.3119 19.7779 28.6866 20.3608L29.4884 20.697C32.215 21.8404 33.75 23.006 33.75 25.6286C33.75 28.4534 31.4818 30 28.4346 30C25.4561 30 23.5315 28.6102 22.5922 26.7943" fill="black"/>
</svg>
