<svg width="146" height="144" viewBox="0 0 146 144" fill="none" xmlns="http://www.w3.org/2000/svg">
<g clip-path="url(#clip0_4972_34335)">
<path d="M94.6648 112.72C95.1413 111.781 95.5497 110.842 95.7539 109.832C96.3325 106.997 95.9241 104.321 94.4947 101.841C93.4056 99.9629 91.8741 98.6695 89.798 98.1025C87.3816 97.4293 84.9482 97.2167 82.4978 97.8191C80.5578 98.2974 78.8221 99.201 77.1885 100.37C76.627 100.778 76.0994 101.203 75.5549 101.628C75.5549 101.664 75.5719 101.699 75.5719 101.735C75.708 101.735 75.8442 101.735 75.9803 101.735C77.3927 101.735 78.8051 101.699 80.2005 101.752C82.0213 101.823 83.8251 102.018 85.5778 102.55C86.6329 102.869 87.6198 103.294 88.5047 103.985C89.747 104.959 90.3936 106.253 90.4617 107.883C90.5127 109.194 90.2575 110.434 89.6959 111.603C88.828 113.393 87.3816 114.385 85.5098 114.704C84.0293 114.952 82.5658 114.793 81.1194 114.474C78.7881 113.942 76.6099 113.021 74.4828 111.922C73.9893 111.657 73.5809 111.231 73.1725 110.753C73.4448 110.611 73.683 110.505 73.9043 110.363C75.2656 109.601 76.1675 108.467 76.4738 106.873C76.695 105.757 76.5589 104.658 76.1335 103.595C75.5379 102.107 74.5509 100.92 73.2746 100.034C71.1816 98.5632 68.9013 97.9608 66.3828 98.51C65.549 98.6872 64.7832 99.0416 64.0855 99.5731C62.8093 100.565 62.1286 101.876 62.0605 103.542C62.0605 103.701 62.0605 103.878 62.0605 104.056C61.6181 104.073 61.2777 103.896 61.0225 103.63C58.7422 101.327 56.5981 98.9353 54.9985 96.0473C54.4029 94.9665 53.9094 93.8326 53.7223 92.5746C53.467 90.7497 54.0286 89.2791 55.5601 88.287C56.4449 87.7023 57.3809 87.2593 58.4019 87.029C60.0015 86.6569 61.4479 87.029 62.7922 87.9858C64.1025 88.9248 65.0725 90.1827 65.9404 91.5293C66.9444 93.0884 67.7441 94.7716 68.4759 96.4725C68.561 96.6674 68.646 96.8623 68.7481 97.0749C68.7652 97.0926 68.7992 97.1104 68.8673 97.1635C68.8332 96.88 68.7992 96.632 68.7652 96.4016C68.3227 93.868 67.557 91.4407 66.2296 89.226C65.1746 87.4897 63.8473 86.0368 62.0775 85.0623C60.3418 84.1056 58.504 83.8221 56.5641 84.1765C55.5941 84.3536 54.6241 84.5663 53.7052 84.9383C51.8164 85.7356 50.404 87.0999 49.2638 88.8008C49.1958 88.9071 49.1107 89.0311 49.0426 89.1374C49.0256 89.1728 48.9916 89.1906 48.9575 89.226C48.8895 89.1906 48.7874 89.1728 48.7193 89.1197C41.4701 84.3182 34.6634 78.9143 28.5883 72.5537C24.3852 68.1597 20.6244 63.4114 17.4933 58.1315C14.8387 53.6666 12.7116 48.936 11.3502 43.8688C10.3803 40.2367 9.81873 36.5514 9.97188 32.7775C10.108 29.4289 10.6526 26.1688 11.9629 23.086C14.0049 18.1782 17.4423 14.7232 22.1219 12.5794C24.6064 11.4454 27.21 10.7899 29.8986 10.5241C34.7484 10.028 39.4621 10.7367 44.0737 12.349C48.9745 14.0677 53.3479 16.7253 57.1426 20.3929C57.6021 20.8358 58.0275 21.3319 58.487 21.828C58.6231 21.828 58.7422 21.8103 58.8784 21.7748C58.9294 21.7394 58.9634 21.704 59.0145 21.6685C59.0485 21.6685 59.0315 21.6685 59.0315 21.6685C59.1336 21.5445 59.2187 21.4028 59.3208 21.2965C64.1876 16.743 69.7862 13.6424 76.1164 11.9061C79.2135 11.0557 82.3787 10.6304 85.5948 10.7367C89.4917 10.843 93.2014 11.7112 96.6558 13.6424C99.838 15.4319 102.356 17.9478 104.262 21.137C105.011 22.3772 105.641 23.7061 106.185 25.0881C106.389 25.0526 106.577 24.9817 106.798 24.84C106.747 24.273 106.679 23.7769 106.594 23.2808C106.015 19.7373 105.028 16.3178 103.463 13.1109C101.982 10.0458 100.059 7.33495 97.5407 5.10253C94.1543 2.12596 90.2575 0.425063 85.8331 0.106145C83.2976 -0.0710316 80.745 -0.0178786 78.2095 0.301039C74.1085 0.814852 70.1605 1.87791 66.3488 3.49022C61.6691 5.4746 57.4149 8.1854 53.5861 11.6049C53.45 11.7289 53.2968 11.853 53.1267 11.9947C52.8884 11.7998 52.6672 11.6226 52.446 11.4454C49.8254 9.30161 47.0857 7.35267 44.1758 5.68721C40.0917 3.34848 35.8035 1.55899 31.226 0.60224C29.5413 0.247886 27.8396 -0.000160926 26.1209 0.0529921C24.7766 0.0884274 23.4322 0.0529921 22.0879 0.0707097C21.7646 0.0707097 21.4413 0.0884274 21.1179 0.123863C19.1099 0.37191 17.153 0.832569 15.2641 1.54128C10.9759 3.1713 7.43637 5.82895 4.67964 9.62053C2.53551 12.5439 1.17416 15.8749 0.408405 19.4716C0.204202 20.446 0 21.4205 0 22.4127C0 25.0349 0 27.6394 0 30.2616C0 30.5805 0 30.8994 0.0510506 31.2184C0.306304 33.1673 0.680675 35.1162 1.2082 37.012C1.54853 38.2523 1.93992 39.4925 2.39938 40.6973C2.84182 41.849 3.40337 42.9652 3.9309 44.0814C8.40633 53.4717 14.2601 61.8345 21.3902 69.2228C26.9717 75.0164 33.1148 80.0482 39.6663 84.5662C42.389 86.4443 45.1457 88.2161 47.9705 89.8993C48.1407 90.0056 48.2939 90.1119 48.447 90.2005C48.396 90.3954 48.3449 90.5371 48.3109 90.6966C47.9025 92.0785 47.8344 93.4782 48.0897 94.8956C48.6002 97.6596 50.0636 99.768 52.2418 101.38C54.1987 102.833 56.4279 103.577 58.7763 103.949C59.7803 104.109 60.8183 104.109 61.7882 104.481C62.0095 104.569 62.1796 104.64 62.2477 104.924C62.52 106.2 63.1496 107.263 64.0004 108.202C64.0685 108.29 64.1366 108.379 64.2217 108.503C63.8983 108.698 63.609 108.893 63.3198 109.052C62.3838 109.566 61.4309 110.027 60.512 110.558C59.1336 111.338 57.9935 112.383 57.2447 113.854C56.53 115.253 56.2067 116.759 56.0365 118.301C55.7983 120.427 56.1046 122.5 56.6491 124.555C57.2788 126.911 58.2317 129.126 59.3208 131.27C59.3548 131.341 59.4059 131.412 59.4739 131.5C61.1416 130.774 62.7922 130.083 64.4259 129.339C63.8983 128.311 63.3708 127.372 62.8943 126.398C61.6861 123.935 60.7332 121.384 60.3758 118.62C60.1546 116.919 60.2057 115.253 60.7332 113.623C61.3628 111.71 62.4008 110.08 64.1196 109.034C64.528 108.786 64.562 108.786 64.9364 109.087C65.9744 109.938 67.1145 110.54 68.3908 110.877C68.9353 111.019 69.3267 111.302 69.616 111.781C70.0755 112.542 70.5519 113.287 70.9433 114.066C72.2196 116.617 72.4238 119.257 71.5389 122.004C71.0965 123.35 70.4668 124.608 69.7351 125.795C68.629 127.602 67.5059 129.41 66.4168 131.217C65.7021 132.386 65.0385 133.573 64.545 134.867C63.9153 136.585 63.8983 138.286 64.579 139.987C64.9364 140.873 65.3788 141.67 65.8893 142.468C66.0425 142.698 66.1446 142.964 66.2977 143.194C66.3488 143.265 66.4338 143.3 66.4509 143.318C66.6721 143.141 66.8252 142.981 66.9954 142.875C68.2717 142.131 69.5479 141.405 70.8242 140.678C71.4708 140.306 72.1175 139.934 72.7811 139.544C72.7641 139.208 72.7471 138.889 72.7301 138.57C72.611 136.816 72.662 135.062 72.8322 133.308C73.1725 129.959 74.0404 126.752 75.4868 123.74C76.1505 122.323 76.5078 120.834 76.6099 119.275C76.7971 116.458 75.7591 114.279 73.4278 112.808C72.3727 112.135 71.2156 111.71 70.0244 111.355C69.9223 111.32 69.8372 111.267 69.7521 111.231C70.5179 111.178 71.2666 111.16 71.9984 111.036C72.4238 110.966 72.7131 111.054 73.0194 111.32C73.0874 111.373 73.1385 111.426 73.1895 111.497C75.1465 113.411 77.3757 114.899 79.8431 115.997C81.6639 116.812 83.5528 117.415 85.5438 117.61C86.3266 117.681 87.1093 117.716 87.8751 117.521C90.4447 116.883 92.6398 115.608 94.2564 113.375C94.2394 113.074 94.4776 112.932 94.6648 112.72Z" fill="white"/>
<path d="M145.392 42.0624C144.813 38.6252 143.69 35.4183 141.852 32.4949C138.942 27.8883 135.045 24.5928 129.957 22.8919C126.367 21.7048 122.691 21.4568 118.948 21.7934C115.663 22.0946 112.464 22.8565 109.333 23.955C108.482 24.2562 107.648 24.5574 106.78 24.894C106.559 24.9826 106.372 25.0535 106.185 25.1243C104.943 25.709 103.7 26.276 102.475 26.8961C99.0548 28.6324 95.8556 30.7408 92.8947 33.2213C92.8096 33.2922 92.7075 33.363 92.6054 33.4516C92.4693 33.3453 92.3501 33.239 92.231 33.1327C88.215 29.536 83.7736 26.6126 78.8728 24.5042C75.2992 22.9628 71.6066 21.9174 67.7778 21.4745C64.8849 21.1378 61.9921 21.2087 59.0652 21.6694C59.0311 21.6517 59.0311 21.6339 59.0311 21.6339C59.0141 21.6694 58.9801 21.6871 58.912 21.7225C58.7418 21.758 58.6227 21.7757 58.5036 21.8111C55.6618 22.4135 52.9901 23.4411 50.5397 25.0534C46.83 27.4808 44.1414 30.8471 42.3035 34.9753C41.1464 37.5976 40.3806 40.3438 39.9722 43.1963C39.8021 44.3657 39.7 45.5351 39.5808 46.7044C39.5638 46.8816 39.5808 47.0765 39.6319 47.2891C39.6829 47.1474 39.734 47.0056 39.785 46.8639C40.789 43.9228 42.2355 41.2474 44.2264 38.9264C46.7279 36.0207 49.7569 33.9832 53.3135 32.7606C56.6147 31.6267 60.0011 31.3255 63.4385 31.6267C67.965 32.0165 72.2192 33.4339 76.2862 35.4714C80.098 37.3849 83.6035 39.7946 86.8877 42.6117C86.9558 42.6471 86.9898 42.6471 87.0749 42.6471C88.3001 41.7258 89.4743 40.769 90.7165 39.9009C93.7796 37.7216 97.0298 35.8435 100.518 34.4084C100.518 34.3198 100.501 34.2135 100.45 34.1603C100.076 33.8591 99.7014 33.5756 99.31 33.2744C98.8506 33.6111 98.4082 33.9477 97.9827 34.2666C97.9657 34.2489 97.9317 34.2312 97.9147 34.2135C98.0678 33.682 98.238 33.1681 98.4082 32.6012C97.9827 32.2645 97.5403 31.9279 97.0468 31.5381C97.6594 31.4318 98.204 31.5381 98.7655 31.4672C98.9357 30.9357 99.1058 30.4042 99.3271 29.7486C99.5313 30.3865 99.7014 30.9003 99.8716 31.4672C100.416 31.4672 100.961 31.4672 101.607 31.4672C101.165 31.9456 100.671 32.1937 100.229 32.6189C100.399 33.1327 100.569 33.682 100.739 34.2489C101.182 34.1249 101.624 33.9477 102.101 33.7883C102.135 33.7705 102.152 33.7528 102.186 33.7528C103.275 33.4162 104.347 33.0087 105.436 32.7075C108.584 31.8393 111.8 31.4495 115.068 31.6799C118.352 31.9102 121.483 32.7784 124.376 34.4438C127.473 36.2156 129.957 38.6961 131.88 41.7789C133.701 44.6846 134.858 47.8738 135.556 51.2402C136.22 54.3939 136.186 57.5654 135.709 60.7368C135.045 65.1485 133.599 69.2767 131.693 73.2632C129.226 78.4545 126.095 83.2028 122.555 87.6677C117.212 94.4181 111.086 100.318 104.449 105.651C101.556 107.972 98.5783 110.151 95.5153 112.207C95.277 112.366 95.0048 112.508 94.6985 112.685C94.4943 112.898 94.239 113.039 94.2731 113.341C94.6134 113.482 94.7665 113.199 94.9878 113.075C96.4342 112.171 97.8806 111.268 99.31 110.346C106.185 105.899 112.787 101.045 118.982 95.6229C123.695 91.4947 128.103 87.0653 132.068 82.1575C135.76 77.5863 139.01 72.6963 141.478 67.2924C143.894 62.0302 145.477 56.52 145.8 50.6555C145.953 47.8029 145.868 44.9327 145.392 42.0624ZM48.855 34.5678C48.838 34.5856 48.804 34.6033 48.787 34.621C48.3615 34.3021 47.9361 33.9832 47.4767 33.6288C47.0342 33.9477 46.6088 34.2489 46.1664 34.5678C46.1153 34.5324 46.1153 34.5501 46.1153 34.5856C46.0983 34.5678 46.0983 34.5678 46.0813 34.5501C46.2515 34.0186 46.3876 33.5048 46.5407 32.9555C46.1153 32.6366 45.7069 32.3 45.2134 31.9279C45.5538 31.8216 45.8601 31.8748 46.1494 31.8748C47.0513 31.857 46.847 31.9988 47.1363 31.1306C47.2384 30.8294 47.3235 30.5459 47.4597 30.1207C47.6639 30.7585 47.834 31.2901 48.0212 31.857C48.5658 31.857 49.0933 31.857 49.6208 31.857C49.6378 31.8925 49.6548 31.9102 49.6548 31.9456C49.2294 32.2823 48.804 32.6012 48.3615 32.9555C48.5147 33.5048 48.6849 34.0363 48.855 34.5678ZM55.1002 31.2724C54.4025 30.8117 53.858 30.3333 53.2114 29.8904C52.6328 30.3333 52.0202 30.7763 51.3225 31.3078C51.5777 30.4751 51.799 29.7664 52.0372 28.9868C51.4586 28.5438 50.863 28.1009 50.2674 27.6402C50.2674 27.6225 50.2845 27.5871 50.2845 27.5694C50.9992 27.5694 51.7139 27.5694 52.4626 27.5694C52.7008 26.8252 52.9221 26.1165 53.1433 25.4078C53.1773 25.4078 53.2114 25.3901 53.2284 25.3901C53.3815 25.8507 53.5177 26.3114 53.6708 26.7898C53.7729 27.091 53.841 27.3036 53.9261 27.5694C54.6578 27.5694 55.3725 27.5694 56.1042 27.5694C56.1212 27.6048 56.1383 27.6402 56.1383 27.6579C55.5597 28.1009 54.9811 28.5438 54.3685 29.0045C54.6238 29.7132 54.828 30.4219 55.1002 31.2724ZM65.0891 31.2369C65.0721 31.2546 65.0381 31.2724 65.0211 31.2901C64.2043 30.67 63.3874 30.0498 62.5366 29.412C61.6858 30.0498 60.8689 30.67 60.0521 31.2901C60.0351 31.2724 60.0011 31.2546 59.9841 31.2369C60.2904 30.227 60.6137 29.2348 60.92 28.2072C60.0862 27.5871 59.2864 26.967 58.4866 26.3646C58.5036 26.3291 58.5036 26.3114 58.5036 26.2937C58.5036 26.276 58.5206 26.2583 58.5376 26.2583C59.5246 26.2583 60.5116 26.2583 61.5326 26.2583C61.8559 25.2306 62.1622 24.2384 62.5026 23.1577C62.5706 23.2994 62.6047 23.3703 62.6557 23.4589C62.962 24.4333 63.2343 25.3192 63.5406 26.2583C64.5616 26.2583 65.5656 26.2583 66.5866 26.2583C66.6036 26.2937 66.6036 26.3114 66.6206 26.3468C65.8209 26.9492 65.004 27.5694 64.1702 28.2072C64.4595 29.1994 64.7828 30.2093 65.0891 31.2369ZM74.2102 29.3766C74.5165 30.3865 74.8398 31.3787 75.1631 32.4594C74.8738 32.3886 74.7377 32.1937 74.5675 32.0874C73.8868 31.5736 73.2572 31.0952 72.6106 30.5991C71.7768 31.2369 70.9599 31.857 70.1261 32.4772C70.1091 32.4594 70.0751 32.4417 70.0581 32.4417C70.3644 31.4318 70.6877 30.4219 70.994 29.3943C70.1602 28.7742 69.3433 28.154 68.5265 27.5339C68.5265 27.4985 68.5435 27.4808 68.5435 27.4453C69.5475 27.4453 70.5515 27.4453 71.5896 27.4453C71.9129 26.4 72.2362 25.3901 72.5936 24.2562C72.9509 25.3901 73.2572 26.3823 73.5805 27.4276C74.6186 27.4276 75.6226 27.4276 76.6436 27.4276C76.6606 27.4631 76.6606 27.4985 76.6776 27.5162C75.8778 28.1186 75.061 28.7387 74.2102 29.3766ZM82.9058 33.2036C83.144 33.9477 83.3652 34.6741 83.6035 35.4183C83.6545 35.5777 83.6886 35.7372 83.7736 36.0207C82.8718 35.3297 82.0379 34.7096 81.2041 34.0717C80.3703 34.6919 79.5535 35.312 78.7367 35.9321C78.7026 35.9144 78.6856 35.8967 78.6516 35.8789C78.9579 34.869 79.2642 33.8768 79.5875 32.8492C78.7537 32.2114 77.9198 31.5913 77.018 30.9003C78.1411 30.9003 79.1451 30.9003 80.2001 30.9003C80.5234 29.8727 80.8467 28.8628 81.1871 27.7465C81.5955 28.8273 81.8337 29.8727 82.2081 30.8826C83.2461 30.8826 84.2501 30.8826 85.2711 30.8826C85.2881 30.9003 85.2881 30.9357 85.3052 30.9534C84.5564 31.5204 83.8077 32.0874 83.0419 32.6543C82.7697 32.8492 82.8547 33.0264 82.9058 33.2036ZM89.5253 36.375C89.7466 37.1192 89.9678 37.8279 90.189 38.5366C90.155 38.5543 90.138 38.572 90.1039 38.5897C89.5253 38.1645 88.9468 37.7216 88.3512 37.2786C87.7726 37.7216 87.2111 38.1468 86.6325 38.5897C86.5984 38.6075 86.5814 38.6252 86.5814 38.6252C86.6155 38.448 86.5984 38.2708 86.6495 38.1114C86.8197 37.5444 86.9898 36.9952 87.177 36.4105C86.5814 35.9498 86.0029 35.5246 85.4243 35.0817C85.4413 35.0462 85.4413 35.0285 85.4583 34.9931C86.173 34.9931 86.8877 34.9931 87.6195 34.9931C87.8577 34.2312 88.0789 33.5225 88.3172 32.7961C88.3512 32.7961 88.3682 32.7961 88.4022 32.7961C88.6235 33.5225 88.8617 34.2312 89.0999 34.9931C89.8316 34.9931 90.5634 34.9931 91.2781 34.9931C91.2951 35.0285 91.2951 35.0462 91.3121 35.0817C90.6995 35.4714 90.1209 35.9144 89.5253 36.375ZM106.883 29.2348C106.678 29.412 106.44 29.5715 106.185 29.7664C106.355 30.3156 106.508 30.8471 106.712 31.5204C106.185 31.1306 105.742 30.8117 105.283 30.4573C104.858 30.7763 104.449 31.0775 104.024 31.3964C103.939 31.4141 103.922 31.4318 103.905 31.4495C103.922 31.4318 103.922 31.3964 103.939 31.3787C103.99 31.2724 103.99 31.1129 104.024 30.9712C104.143 30.5636 104.262 30.1739 104.381 29.7486C103.922 29.412 103.496 29.0754 103.071 28.7564C103.071 28.721 103.088 28.7033 103.088 28.6679C103.632 28.6679 104.16 28.6679 104.721 28.6679C104.909 28.0832 105.079 27.5516 105.283 26.9138C105.487 27.5339 105.657 28.0655 105.845 28.6324C106.389 28.6324 106.917 28.6324 107.512 28.6324C107.359 28.9691 107.087 29.0576 106.883 29.2348ZM113.859 28.2426C114.081 28.9691 114.302 29.66 114.506 30.3687C114.472 30.3865 114.455 30.4219 114.421 30.4396C113.859 30.0144 113.281 29.5892 112.668 29.1462C112.09 29.5892 111.494 30.0321 110.916 30.4573C110.882 30.4396 110.864 30.4219 110.83 30.4042C111.052 29.6955 111.273 28.9868 111.494 28.2426C110.933 27.7997 110.371 27.3745 109.809 26.9492C109.878 26.8607 109.98 26.8075 110.099 26.8075C110.694 26.7898 111.29 26.8075 111.937 26.8075C112.175 26.0811 112.396 25.3546 112.668 24.5219C112.941 25.3546 113.162 26.0634 113.4 26.8252C114.132 26.8252 114.846 26.8252 115.561 26.8252C115.578 26.8607 115.578 26.8784 115.595 26.9138C115.034 27.3567 114.455 27.7997 113.859 28.2426ZM125.856 31.0066C125.856 31.0775 125.873 31.0775 125.873 31.0775C125.72 31.0066 125.584 30.9357 125.448 30.8471C124.75 30.3333 124.07 29.8018 123.321 29.2348C122.504 29.8549 121.687 30.4751 120.87 31.0952C121.041 30.0498 121.415 29.0754 121.704 28.0123C120.887 27.3922 120.054 26.7543 119.237 26.1342C119.254 26.0988 119.254 26.0811 119.271 26.0456C120.275 26.0456 121.296 26.0456 122.334 26.0456C122.657 25.018 122.963 24.0258 123.287 23.0159C123.321 23.0159 123.355 22.9982 123.372 22.9982C123.678 23.9904 124.002 24.9826 124.325 26.0279C125.346 26.0279 126.367 26.0279 127.388 26.0279C127.405 26.0634 127.405 26.0988 127.422 26.1342C126.605 26.7543 125.788 27.3745 124.937 28.0123C125.244 29.0222 125.55 30.0144 125.856 31.0066ZM134.212 35.6486C134.195 35.6663 134.161 35.6841 134.144 35.7018C133.31 35.0817 132.493 34.4438 131.659 33.806C130.842 34.4261 130.043 35.0285 129.243 35.6309C129.175 35.6486 129.158 35.6663 129.141 35.6663C129.141 35.6663 129.124 35.6663 129.124 35.6486C129.141 35.6486 129.141 35.6309 129.158 35.6309C129.209 35.4892 129.209 35.3297 129.26 35.1702C129.515 34.3198 129.787 33.4693 130.06 32.5835C129.226 31.9456 128.409 31.3255 127.575 30.6877C127.592 30.6522 127.592 30.6345 127.609 30.5991C128.613 30.5991 129.634 30.5991 130.672 30.5991C130.995 29.5715 131.302 28.5615 131.625 27.5516C131.659 27.5516 131.676 27.5516 131.71 27.5339C132.016 28.5438 132.34 29.536 132.663 30.5636C133.701 30.5636 134.705 30.5636 135.828 30.5636C135.403 31.0243 134.96 31.2724 134.552 31.5913C134.144 31.9102 133.718 32.2291 133.293 32.548C133.582 33.6288 133.888 34.6387 134.212 35.6486ZM134.909 39.9717C134.926 39.954 134.926 39.9186 134.943 39.9009C135.93 39.9009 136.934 39.9009 137.972 39.9009C138.296 38.8732 138.619 37.8633 138.942 36.8357C138.976 36.8357 138.993 36.8357 139.027 36.8357C139.334 37.8279 139.657 38.8378 139.98 39.8654C141.001 39.8654 142.005 39.8654 143.009 39.8654C143.026 39.9009 143.043 39.9363 143.043 39.9717C142.227 40.5918 141.41 41.212 140.576 41.8321C140.882 42.842 141.206 43.8342 141.529 44.915C141.052 44.6846 140.729 44.3657 140.372 44.1177C140.014 43.8519 139.657 43.5861 139.317 43.3204C139.078 43.09 138.908 43.09 138.704 43.2672C138.091 43.7456 137.479 44.2062 136.866 44.6669C136.747 44.7555 136.611 44.8441 136.39 45.0035C136.73 43.8873 137.053 42.8951 137.36 41.8498C136.543 41.212 135.726 40.5918 134.909 39.9717ZM135.301 74.0251C135.437 74.4857 135.573 74.9641 135.76 75.5665C135.284 75.2122 134.909 74.9287 134.484 74.6275C134.093 74.911 133.701 75.2122 133.31 75.4956C133.293 75.4779 133.259 75.4779 133.242 75.4602C133.378 74.9818 133.531 74.5035 133.684 74.0074C133.276 73.7062 132.901 73.4227 132.527 73.1215C132.527 73.086 132.544 73.0683 132.544 73.0329C133.02 73.0329 133.497 73.0329 133.973 73.0329C134.127 72.5368 134.28 72.0761 134.45 71.5446C134.518 71.6686 134.552 71.7572 134.603 71.8281C134.739 72.2533 134.841 72.6077 134.977 72.9975C135.454 72.9975 135.947 72.9975 136.509 72.9975C136.135 73.4581 135.675 73.653 135.301 74.0251ZM138.228 71.3497C137.7 70.9599 137.258 70.6233 136.798 70.2867C136.339 70.6233 135.913 70.9422 135.471 71.2788C135.454 71.2611 135.42 71.2434 135.403 71.2257C135.556 70.6942 135.726 70.1803 135.896 69.6134C135.454 69.2767 135.028 68.9401 134.586 68.6035C134.603 68.568 134.603 68.5503 134.62 68.5149C135.148 68.5149 135.675 68.5149 136.237 68.5149C136.424 67.9479 136.594 67.4164 136.798 66.7608C136.968 67.3101 137.105 67.753 137.241 68.196C137.326 68.4972 137.479 68.4972 137.649 68.4972C138.091 68.4972 138.534 68.4972 139.01 68.5858C138.568 68.9224 138.143 69.2413 137.683 69.5957C137.87 70.1626 138.023 70.6942 138.228 71.3497ZM140.593 62.2428C140.814 62.9515 141.018 63.6425 141.223 64.3335C141.223 64.4221 141.24 64.4221 141.24 64.4398C141.223 64.4398 141.206 64.4398 141.189 64.4398C141.086 64.3512 140.95 64.3158 140.831 64.2272C140.355 63.8729 139.895 63.5185 139.402 63.1464C138.806 63.5894 138.228 64.0146 137.649 64.4398C137.581 64.4221 137.564 64.4221 137.564 64.4221C137.734 63.8906 137.887 63.3768 138.023 62.8629C138.074 62.6681 138.143 62.4732 138.211 62.2428C137.615 61.7999 137.036 61.3569 136.458 60.914C136.458 60.8786 136.475 60.8431 136.475 60.8077C136.679 60.8077 136.883 60.8077 137.07 60.8077C137.479 60.8077 137.887 60.8077 138.279 60.8077C138.653 60.8077 138.653 60.8077 138.772 60.4179C138.908 60.0104 139.027 59.5852 139.164 59.16C139.215 58.9828 139.3 58.7879 139.385 58.5221C139.64 59.3194 139.861 60.0458 140.099 60.79C140.831 60.79 141.546 60.79 142.278 60.79C142.295 60.8254 142.295 60.8609 142.312 60.8963C141.767 61.3392 141.189 61.7822 140.593 62.2428ZM144.898 51.1516C144.098 51.7717 143.282 52.3918 142.448 53.0296C142.669 53.7206 142.89 54.4116 143.094 55.1026C143.197 55.4215 143.265 55.7404 143.35 56.0771C143.333 56.1125 143.316 56.1302 143.316 56.1302C142.482 55.5278 141.665 54.89 140.831 54.2522C139.98 54.89 139.164 55.5101 138.33 56.1302C138.313 56.1125 138.279 56.0948 138.262 56.0771C138.568 55.0672 138.891 54.075 139.215 53.0296C138.381 52.4095 137.564 51.7894 136.747 51.1693C136.747 51.1516 136.764 51.1161 136.764 51.0984C137.768 51.0984 138.789 51.0984 139.81 51.0984C140.134 50.0708 140.457 49.0609 140.763 48.051C140.797 48.051 140.831 48.051 140.848 48.051C141.155 49.0432 141.478 50.0354 141.784 51.0453C142.805 51.0453 143.826 51.0453 144.83 51.0453C144.847 51.0984 144.864 51.1161 144.864 51.1161C144.915 51.1161 144.915 51.1339 144.898 51.1516Z" fill="white"/>
<path d="M71.5391 73.2098C72.3559 75.0525 74.2618 75.3182 75.3849 74.2375C75.453 74.1843 75.5381 74.1489 75.6402 74.0957C75.6572 74.3792 75.6742 74.5918 75.6912 74.8399C75.7763 74.8576 75.8614 74.8753 75.9124 74.8576C76.5251 74.6095 77.1547 74.3615 77.7673 74.0957C77.8013 74.078 77.8013 73.9717 77.8183 73.8477C77.6822 73.8654 77.5801 73.8831 77.495 73.9008C77.0526 73.954 76.8994 73.83 76.8484 73.3693C76.8314 73.1744 76.8314 72.9618 76.8314 72.7669C76.8314 70.375 76.8314 67.9831 76.8143 65.5735C76.8143 65.3964 76.7973 65.2192 76.7973 65.0597C75.9805 64.8648 75.3509 65.2723 74.7042 65.5558C74.6702 65.5735 74.6872 65.6621 74.7042 65.7507C74.8404 65.7684 74.9425 65.7507 75.0616 65.733C75.3679 65.6976 75.5211 65.8039 75.5891 66.1051C75.6232 66.2645 75.6402 66.4417 75.6402 66.6012C75.6572 67.1327 75.6572 67.6465 75.6572 68.178C75.6572 68.2843 75.6232 68.3906 75.6061 68.5147C75.504 68.4615 75.453 68.4438 75.4019 68.4084C74.432 67.8768 73.5131 68.0186 72.6622 68.6741C71.386 69.6663 70.8755 71.7216 71.5391 73.2098ZM72.6963 69.9498C72.9005 69.2411 73.3259 68.6918 74.0916 68.5678C75.0786 68.6741 75.6232 69.2588 75.6572 70.2333C75.6912 71.2255 75.6742 72.2177 75.6572 73.2098C75.6572 73.3339 75.6232 73.4756 75.5381 73.5819C75.1297 74.0957 74.3979 74.2375 73.8194 73.9363C73.2748 73.6528 72.9005 73.1921 72.7133 72.5897C72.458 71.7038 72.441 70.818 72.6963 69.9498Z" fill="white"/>
<path d="M112.975 68.4976C111.766 67.8244 110.541 68.0901 109.69 69.2241C109.248 69.8087 108.976 70.4643 108.874 71.1907C108.669 72.7322 109.265 74.0787 110.456 74.6811C110.933 74.8937 111.426 74.9646 111.868 74.7874C112.294 74.6279 112.685 74.3622 113.111 74.1319C113.128 74.3622 113.128 74.5925 113.145 74.8228C113.57 74.8583 114.915 74.309 115.221 73.9901C115.153 73.7952 115 73.9015 114.897 73.9192C114.472 73.9547 114.353 73.8484 114.302 73.4054C114.285 73.2105 114.268 72.9979 114.268 72.803C114.268 70.3226 114.251 67.8421 114.251 65.3616C114.251 65.1844 114.234 65.0073 114.234 64.8301C113.774 64.8301 112.464 65.3793 112.107 65.7337C112.26 65.7514 112.345 65.7868 112.43 65.7691C112.907 65.716 113.06 65.7868 113.094 66.2652C113.128 67.0094 113.111 67.7712 113.111 68.5154C113.026 68.4976 112.992 68.5154 112.975 68.4976ZM113.111 73.2991C113.111 73.4054 113.043 73.5295 112.975 73.6003C112.515 74.1496 111.817 74.2382 111.205 73.8661C110.694 73.5472 110.371 73.0688 110.218 72.4841C110.014 71.6691 109.997 70.8541 110.201 70.0391C110.371 69.3835 110.711 68.8343 111.375 68.6217C112.345 68.5331 113.009 69.1 113.06 70.0745C113.145 71.1376 113.111 72.2183 113.111 73.2991Z" fill="white"/>
<path d="M87.722 73.7243C87.5519 74.0433 87.3136 74.2913 86.9563 74.3622C86.8371 74.3799 86.684 74.3976 86.701 74.6102C86.735 74.6279 86.7691 74.6988 86.8031 74.6988C87.671 74.6988 88.5558 74.6988 89.4237 74.6988C89.4748 74.6988 89.5088 74.6279 89.5428 74.5925C89.5088 74.5394 89.5088 74.4862 89.4918 74.4685C89.3556 74.4331 89.2195 74.3976 89.0664 74.3622C88.5218 74.2382 88.3857 73.9901 88.5729 73.4409C88.7941 72.803 89.0664 72.2006 89.3216 71.5451C90.4277 71.5451 91.5168 71.5451 92.6059 71.5628C92.708 71.5628 92.8441 71.6691 92.8952 71.7754C93.1334 72.3424 93.3716 72.9271 93.5588 73.5117C93.729 74.0433 93.5758 74.2559 93.0653 74.3976C92.9462 74.4331 92.759 74.3799 92.708 74.6102C92.776 74.6457 92.8441 74.6988 92.8952 74.6988C93.9672 74.6988 95.0393 74.6988 96.0943 74.6988C96.1624 74.6988 96.2305 74.6102 96.3326 74.5216C96.1964 74.4685 96.1284 74.4153 96.0603 74.4153C95.5668 74.3267 95.2435 74.0255 95.0393 73.5826C94.9031 73.2814 94.75 72.9802 94.6309 72.6613C93.6779 70.2871 92.725 67.8952 91.772 65.5211C91.704 65.3616 91.6189 65.2376 91.4998 65.0781C91.3807 65.2021 91.2445 65.3085 91.1935 65.4502C90.1895 67.8775 89.2025 70.3226 88.1985 72.7499C88.0624 73.0688 87.8922 73.3877 87.722 73.7243ZM89.8491 70.3048C90.2575 69.3126 90.6489 68.3736 91.0233 67.4523C91.0403 67.4169 91.0573 67.3991 91.0743 67.3637C91.2956 67.6295 92.3506 70.1985 92.5548 70.9604C91.5678 70.9604 90.5979 70.9604 89.5598 70.9604C89.679 70.7301 89.764 70.5174 89.8491 70.3048Z" fill="white"/>
<path d="M39.2749 66.371C39.3089 65.8927 39.5131 65.6978 39.9726 65.5915C40.1257 65.556 40.2959 65.556 40.449 65.5206C40.5341 65.5029 40.6192 65.4674 40.6873 65.4497C40.6703 65.2017 40.5171 65.2371 40.381 65.2371C39.8024 65.2371 39.2068 65.2371 38.6282 65.2371C38.0837 65.2371 37.5221 65.2371 36.9776 65.2371C36.8585 65.2371 36.7053 65.2194 36.7223 65.4851C36.8755 65.5029 37.0457 65.5206 37.2158 65.5383C37.6413 65.6092 37.8455 65.8041 37.9135 66.247C37.9476 66.4596 37.9476 66.6899 37.9476 66.9026C37.9476 68.9224 37.9476 70.9422 37.9476 72.9797C37.9476 73.1569 37.9476 73.3518 37.9305 73.529C37.8795 74.1136 37.6583 74.3263 37.0967 74.3971C36.9606 74.4148 36.8415 74.4326 36.7053 74.4503C36.7053 74.5212 36.7053 74.6097 36.7053 74.6806C38.9515 74.6806 41.1978 74.6806 43.461 74.6806C43.7333 73.8124 43.9885 72.9797 44.1587 72.0938C44.0566 72.1293 43.9715 72.1647 43.9375 72.2356C43.8354 72.4305 43.7503 72.6254 43.6482 72.8203C43.2738 73.5644 42.6953 74.0073 41.8785 74.0073C41.3509 74.0251 40.8064 74.0251 40.2789 74.0251C39.3259 74.0073 39.2238 73.9188 39.2238 72.9266C39.2238 71.4028 39.2238 69.8968 39.2238 68.32C39.2408 67.6644 39.2238 67.0089 39.2749 66.371Z" fill="white"/>
<path d="M119.067 70.6248C118.437 70.9083 117.808 71.1741 117.212 71.5107C116.923 71.6701 116.651 71.9182 116.429 72.184C115.97 72.7332 115.987 73.6722 116.412 74.2569C116.838 74.8239 117.621 75.0011 118.301 74.6467C118.523 74.5227 118.727 74.3455 118.948 74.2038C119.101 74.0975 119.254 73.9734 119.458 73.8317C119.492 73.9557 119.51 74.0266 119.51 74.0798C119.646 74.753 120.105 75.0188 120.684 74.6644C121.007 74.4695 121.279 74.1506 121.552 73.8671C121.637 73.7785 121.62 73.6191 121.654 73.4951C121.466 73.5482 121.347 73.6545 121.245 73.7431C120.888 74.0266 120.701 73.938 120.633 73.4774C120.616 73.3356 120.616 73.1761 120.599 73.0167C120.599 72.6623 120.599 72.308 120.599 71.9536C120.599 71.1918 120.599 70.4299 120.582 69.6858C120.565 69.0479 120.309 68.5518 119.646 68.3038C119.101 68.1089 118.591 68.1089 118.08 68.1621C117.502 68.2152 116.991 68.4633 116.617 68.9593C116.412 69.2251 116.31 69.5086 116.344 69.8452C116.378 70.1819 116.583 70.3945 116.872 70.4122C117.195 70.4299 117.416 70.235 117.467 69.8807C117.484 69.7389 117.467 69.5795 117.467 69.42C117.484 68.9948 117.689 68.729 118.08 68.6227C118.744 68.4278 119.305 68.7822 119.424 69.4732C119.458 69.6326 119.458 69.8098 119.475 69.9692C119.509 70.4476 119.492 70.4299 119.067 70.6248ZM119.492 71.2981C119.492 71.865 119.492 72.432 119.492 73.0167C119.492 73.2293 119.441 73.371 119.271 73.4774C119.016 73.6191 118.778 73.814 118.523 73.9203C117.995 74.1329 117.519 73.8849 117.314 73.3356C117.127 72.8395 117.229 72.3789 117.587 71.9891C117.723 71.8473 117.893 71.741 118.029 71.617C118.523 71.3689 118.965 71.1563 119.441 70.926C119.458 71.0855 119.492 71.1918 119.492 71.2981Z" fill="white"/>
<path d="M46.609 71.1908C46.2347 71.3857 45.8773 71.616 45.554 71.8995C44.9584 72.4133 44.8733 73.0866 45.0945 73.8307C45.2817 74.4508 45.8092 74.8052 46.4218 74.8052C46.8302 74.8052 47.1706 74.6457 47.4939 74.3977C47.7151 74.2205 47.9534 74.0256 48.2086 73.8307C48.2597 73.9724 48.2767 74.0433 48.2937 74.1142C48.4809 74.7875 48.9403 75.0001 49.5019 74.628C49.7912 74.4331 50.0294 74.1496 50.2677 73.8661C50.3527 73.7776 50.3357 73.6181 50.3698 73.4764C50.2166 73.4941 50.1485 73.5649 50.0805 73.6181C49.9273 73.7421 49.8082 73.937 49.587 73.8484C49.3317 73.7421 49.3828 73.4941 49.3658 73.2815C49.3487 72.8208 49.3487 72.3779 49.3487 71.9172C49.3317 71.1022 49.3317 70.3049 49.3147 69.4899C49.2977 68.8875 48.9744 68.48 48.4298 68.2851C47.7832 68.037 47.1195 68.037 46.4729 68.2319C45.8943 68.4091 45.4689 68.7635 45.2477 69.4013C45.2307 69.5962 45.2136 69.7379 45.2307 69.8974C45.2817 70.2163 45.4859 70.3758 45.7582 70.3758C46.0305 70.3758 46.2347 70.1986 46.2857 69.8797C46.3027 69.7202 46.3027 69.543 46.3027 69.3836C46.2857 69.1532 46.3708 68.9583 46.541 68.7989C47.0004 68.3382 47.9023 68.5331 48.1235 69.1532C48.2767 69.5607 48.2937 70.0037 48.2256 70.4289C47.6641 70.6947 47.1195 70.925 46.609 71.1908ZM48.2767 70.925C48.2767 71.4211 48.2767 71.8286 48.2767 72.2538C48.2767 72.4842 48.2767 72.6259 48.2767 72.7499C48.2597 72.998 48.3618 73.2815 48.0725 73.4764C47.7151 73.7244 47.3578 74.0256 46.8983 73.9724C46.3197 73.9016 45.9454 73.1397 46.1666 72.4664C46.2347 72.2893 46.3368 72.0944 46.4559 71.9526C46.9324 71.4211 47.579 71.1908 48.2767 70.925Z" fill="white"/>
<path d="M78.4304 72.6273C78.5836 73.3715 78.975 73.9739 79.5706 74.3991C81.1361 75.4976 83.1271 74.718 83.6036 72.5033C83.6206 72.4324 83.5185 72.3438 83.4504 72.1844C83.3313 72.4147 83.2632 72.5387 83.2122 72.6805C82.6336 73.9384 81.2382 73.9384 80.4725 73.3892C79.8258 72.9108 79.4685 72.2552 79.3664 71.458C79.3323 71.2276 79.3664 71.015 79.3664 70.7315C80.8128 70.7315 82.2082 70.7315 83.6036 70.7315C83.6716 69.5799 83.059 68.6054 82.055 68.2688C81.1532 67.9676 79.7067 68.0739 78.8048 69.509C78.2773 70.5012 78.2092 71.5465 78.4304 72.6273ZM80.7618 68.6408C81.4595 68.5877 82.2592 69.1901 82.1571 70.3063C81.4765 70.3063 80.7958 70.3063 80.0981 70.3063C79.7918 70.3063 79.5876 70.3063 79.3834 70.3063C79.3323 69.4204 79.979 68.694 80.7618 68.6408Z" fill="white"/>
<path d="M57.2615 73.6007C58.3506 75.3902 60.8861 75.2307 61.8391 73.4589C62.4857 72.2541 62.6389 71.0139 62.0263 69.7028C61.8391 69.4193 61.6859 69.1535 61.4817 68.9409C60.4097 67.7716 58.5548 67.8424 57.5508 69.0649C56.5298 70.3229 56.4277 72.2187 57.2615 73.6007ZM57.9592 70.1812C58.0103 69.88 58.0954 69.5788 58.2315 69.3307C58.6569 68.4803 59.695 68.3385 60.3076 69.0295C60.5458 69.2953 60.733 69.6319 60.8691 69.9685C61.2435 70.9962 61.2775 72.077 61.0563 73.1577C61.0223 73.2818 60.9882 73.4235 60.9372 73.5475C60.5288 74.4688 59.4737 74.6814 58.8101 73.9373C58.5889 73.6893 58.4187 73.3703 58.2655 73.0514C58.1464 72.7857 58.0783 72.4845 57.9933 72.1833C57.9082 71.4568 57.8401 70.819 57.9592 70.1812Z" fill="white"/>
<path d="M53.5686 72.0934C54.3174 71.0127 55.0831 69.9496 55.8319 68.8688C55.934 68.7094 56.1041 68.5676 55.968 68.3373C54.981 68.2487 51.4245 68.2841 51.0331 68.4082C51.0331 68.6739 51.0331 68.9574 51.0331 69.2409C51.0331 69.5244 51.0331 69.7901 51.0331 70.0559C51.3394 70.0913 51.3054 69.8965 51.3224 69.7547C51.4926 68.9928 51.6627 68.8334 52.4115 68.8157C52.905 68.798 53.3814 68.8157 53.8749 68.8157C54.0621 68.8157 54.2493 68.8157 54.5386 68.8157C53.2793 70.6229 52.0881 72.3238 50.897 74.0424C50.7778 74.255 50.5566 74.379 50.6928 74.6625C52.3944 74.6625 54.1132 74.6625 55.8148 74.6625C55.951 74.0601 55.968 73.0502 55.8319 72.7136C55.6277 72.7844 55.6787 72.9793 55.6447 73.1388C55.5256 73.9184 55.2873 74.1487 54.5216 74.1841C53.8579 74.2018 53.1942 74.2018 52.5306 74.2018C52.4285 74.2018 52.3264 74.1664 52.1562 74.1487C52.2753 73.9538 52.3434 73.8121 52.4455 73.688C52.8369 73.1565 53.2113 72.625 53.5686 72.0934Z" fill="white"/>
<path d="M99.1911 68.4099C99.2762 68.5162 99.3103 68.5693 99.3613 68.587C99.8208 68.7819 99.8718 68.8705 99.7357 69.3666C99.7016 69.4729 99.6676 69.5969 99.6336 69.7032C99.3103 70.6246 98.9869 71.5459 98.6636 72.4495C98.6126 72.5735 98.5445 72.6975 98.4594 72.9101C98.2212 72.3609 98.034 71.9002 97.8468 71.4396C97.5745 70.7663 97.2852 70.1107 97.03 69.4375C96.8428 68.9237 96.9619 68.7465 97.4384 68.587C97.5065 68.5693 97.5575 68.4807 97.6426 68.4099C97.2002 68.2681 95.3794 68.2681 94.9709 68.4276C95.073 68.5162 95.1411 68.587 95.2092 68.6579C95.3794 68.8174 95.5665 68.9414 95.7027 69.1186C95.8558 69.3312 95.9749 69.5792 96.077 69.8273C96.5535 70.9789 97.03 72.1483 97.5065 73.3176C97.9489 74.3984 97.9489 74.3984 97.5235 75.4615C97.4724 75.5678 97.4214 75.6741 97.3873 75.7804C97.1151 76.3828 96.8088 76.9498 96.2302 77.3041C96.1281 77.375 96.026 77.4813 95.9579 77.5876C95.8558 77.7648 95.8388 77.942 95.992 78.1014C96.1451 78.2609 96.3153 78.2254 96.4684 78.0837C96.5705 77.9774 96.6897 77.8711 96.7577 77.7471C97.081 77.1447 97.4554 76.56 97.7107 75.9399C98.3063 74.5224 98.8508 73.0696 99.4124 71.6522C99.7357 70.8372 100.059 70.0399 100.382 69.2249C100.604 68.6933 100.893 68.5339 101.437 68.6225C101.591 68.6402 101.761 68.6756 101.914 68.711C101.931 68.5162 102.05 68.4807 102.22 68.4807C102.577 68.4807 102.918 68.4807 103.309 68.4453C103.207 68.3921 103.071 68.339 102.935 68.339C102.322 68.3567 101.71 68.3921 101.097 68.3921C100.587 68.3921 100.059 68.3567 99.5485 68.339C99.4464 68.3213 99.3613 68.3567 99.1911 68.4099Z" fill="white"/>
<path d="M63.8131 68.8885C63.2685 69.6858 63.4047 70.7843 64.1874 71.3513C64.5618 71.6171 64.9702 71.8297 65.3616 72.0777C65.6849 72.2903 66.0253 72.5029 66.2975 72.7864C66.6038 73.0699 66.6379 73.4774 66.4847 73.8672C66.3316 74.2747 66.0082 74.4519 65.5998 74.4519C64.8511 74.4519 64.3576 74.0444 64.0343 73.3711C63.9322 73.1408 63.8811 72.8927 63.779 72.6624C63.745 72.5915 63.6599 72.5561 63.5748 72.5029C63.4727 73.1585 63.4897 74.4519 63.6259 74.8239C63.9152 74.5582 64.2215 74.6822 64.5278 74.7531C64.9532 74.824 65.3956 74.9125 65.8211 74.8771C66.5698 74.8062 67.1314 74.3987 67.4206 73.6546C67.6929 72.9282 67.5398 72.2549 66.9612 71.6879C66.6379 71.4576 66.3486 71.245 66.0423 71.0678C65.7019 70.8729 65.3446 70.7135 65.0042 70.5008C64.8171 70.3768 64.6129 70.2351 64.4767 70.0579C64.0513 69.5264 64.2725 68.8531 64.9021 68.6582C65.4977 68.4633 66.1784 68.7291 66.4847 69.3138C66.6209 69.5795 66.6889 69.8807 66.808 70.1465C66.8421 70.2174 66.9442 70.2705 67.0803 70.4123C67.0803 69.5795 67.0973 68.8885 67.0633 68.0381C66.6208 68.5696 66.2295 68.3216 65.8211 68.233C65.5658 68.1798 65.3105 68.1621 65.0553 68.1798C64.5448 68.1621 64.1194 68.4279 63.8131 68.8885Z" fill="white"/>
<path d="M101.931 68.7092C102.203 68.9395 102.22 69.223 102.22 69.5065C102.22 70.4632 102.22 71.42 102.22 72.3767C102.22 72.7842 102.254 73.1917 102.322 73.5815C102.492 74.432 103.156 74.9281 103.99 74.8572C104.534 74.804 104.977 74.556 105.317 74.1308C105.334 74.113 105.334 74.113 105.351 74.113V74.1308C105.368 74.113 105.385 74.0953 105.385 74.0776C105.402 74.0599 105.419 74.0245 105.419 74.0245C105.436 74.0067 105.436 74.0067 105.453 74.0067V74.0245C105.47 74.0067 105.487 73.989 105.487 73.989C105.504 73.989 105.607 73.9004 105.607 73.9004C105.743 73.8296 105.845 73.7587 105.947 73.6701C105.947 73.6878 105.947 73.6878 105.947 73.7055C105.93 74.0953 105.947 74.4142 105.964 74.7154V74.7332H105.981C106.151 74.8749 106.287 74.8749 106.389 74.7509C106.389 74.7509 106.389 74.7509 106.406 74.7509C106.44 74.7509 106.457 74.7509 106.457 74.7509H106.474C106.508 74.7332 106.542 74.7332 106.559 74.7154C106.577 74.7154 106.577 74.7154 106.594 74.7154C106.679 74.6977 106.713 74.68 106.764 74.6446C106.9 74.5914 107.087 74.5206 107.172 74.4497L107.189 74.432C107.257 74.4142 107.291 74.3788 107.325 74.3611C107.342 74.3611 107.376 74.3434 107.41 74.3434C107.512 74.3434 107.529 74.3257 107.546 74.3079C107.581 74.2902 107.598 74.2548 107.683 74.2194C107.734 74.2016 107.768 74.2016 107.802 74.2016L107.819 74.2194C107.904 74.1485 107.972 74.0776 108.04 73.989C107.955 73.9713 107.87 73.9182 107.785 73.9182C107.734 73.9182 107.683 73.9359 107.649 73.9713C107.649 73.9713 107.649 73.9713 107.632 73.9536C107.427 73.8473 107.291 73.7764 107.155 73.7055C107.138 73.6878 107.138 73.6878 107.138 73.6701C107.138 73.6878 107.155 73.6878 107.155 73.6878C107.155 73.6524 107.138 73.6347 107.121 73.6347C107.121 73.617 107.121 73.6169 107.121 73.5992C107.121 73.5284 107.104 73.4752 107.087 73.4398C107.087 71.7389 107.07 70.0025 107.053 68.3548C105.998 68.2308 105.113 68.2839 104.909 68.4788C105.079 68.6737 105.3 68.6029 105.504 68.6029C105.981 68.3371 106.44 68.4965 106.951 68.4788C106.44 68.4965 105.981 68.3371 105.521 68.6206C105.641 68.78 105.76 68.8686 105.862 68.9572C105.879 68.9926 105.896 69.0281 105.896 69.0635C105.879 69.0281 105.879 69.0104 105.862 68.9926C105.879 69.0812 105.896 69.1521 105.913 69.2053C105.913 69.223 105.913 69.2407 105.913 69.2761C105.896 70.6049 105.896 71.8629 105.896 73.1209V73.1386L105.879 73.1563C105.76 73.2626 105.573 73.4575 105.47 73.5815C105.402 73.5815 105.3 73.6701 105.266 73.7055C105.215 73.741 105.181 73.7587 105.164 73.7941C105.147 73.7941 105.147 73.8118 105.13 73.8118C105.011 73.8473 104.96 73.8827 104.892 73.9182C104.841 73.9359 104.824 73.9536 104.807 73.9713C104.79 73.9713 104.773 73.989 104.739 73.989C104.688 73.9713 104.654 73.989 104.637 73.989C104.466 73.989 104.262 74.0067 104.143 74.0422C104.126 74.0422 104.126 74.0245 104.109 74.0245C104.024 73.9713 103.973 73.9536 103.922 73.9536C103.888 73.9359 103.871 73.9359 103.871 73.9536C103.854 73.9536 103.837 73.9359 103.82 73.9182C103.769 73.865 103.718 73.8473 103.684 73.8296C103.667 73.8118 103.65 73.8118 103.616 73.7941H103.633C103.599 73.7587 103.582 73.741 103.548 73.741L103.565 73.7233C103.548 73.7055 103.53 73.6878 103.513 73.6701C103.53 73.6878 103.548 73.6878 103.548 73.6878C103.513 73.6347 103.496 73.5992 103.462 73.5992C103.462 73.5815 103.462 73.5815 103.445 73.5815C103.445 73.4929 103.428 73.4575 103.394 73.4398C103.36 73.2449 103.326 72.9791 103.275 72.8374C103.275 72.8374 103.275 72.8374 103.275 72.8197C103.309 72.359 103.309 71.9869 103.309 71.5971C103.309 70.5695 103.292 69.5242 103.241 68.4965C102.85 68.4965 102.492 68.4965 102.152 68.4965C102.067 68.4434 101.931 68.4788 101.931 68.7092ZM106.985 72.9614C106.985 73.0323 106.968 73.1209 106.968 73.2094C106.968 73.1209 106.985 73.05 106.985 72.9614ZM104.5 74.113C104.432 74.1308 104.347 74.1308 104.262 74.0776C104.347 74.113 104.432 74.113 104.5 74.113Z" fill="white"/>
<path d="M75.5546 56.4132C74.3464 55.8285 72.4916 56.3246 71.8279 58.1672C71.2323 59.815 72.1342 61.2678 73.6998 61.5867C74.1082 61.569 74.4995 61.6045 74.8399 61.4982C75.1802 61.4096 75.5035 61.197 75.8269 61.0198C75.8609 61.2324 75.8779 61.4096 75.8949 61.5867C76.3544 61.6045 77.5796 61.197 77.954 60.9135C77.937 60.8958 77.9199 60.8426 77.9029 60.8426C77.8689 60.8249 77.8178 60.8249 77.7668 60.8249C77.1031 60.878 77.0351 60.8249 77.018 60.1516C77.018 60.0453 77.018 59.9567 77.018 59.8504C77.018 57.9369 77.018 56.0411 77.018 54.1276C77.018 53.9504 77.001 53.7733 77.001 53.6138C76.4905 53.5961 75.1972 54.039 74.908 54.3579C75.0781 54.3579 75.1972 54.3402 75.3164 54.3402C75.6907 54.3225 75.8439 54.4288 75.8609 54.8186C75.8949 55.3856 75.8609 55.9525 75.8609 56.5726C75.7248 56.4841 75.6397 56.4486 75.5546 56.4132ZM75.8779 58.0255C75.8779 58.2381 75.8779 58.4684 75.8779 58.681C75.8779 59.2303 75.8609 59.691 75.8779 60.1516C75.8949 60.4351 75.7758 60.5946 75.5716 60.7186C74.908 61.1615 74.0571 60.9843 73.4105 60.3288C72.7298 59.6378 72.6787 57.7066 73.4956 56.9979C73.989 56.5726 74.4995 56.4663 75.0781 56.7144C75.6056 56.9447 75.8779 57.4054 75.8779 58.0255Z" fill="white"/>
<path d="M51.714 60.4363C51.663 60.9678 51.4928 61.145 50.9823 61.1981C50.8632 61.2158 50.7441 61.1981 50.642 61.2158C50.5739 61.2335 50.5229 61.3044 50.3867 61.4107C50.5569 61.4284 50.625 61.4639 50.71 61.4639C51.8842 61.4639 53.0754 61.4462 54.2495 61.4284C54.2666 61.4284 54.2666 61.4107 54.2836 61.393C54.2836 61.3753 54.2836 61.3576 54.3006 61.3221C54.1645 61.1272 53.9603 61.2335 53.7731 61.1981C53.2115 61.0918 53.0754 60.9678 53.0414 60.3831C53.0073 59.8161 53.0243 59.2315 53.0243 58.6645C53.0243 58.381 53.0243 58.0975 53.0243 57.7786C53.671 57.7786 54.2666 57.7786 54.9132 57.7786C55.2195 57.814 55.4407 57.9203 55.6279 58.133C55.7981 58.3279 55.6449 58.6822 55.9342 58.8239C56.0874 58.4519 56.0874 56.6447 55.9512 56.2372C55.713 56.2372 55.764 56.4675 55.696 56.6092C55.5769 56.9282 55.4067 57.1939 55.0493 57.2116C54.3857 57.2294 53.722 57.2116 53.0754 57.2116C52.9903 56.7155 52.9903 54.7134 53.0924 54.3591C53.8411 54.3591 54.5729 54.3414 55.3216 54.3591C56.0193 54.3768 56.5979 54.6071 56.8531 55.3513C56.9042 55.4753 56.9552 55.617 57.1935 55.5107C57.1764 54.9969 57.1424 54.4654 57.1254 53.8984C54.9983 53.8984 52.9392 53.8984 50.8632 53.8984C50.7441 53.8984 50.642 53.9162 50.5229 53.9339C50.5058 53.9339 50.5058 53.9516 50.4888 53.9693C50.4888 53.987 50.4888 54.0047 50.4718 54.0579C50.5399 54.0756 50.6079 54.1288 50.676 54.1288C51.6289 54.2351 51.714 54.3059 51.7311 55.2981C51.7481 56.875 51.7311 58.4696 51.7311 60.0465C51.7481 60.2059 51.731 60.3122 51.714 60.4363Z" fill="white"/>
<path d="M104.483 61.1973C104.347 61.2328 104.16 61.1442 104.058 61.4277C104.415 61.4985 104.739 61.4631 105.079 61.4631C105.419 61.4631 105.76 61.4808 106.1 61.4631C106.423 61.4454 106.764 61.5517 107.07 61.3391C106.968 61.2682 106.849 61.2328 106.73 61.2151C106.287 61.1265 106.185 61.0025 106.151 60.5418C106.134 60.276 106.134 60.0103 106.134 59.7268C106.134 59.0358 106.151 58.3448 106.1 57.6538C106.049 56.7679 105.436 56.1832 104.586 56.2187C104.228 56.2364 103.871 56.4136 103.479 56.5199C103.173 56.7325 102.901 56.9274 102.578 57.14C102.561 56.8034 102.544 56.5199 102.526 56.2364C102.101 56.1124 101.795 56.3781 101.437 56.4844C101.097 56.573 100.723 56.6262 100.45 56.9451C100.57 56.9983 100.689 57.016 100.791 57.016C101.25 56.9983 101.386 57.0868 101.386 57.5829C101.403 58.5574 101.403 59.5319 101.403 60.5241C101.403 61.0202 101.267 61.1265 100.808 61.2328C100.689 61.2505 100.536 61.1973 100.519 61.41C100.978 61.5517 103.207 61.534 103.582 61.3391C103.394 61.2859 103.292 61.2505 103.173 61.2328C102.663 61.1442 102.578 61.0733 102.561 60.5241C102.544 59.7799 102.595 59.0358 102.526 58.2916C102.475 57.6892 102.731 57.3703 103.207 57.1754C103.377 57.1046 103.548 57.0337 103.718 56.9983C104.449 56.8211 104.909 57.1223 104.943 57.9019C104.977 58.8055 104.977 59.7268 104.96 60.6304C104.994 61.0025 104.858 61.1265 104.483 61.1973Z" fill="white"/>
<path d="M68.8504 61.1073C68.7143 61.1782 68.5441 61.1782 68.391 61.2136C68.2718 61.2314 68.1527 61.2491 68.2038 61.4263C69.0036 61.5326 70.8924 61.4971 71.1477 61.3554C71.1307 61.32 71.1307 61.2845 71.0966 61.2668C71.0115 61.2314 70.9095 61.2136 70.8244 61.1959C70.416 61.1251 70.2968 60.9833 70.2628 60.5758C70.2458 60.3632 70.2458 60.1329 70.2458 59.9203C70.2288 59.1761 70.2628 58.432 70.2118 57.7056C70.1437 56.5893 69.2078 55.9338 68.1697 56.3059C67.7613 56.4476 67.404 56.7311 67.0296 56.9437C66.9275 56.9968 66.8424 57.0854 66.6893 57.174C66.6722 56.8197 66.6552 56.5362 66.6382 56.2527C66.2128 56.1464 65.8895 56.4122 65.5491 56.5007C64.7323 56.7311 64.7323 56.7488 64.5962 56.9968C64.7493 56.9968 64.8855 56.9968 65.0216 56.9968C65.3279 56.9968 65.43 57.0854 65.4981 57.3866C65.5151 57.4929 65.5321 57.617 65.5321 57.741C65.5321 58.6269 65.5491 59.5305 65.5321 60.4164C65.5321 60.9833 65.396 61.1073 64.8685 61.2136C64.7834 61.2314 64.7153 61.3022 64.6302 61.3377C64.7834 61.444 64.9025 61.4617 65.0386 61.4617C65.6512 61.4617 66.2638 61.4617 66.8765 61.4617C67.0807 61.4617 67.3019 61.4617 67.5061 61.444C67.5401 61.444 67.5571 61.32 67.5571 61.2491C67.472 61.2137 67.438 61.2136 67.387 61.2136C66.7743 61.1428 66.6893 61.0719 66.6722 60.4341C66.6552 59.6722 66.6893 58.9103 66.6552 58.1662C66.6212 57.6701 66.8424 57.4043 67.2168 57.2272C67.3699 57.1563 67.5061 57.0854 67.6592 57.0323C68.3569 56.8019 69.0716 56.8728 69.1057 58.0422C69.1227 58.8926 69.1057 59.7254 69.1057 60.5758C69.1227 60.7884 69.0716 61.001 68.8504 61.1073Z" fill="white"/>
<path d="M62.2304 60.2771C61.8731 60.5606 61.4987 60.8441 61.0222 60.8795C60.2905 60.9504 59.9502 60.6669 59.9161 59.905C59.8991 59.7456 59.8991 59.5684 59.8991 59.3912C59.8991 58.5231 59.8991 57.6372 59.8991 56.769C59.8991 56.645 59.8821 56.521 59.8651 56.3792C59.1674 56.3792 58.5037 56.3792 57.8571 56.3792C57.823 56.3792 57.806 56.4324 57.7209 56.521C57.8911 56.5564 57.9932 56.5741 58.1123 56.5918C58.6228 56.6627 58.759 56.8044 58.776 57.336C58.793 57.7612 58.776 58.1864 58.776 58.5939C58.793 59.1432 58.776 59.7101 58.827 60.2594C58.9121 61.0744 59.4396 61.5528 60.2224 61.5882C60.7499 61.6059 61.2094 61.4819 61.6518 61.1098C61.8731 60.9327 62.0773 60.7732 62.3666 60.5606C62.3666 60.9681 62.3666 61.2516 62.3666 61.6236C63.1493 61.5173 63.779 61.1807 64.4426 60.8972C64.3235 60.8264 64.2044 60.8263 64.1023 60.8263C63.6598 60.8618 63.5577 60.7555 63.5067 60.2948C63.4897 60.1531 63.4897 60.0291 63.4897 59.8873C63.4897 58.8774 63.4897 57.8675 63.4897 56.8576C63.4897 56.6981 63.4726 56.5387 63.4556 56.3792C62.6558 56.2552 61.6518 56.3083 61.3285 56.5032C61.5497 56.5387 61.6859 56.5741 61.839 56.5918C62.2304 56.6804 62.3325 56.7867 62.3495 57.1942C62.3665 58.0978 62.3665 59.0192 62.3495 59.9228C62.3495 60.0822 62.2985 60.224 62.2304 60.2771Z" fill="white"/>
<path d="M81.4428 58.1847C81.1705 58.2733 80.9153 58.3265 80.66 58.4505C80.0985 58.6985 79.5199 58.9289 78.9924 59.2478C78.3968 59.6199 78.2606 60.2931 78.584 60.8778C78.8052 61.2853 79.1625 61.5157 79.605 61.5511C80.0985 61.6042 80.5749 61.5157 81.0004 61.2322C81.2216 61.0904 81.4768 60.9664 81.6981 60.8247C82.0214 61.5511 82.3277 61.7283 82.9233 61.4625C83.2636 61.303 83.5699 61.0196 83.8592 60.7715C83.9102 60.7184 83.8932 60.5766 83.9273 60.3817C83.7061 60.5412 83.5529 60.6652 83.4168 60.7361C83.1785 60.8778 83.0084 60.8069 82.9403 60.5235C82.9063 60.3463 82.9063 60.1514 82.8892 59.9742C82.8722 59.1415 82.8892 58.3265 82.8722 57.4937C82.8722 57.0685 82.7531 56.6787 82.3447 56.4838C81.2556 55.9877 80.1836 56.0055 79.1455 56.6433C78.8733 56.8205 78.6861 57.0685 78.6861 57.4583C78.7031 57.7949 78.8733 57.9367 79.1455 57.9721C79.5539 58.0253 79.7752 57.7949 79.8092 57.3166C79.8262 56.785 80.0134 56.5901 80.5069 56.537C81.3237 56.4307 81.7151 56.785 81.7831 57.6532C81.7661 57.9898 81.664 58.1139 81.4428 58.1847ZM81.7661 58.4682C81.7661 59.0883 81.8002 59.6553 81.7491 60.2045C81.7321 60.3463 81.4598 60.488 81.3237 60.6121C81.0344 60.7184 80.7962 60.8424 80.5749 60.8601C80.1155 60.9133 79.7752 60.6829 79.605 60.2754C79.4688 59.9388 79.622 59.4604 79.9794 59.2124C80.4899 58.858 81.0684 58.6277 81.7661 58.4682Z" fill="white"/>
<path d="M94.1881 58.2725C94.035 58.8572 94.052 59.3887 94.2732 59.9025C94.7497 60.9833 95.5665 61.5502 96.7066 61.6211C97.9148 61.692 98.9358 61.3199 99.5484 60.186C100.246 58.9103 99.9909 57.5992 98.8167 56.7665C97.3703 55.7034 94.8518 56.0755 94.1881 58.2725ZM95.4474 57.6524C95.7367 56.5716 97.0299 56.2172 97.8297 56.9791C98.136 57.2626 98.3572 57.6169 98.4764 58.0244C98.6636 58.6977 98.6635 59.3001 98.5785 59.9025C98.4934 60.5049 98.2041 60.9478 97.6255 61.1073C97.0299 61.2668 96.4854 61.1605 96.077 60.6644C95.3623 59.7962 95.1581 58.7686 95.4474 57.6524Z" fill="white"/>
<path d="M87.1093 56.6094C87.6028 56.6271 87.807 56.7866 87.9431 57.2826C88.0792 57.7965 88.3004 57.9559 88.7769 57.9028C89.2534 57.8496 89.4236 57.5307 89.2023 57.0878C89.0322 56.7334 88.7089 56.5562 88.3855 56.4145C87.4666 56.0247 86.5647 56.1133 85.7139 56.5917C84.2334 57.4244 83.8931 59.5328 85.0502 60.773C85.816 61.588 86.7519 61.7652 87.824 61.4463C88.6238 61.0919 89.1853 60.5427 89.4065 59.6745C89.4236 59.6037 89.3895 59.5151 89.3555 59.3379C89.1853 59.5859 89.0662 59.7631 88.9301 59.9403C88.3855 60.6667 87.4156 60.8971 86.6158 60.525C85.7309 60.0998 85.2544 58.8064 85.5777 57.7433C85.799 56.9992 86.3605 56.5917 87.1093 56.6094Z" fill="white"/>
<path d="M90.6147 61.2151C90.5296 61.2328 90.4615 61.3037 90.3083 61.3923C90.938 61.5163 92.997 61.4986 93.3203 61.3746C93.2693 61.162 93.0991 61.2328 92.963 61.1974C92.6056 61.1265 92.4865 61.0025 92.4525 60.6304C92.4355 60.4178 92.4184 60.1875 92.4184 59.9749C92.4184 58.9118 92.4184 57.8488 92.4184 56.8034C92.4184 56.6262 92.4184 56.4314 92.4184 56.2719C92.0611 56.1124 91.8228 56.3428 91.5165 56.4136C91.1592 56.5377 90.8359 56.6262 90.5126 56.7503C90.4445 56.7857 90.3934 56.8743 90.3083 56.9629C90.3934 57.016 90.3934 57.016 90.4104 57.016C90.4785 57.016 90.5296 57.016 90.5976 57.016C91.1081 56.9806 91.1932 57.0515 91.2613 57.5653C91.2783 57.6539 91.2783 57.7247 91.2783 57.8133C91.2783 58.6638 91.2953 59.5319 91.2783 60.3824C91.2953 60.9848 91.1762 61.1088 90.6147 61.2151Z" fill="white"/>
<path d="M96.9109 53.7393C96.7067 54.2708 96.5195 54.8023 96.2983 55.3516C96.2813 55.4756 96.2812 55.5642 96.2812 55.7591C97.064 55.139 97.6596 54.4302 98.4084 53.7393C97.8638 53.7393 97.4044 53.7393 96.9109 53.7393Z" fill="white"/>
<path d="M91.7718 54.6952C91.8909 54.6952 91.993 54.6952 92.1121 54.6598C92.3504 54.5889 92.5375 54.3409 92.5375 54.1105C92.5375 53.8802 92.3334 53.6144 92.0951 53.579C91.8909 53.5436 91.6867 53.6144 91.4485 53.6499C91.2443 53.827 91.0911 54.0042 91.2102 54.2877C91.3123 54.5357 91.4995 54.6775 91.7718 54.6952Z" fill="white"/>
</g>
<defs>
<clipPath id="clip0_4972_34335">
<rect width="145.869" height="143.354" fill="white"/>
</clipPath>
</defs>
</svg>
